<?xml version="1.0" encoding="utf-8"?>
<!-- Generator: Adobe Illustrator 16.0.0, SVG Export Plug-In . SVG Version: 6.00 Build 0)  -->
<!DOCTYPE svg PUBLIC "-//W3C//DTD SVG 1.0//EN" "http://www.w3.org/TR/2001/REC-SVG-20010904/DTD/svg10.dtd">
<svg version="1.0" id="Layer_1" xmlns="http://www.w3.org/2000/svg" xmlns:xlink="http://www.w3.org/1999/xlink" x="0px" y="0px"
	 width="389.25px" height="301.5px" viewBox="0 0 389.25 301.5" enable-background="new 0 0 389.25 301.5" xml:space="preserve">
<path fill-rule="evenodd" clip-rule="evenodd" fill="#FFFFFF" d="M94.899,122.97c0-4.32-10.48-7.81-23.407-7.81
	c-12.927,0-23.407,3.49-23.407,7.81c0,4.31,10.48,7.81,23.407,7.81C84.419,130.78,94.899,127.28,94.899,122.97z M48.087,123.05
	l-0.002,36.08c0,4.311,10.48,7.811,23.407,7.811c12.927,0,23.407-3.5,23.407-7.811v-36.16c0,4.31-10.48,7.81-23.407,7.81
	C58.664,130.78,48.226,127.33,48.087,123.05z"/>
<path fill="none" stroke="#000000" stroke-width="0.7508" stroke-linecap="round" stroke-linejoin="round" stroke-miterlimit="10" d="
	M94.899,122.97c0-4.32-10.48-7.81-23.407-7.81c-12.927,0-23.407,3.49-23.407,7.81c0,4.31,10.48,7.81,23.407,7.81
	C84.419,130.78,94.899,127.28,94.899,122.97z M48.087,123.05l-0.002,36.08c0,4.311,10.48,7.811,23.407,7.811
	c12.927,0,23.407-3.5,23.407-7.811v-36.16c0,4.31-10.48,7.81-23.407,7.81C58.664,130.78,48.226,127.33,48.087,123.05z"/>
<text transform="matrix(1 0 0 1 23.1748 180.3799)"><tspan x="0" y="0" font-family="'Calibri'" font-size="9.775">R</tspan><tspan x="5.288" y="0" font-family="'Calibri'" font-size="9.775">e</tspan><tspan x="10.552" y="0" font-family="'Calibri'" font-size="9.775">d</tspan><tspan x="15.815" y="0" font-family="'Calibri'" font-size="9.775">i</tspan><tspan x="18.059" y="0" font-family="'Calibri'" font-size="9.775">s</tspan><tspan x="21.813" y="0" font-family="'Calibri'" font-size="9.775"> </tspan></text>
<text transform="matrix(1 0 0 1 47.3501 180.3799)" font-family="'Calibri'" font-size="9.775">–</text>
<text transform="matrix(1 0 0 1 52.3501 180.3799)" font-family="'Calibri'" font-size="9.775"> </text>
<text transform="matrix(1 0 0 1 54.6001 180.3799)"><tspan x="0" y="0" font-family="'Calibri'" font-size="9.775">R</tspan><tspan x="5.288" y="0" font-family="'Calibri'" font-size="9.775">e</tspan><tspan x="10.552" y="0" font-family="'Calibri'" font-size="9.775">m</tspan><tspan x="18.82" y="0" font-family="'Calibri'" font-size="9.775">o</tspan><tspan x="24.083" y="0" font-family="'Calibri'" font-size="9.775">t</tspan><tspan x="27.093" y="0" font-family="'Calibri'" font-size="9.775">e</tspan><tspan x="32.357" y="0" font-family="'Calibri'" font-size="9.775"> </tspan><tspan x="34.587" y="0" font-family="'Calibri'" font-size="9.775">Q</tspan><tspan x="41.35" y="0" font-family="'Calibri'" font-size="9.775">u</tspan><tspan x="46.612" y="0" font-family="'Calibri'" font-size="9.775">e</tspan><tspan x="51.144" y="0" font-family="'Calibri'" font-size="9.775">u</tspan><tspan x="56.406" y="0" font-family="'Calibri'" font-size="9.775">e</tspan><tspan x="61.671" y="0" font-family="'Calibri'" font-size="9.775">s</tspan></text>
<line fill="none" stroke="#000000" stroke-width="0.7508" stroke-linecap="round" stroke-linejoin="round" stroke-miterlimit="10" x1="310.16" y1="109.55" x2="331.17" y2="109.55"/>
<rect x="331.17" y="97.147" fill-rule="evenodd" clip-rule="evenodd" fill="#FFFFFF" width="13.778" height="21.583"/>
<rect x="331.17" y="97.147" fill="none" stroke="#000000" stroke-width="0.7508" stroke-linecap="round" stroke-linejoin="round" stroke-miterlimit="10" width="13.778" height="21.583"/>
<path fill-rule="evenodd" clip-rule="evenodd" d="M327.47,88.4c0-9.48-7.68-17.16-17.149-17.16c-9.471,0-17.15,7.68-17.15,17.16
	c0,9.47,7.68,17.15,17.15,17.15C319.79,105.55,327.47,97.87,327.47,88.4z"/>
<path fill="none" stroke="#000000" stroke-width="0.7508" stroke-linecap="round" stroke-linejoin="round" stroke-miterlimit="10" d="
	M327.47,88.4c0-9.48-7.68-17.16-17.149-17.16c-9.471,0-17.15,7.68-17.15,17.16c0,9.47,7.68,17.15,17.15,17.15
	C319.79,105.55,327.47,97.87,327.47,88.4z"/>
<path fill-rule="evenodd" clip-rule="evenodd" fill="#FFFFFF" d="M342.74,108.68c0-0.46-0.37-0.83-0.83-0.83s-0.83,0.37-0.83,0.83
	s0.37,0.83,0.83,0.83S342.74,109.14,342.74,108.68z M336.16,111.92h6.72v-0.54h-6.72V111.92z M336.16,113.55h6.72v-0.54h-6.72
	V113.55z M336.16,115.19h6.72v-0.54h-6.72V115.19z M296.72,87.96c0.021-1.82,0.29-3.59,0.771-5.27h-2.62
	c-0.61,1.65-0.96,3.43-1,5.27H296.72z M297.65,94.1c-0.54-1.67-0.86-3.44-0.92-5.27h-2.86c0.05,1.84,0.39,3.62,1,5.27H297.65z
	 M297.77,81.83c0.65-1.91,1.591-3.68,2.761-5.27h-1.65c-1.54,1.49-2.79,3.28-3.66,5.27H297.77z M297.94,94.96h-2.721
	c0.87,1.99,2.12,3.78,3.66,5.27h2.04C299.67,98.65,298.66,96.88,297.94,94.96z M297.61,87.96h5.319c0.04-1.79,0.221-3.56,0.561-5.27
	h-5.08C297.91,84.37,297.63,86.15,297.61,87.96z M303.43,94.1c-0.319-1.71-0.489-3.48-0.5-5.27h-5.31
	c0.07,1.82,0.399,3.59,0.95,5.27H303.43z M305.37,76.56h-3.91c-1.14,1.54-2.1,3.33-2.77,5.27h4.97
	C304.08,80.01,304.65,78.25,305.37,76.56z M305.25,100.23c-0.7-1.69-1.25-3.45-1.65-5.27h-4.72c0.75,1.94,1.8,3.72,3.09,5.27H305.25
	z M301.21,75.7c0.66-0.8,1.39-1.55,2.17-2.23c-1.28,0.59-2.47,1.34-3.54,2.23H301.21z M301.64,101.09h-1.8
	c1.43,1.19,3.07,2.13,4.851,2.78C303.57,103.05,302.55,102.12,301.64,101.09z M302.15,75.7h3.609c0.58-1.24,1.23-2.42,1.96-3.56
	c-0.649,0.1-1.29,0.25-1.92,0.43C304.49,73.34,303.25,74.4,302.15,75.7z M307.5,104.59c-0.69-1.12-1.32-2.29-1.87-3.5h-2.89
	C304.12,102.54,305.73,103.73,307.5,104.59z M309.89,88.83h-6.069c0.02,1.79,0.199,3.56,0.52,5.27h5.55V88.83z M309.89,82.69h-5.5
	c-0.34,1.71-0.529,3.47-0.56,5.27h6.06V82.69z M309.89,94.96h-5.37c0.41,1.83,0.971,3.59,1.681,5.27h3.689V94.96z M309.89,76.56
	h-3.6c-0.72,1.68-1.3,3.44-1.71,5.27h5.31V76.56z M309.89,101.09h-3.31c0.58,1.28,1.25,2.51,1.979,3.67
	c0.44,0.05,0.881,0.08,1.33,0.09V101.09z M309.89,71.94c-0.409,0.01-0.81,0.03-1.21,0.07c-0.739,1.18-1.42,2.41-2.01,3.69h3.22
	V71.94z M310.75,100.23h3.39c0.71-1.68,1.271-3.44,1.681-5.27h-5.07V100.23z M310.75,94.1H316c0.32-1.71,0.5-3.48,0.52-5.27h-5.77
	V94.1z M313.77,101.09h-3.02v3.76c0.34-0.01,0.68-0.03,1.01-0.06C312.5,103.62,313.18,102.38,313.77,101.09z M310.75,87.96h5.76
	c-0.029-1.8-0.22-3.56-0.56-5.27h-5.2V87.96z M310.75,76.56v5.27h5.02c-0.42-1.83-1-3.59-1.72-5.27H310.75z M310.75,75.7h2.92
	c-0.6-1.29-1.28-2.53-2.02-3.71c-0.301-0.02-0.601-0.04-0.9-0.05V75.7z M314.63,72.5c-0.67-0.18-1.35-0.31-2.04-0.41
	c0.74,1.15,1.41,2.36,1.99,3.61h3.8C317.25,74.37,315.98,73.28,314.63,72.5z M317.78,101.09h-3.07c-0.56,1.24-1.21,2.44-1.93,3.59
	c0.04-0.01,0.069-0.02,0.109-0.02C314.72,103.79,316.37,102.57,317.78,101.09z M314.97,76.56c0.721,1.69,1.29,3.45,1.71,5.27h5.16
	c-0.67-1.94-1.63-3.73-2.77-5.27H314.97z M321.65,94.96h-4.91c-0.4,1.82-0.95,3.58-1.65,5.27h3.46
	C319.85,98.68,320.9,96.9,321.65,94.96z M318.89,101.09c-0.939,1.06-2,2.02-3.149,2.85c1.859-0.65,3.569-1.62,5.06-2.85H318.89z
	 M322.11,82.69h-5.261c0.341,1.71,0.521,3.48,0.561,5.27h5.5C322.9,86.15,322.61,84.37,322.11,82.69z M322.9,88.83h-5.49
	c-0.01,1.8-0.18,3.56-0.5,5.27h5.04C322.51,92.42,322.84,90.65,322.9,88.83z M319.32,75.7h1.479c-1.14-0.94-2.41-1.73-3.78-2.34
	C317.85,74.07,318.62,74.86,319.32,75.7z M322.58,94.96c-0.71,1.92-1.72,3.69-2.97,5.27h2.149c1.54-1.49,2.79-3.28,3.66-5.27H322.58
	z M322.76,81.83h2.66c-0.87-1.99-2.12-3.78-3.66-5.27h-1.77C321.17,78.15,322.11,79.92,322.76,81.83z M323.8,88.83
	c-0.069,1.83-0.38,3.6-0.92,5.27h2.89c0.61-1.65,0.95-3.43,1-5.27H323.8z M323.04,82.69c0.479,1.68,0.75,3.45,0.76,5.27h2.97
	c-0.05-1.84-0.39-3.62-1-5.27H323.04z"/>
<path fill="none" stroke="#000000" stroke-width="0.7508" stroke-linecap="round" stroke-linejoin="round" stroke-miterlimit="10" d="
	M342.74,108.68c0-0.46-0.37-0.83-0.83-0.83s-0.83,0.37-0.83,0.83s0.37,0.83,0.83,0.83S342.74,109.14,342.74,108.68z M336.16,111.92
	h6.72v-0.54h-6.72V111.92z M336.16,113.55h6.72v-0.54h-6.72V113.55z M336.16,115.19h6.72v-0.54h-6.72V115.19z M296.72,87.96
	c0.021-1.82,0.29-3.59,0.771-5.27h-2.62c-0.61,1.65-0.96,3.43-1,5.27H296.72z M297.65,94.1c-0.54-1.67-0.86-3.44-0.92-5.27h-2.86
	c0.05,1.84,0.39,3.62,1,5.27H297.65z M297.77,81.83c0.65-1.91,1.591-3.68,2.761-5.27h-1.65c-1.54,1.49-2.79,3.28-3.66,5.27H297.77z
	 M297.94,94.96h-2.721c0.87,1.99,2.12,3.78,3.66,5.27h2.04C299.67,98.65,298.66,96.88,297.94,94.96z M297.61,87.96h5.319
	c0.04-1.79,0.221-3.56,0.561-5.27h-5.08C297.91,84.37,297.63,86.15,297.61,87.96z M303.43,94.1c-0.319-1.71-0.489-3.48-0.5-5.27
	h-5.31c0.07,1.82,0.399,3.59,0.95,5.27H303.43z M305.37,76.56h-3.91c-1.14,1.54-2.1,3.33-2.77,5.27h4.97
	C304.08,80.01,304.65,78.25,305.37,76.56z M305.25,100.23c-0.7-1.69-1.25-3.45-1.65-5.27h-4.72c0.75,1.94,1.8,3.72,3.09,5.27H305.25
	z M301.21,75.7c0.66-0.8,1.39-1.55,2.17-2.23c-1.28,0.59-2.47,1.34-3.54,2.23H301.21z M301.64,101.09h-1.8
	c1.43,1.19,3.07,2.13,4.851,2.78C303.57,103.05,302.55,102.12,301.64,101.09z M302.15,75.7h3.609c0.58-1.24,1.23-2.42,1.96-3.56
	c-0.649,0.1-1.29,0.25-1.92,0.43C304.49,73.34,303.25,74.4,302.15,75.7z M307.5,104.59c-0.69-1.12-1.32-2.29-1.87-3.5h-2.89
	C304.12,102.54,305.73,103.73,307.5,104.59z M309.89,88.83h-6.069c0.02,1.79,0.199,3.56,0.52,5.27h5.55V88.83z M309.89,82.69h-5.5
	c-0.34,1.71-0.529,3.47-0.56,5.27h6.06V82.69z M309.89,94.96h-5.37c0.41,1.83,0.971,3.59,1.681,5.27h3.689V94.96z M309.89,76.56
	h-3.6c-0.72,1.68-1.3,3.44-1.71,5.27h5.31V76.56z M309.89,101.09h-3.31c0.58,1.28,1.25,2.51,1.979,3.67
	c0.44,0.05,0.881,0.08,1.33,0.09V101.09z M309.89,71.94c-0.409,0.01-0.81,0.03-1.21,0.07c-0.739,1.18-1.42,2.41-2.01,3.69h3.22
	V71.94z M310.75,100.23h3.39c0.71-1.68,1.271-3.44,1.681-5.27h-5.07V100.23z M310.75,94.1H316c0.32-1.71,0.5-3.48,0.52-5.27h-5.77
	V94.1z M313.77,101.09h-3.02v3.76c0.34-0.01,0.68-0.03,1.01-0.06C312.5,103.62,313.18,102.38,313.77,101.09z M310.75,87.96h5.76
	c-0.029-1.8-0.22-3.56-0.56-5.27h-5.2V87.96z M310.75,76.56v5.27h5.02c-0.42-1.83-1-3.59-1.72-5.27H310.75z M310.75,75.7h2.92
	c-0.6-1.29-1.28-2.53-2.02-3.71c-0.301-0.02-0.601-0.04-0.9-0.05V75.7z M314.63,72.5c-0.67-0.18-1.35-0.31-2.04-0.41
	c0.74,1.15,1.41,2.36,1.99,3.61h3.8C317.25,74.37,315.98,73.28,314.63,72.5z M317.78,101.09h-3.07c-0.56,1.24-1.21,2.44-1.93,3.59
	c0.04-0.01,0.069-0.02,0.109-0.02C314.72,103.79,316.37,102.57,317.78,101.09z M314.97,76.56c0.721,1.69,1.29,3.45,1.71,5.27h5.16
	c-0.67-1.94-1.63-3.73-2.77-5.27H314.97z M321.65,94.96h-4.91c-0.4,1.82-0.95,3.58-1.65,5.27h3.46
	C319.85,98.68,320.9,96.9,321.65,94.96z M318.89,101.09c-0.939,1.06-2,2.02-3.149,2.85c1.859-0.65,3.569-1.62,5.06-2.85H318.89z
	 M322.11,82.69h-5.261c0.341,1.71,0.521,3.48,0.561,5.27h5.5C322.9,86.15,322.61,84.37,322.11,82.69z M322.9,88.83h-5.49
	c-0.01,1.8-0.18,3.56-0.5,5.27h5.04C322.51,92.42,322.84,90.65,322.9,88.83z M319.32,75.7h1.479c-1.14-0.94-2.41-1.73-3.78-2.34
	C317.85,74.07,318.62,74.86,319.32,75.7z M322.58,94.96c-0.71,1.92-1.72,3.69-2.97,5.27h2.149c1.54-1.49,2.79-3.28,3.66-5.27H322.58
	z M322.76,81.83h2.66c-0.87-1.99-2.12-3.78-3.66-5.27h-1.77C321.17,78.15,322.11,79.92,322.76,81.83z M323.8,88.83
	c-0.069,1.83-0.38,3.6-0.92,5.27h2.89c0.61-1.65,0.95-3.43,1-5.27H323.8z M323.04,82.69c0.479,1.68,0.75,3.45,0.76,5.27h2.97
	c-0.05-1.84-0.39-3.62-1-5.27H323.04z"/>
<text transform="matrix(1 0 0 1 302.7695 134.2002)"><tspan x="0" y="0" font-family="'Calibri'" font-size="9.775">w</tspan><tspan x="7.486" y="0" font-family="'Calibri'" font-size="9.775">w</tspan><tspan x="14.249" y="0" font-family="'Calibri'" font-size="9.775">w</tspan></text>
<text transform="matrix(1 0 0 1 324.25 134.2002)"><tspan x="0" y="0" font-family="'Calibri'" font-size="9.775">0</tspan><tspan x="5.268" y="0" font-family="'Calibri'" font-size="9.775"> </tspan></text>
<text transform="matrix(1 0 0 1 331.5996 134.2002)" font-family="'Calibri'" font-size="9.775">–</text>
<text transform="matrix(1 0 0 1 336.5996 134.2002)" font-family="'Calibri'" font-size="9.775"> </text>
<text transform="matrix(1 0 0 1 272.5195 146.23)"><tspan x="0" y="0" font-family="'Calibri'" font-size="9.775">h</tspan><tspan x="5.233" y="0" font-family="'Calibri'" font-size="9.775">tt</tspan><tspan x="11.902" y="0" font-family="'Calibri'" font-size="9.775">p</tspan></text>
<text transform="matrix(1 0 0 1 289.75 146.23)"><tspan x="0" y="0" font-family="'Calibri'" font-size="9.775">:</tspan><tspan x="3.007" y="0" font-family="'Calibri'" font-size="9.775">//</tspan></text>
<text transform="matrix(1 0 0 1 300.1797 146.23)"><tspan x="0" y="0" font-family="'Calibri'" font-size="9.775">b</tspan><tspan x="5.272" y="0" font-family="'Calibri'" font-size="9.775">s</tspan></text>
<text transform="matrix(1 0 0 1 309.3799 146.23)" font-family="'Calibri'" font-size="9.775">.</text>
<text transform="matrix(1 0 0 1 311.9004 146.23)"><tspan x="0" y="0" font-family="'Calibri'" font-size="9.775">w</tspan><tspan x="7.486" y="0" font-family="'Calibri'" font-size="9.775">i</tspan><tspan x="9.729" y="0" font-family="'Calibri'" font-size="9.775">k</tspan><tspan x="14.222" y="0" font-family="'Calibri'" font-size="9.775">i</tspan><tspan x="16.465" y="0" font-family="'Calibri'" font-size="9.775">p</tspan><tspan x="21.698" y="0" font-family="'Calibri'" font-size="9.775">e</tspan><tspan x="26.2" y="0" font-family="'Calibri'" font-size="9.775">d</tspan><tspan x="31.434" y="0" font-family="'Calibri'" font-size="9.775">ia</tspan></text>
<text transform="matrix(1 0 0 1 350.8301 146.23)" font-family="'Calibri'" font-size="9.775">.</text>
<text transform="matrix(1 0 0 1 353.3496 146.23)"><tspan x="0" y="0" font-family="'Calibri'" font-size="9.775">o</tspan><tspan x="5.233" y="0" font-family="'Calibri'" font-size="9.775">r</tspan><tspan x="8.974" y="0" font-family="'Calibri'" font-size="9.775">g</tspan></text>
<line fill="none" stroke="#000000" stroke-width="0.7508" stroke-linecap="round" stroke-linejoin="round" stroke-miterlimit="10" x1="310.16" y1="201.674" x2="331.17" y2="201.674"/>
<rect x="331.17" y="189.27" fill-rule="evenodd" clip-rule="evenodd" fill="#FFFFFF" width="13.778" height="21.583"/>
<rect x="331.17" y="189.27" fill="none" stroke="#000000" stroke-width="0.7508" stroke-linecap="round" stroke-linejoin="round" stroke-miterlimit="10" width="13.778" height="21.583"/>
<path fill-rule="evenodd" clip-rule="evenodd" d="M327.47,180.52c0-9.47-7.68-17.149-17.149-17.149
	c-9.471,0-17.15,7.68-17.15,17.149c0,9.48,7.68,17.16,17.15,17.16C319.79,197.68,327.47,190,327.47,180.52z"/>
<path fill="none" stroke="#000000" stroke-width="0.7508" stroke-linecap="round" stroke-linejoin="round" stroke-miterlimit="10" d="
	M327.47,180.52c0-9.47-7.68-17.149-17.149-17.149c-9.471,0-17.15,7.68-17.15,17.149c0,9.48,7.68,17.16,17.15,17.16
	C319.79,197.68,327.47,190,327.47,180.52z"/>
<path fill-rule="evenodd" clip-rule="evenodd" fill="#FFFFFF" d="M342.74,200.81c0-0.46-0.37-0.84-0.83-0.84s-0.83,0.38-0.83,0.84
	s0.37,0.829,0.83,0.829S342.74,201.27,342.74,200.81z M336.16,204.042h6.72v-0.54h-6.72V204.042z M336.16,205.679h6.72v-0.54h-6.72
	V205.679z M336.16,207.315h6.72v-0.54h-6.72V207.315z M296.72,180.09c0.021-1.83,0.29-3.6,0.771-5.27h-2.62
	c-0.61,1.649-0.96,3.42-1,5.27H296.72z M297.65,186.22c-0.54-1.67-0.86-3.43-0.92-5.27h-2.86c0.05,1.85,0.39,3.62,1,5.27H297.65z
	 M297.77,173.96c0.65-1.91,1.591-3.68,2.761-5.27h-1.65c-1.54,1.489-2.79,3.27-3.66,5.27H297.77z M297.94,187.08h-2.721
	c0.87,2,2.12,3.79,3.66,5.28h2.04C299.67,190.78,298.66,189,297.94,187.08z M297.61,180.09h5.319c0.04-1.8,0.221-3.56,0.561-5.27
	h-5.08C297.91,176.5,297.63,178.28,297.61,180.09z M303.43,186.22c-0.319-1.71-0.489-3.47-0.5-5.27h-5.31
	c0.07,1.819,0.399,3.6,0.95,5.27H303.43z M305.37,168.69h-3.91c-1.14,1.529-2.1,3.319-2.77,5.27h4.97
	C304.08,172.13,304.65,170.37,305.37,168.69z M305.25,192.36c-0.7-1.69-1.25-3.45-1.65-5.28h-4.72c0.75,1.939,1.8,3.729,3.09,5.28
	H305.25z M301.21,167.83c0.66-0.8,1.39-1.55,2.17-2.24c-1.28,0.601-2.47,1.351-3.54,2.24H301.21z M301.64,193.22h-1.8
	c1.43,1.181,3.07,2.13,4.851,2.78C303.57,195.18,302.55,194.25,301.64,193.22z M302.15,167.83h3.609c0.58-1.24,1.23-2.43,1.96-3.57
	c-0.649,0.11-1.29,0.25-1.92,0.431C304.49,165.46,303.25,166.53,302.15,167.83z M307.5,196.72c-0.69-1.12-1.32-2.29-1.87-3.5h-2.89
	C304.12,194.66,305.73,195.86,307.5,196.72z M309.89,180.95h-6.069c0.02,1.8,0.199,3.56,0.52,5.27h5.55V180.95z M309.89,174.82h-5.5
	c-0.34,1.71-0.529,3.47-0.56,5.27h6.06V174.82z M309.89,187.08h-5.37c0.41,1.83,0.971,3.6,1.681,5.28h3.689V187.08z M309.89,168.69
	h-3.6c-0.72,1.68-1.3,3.439-1.71,5.27h5.31V168.69z M309.89,193.22h-3.31c0.58,1.28,1.25,2.511,1.979,3.67
	c0.44,0.051,0.881,0.07,1.33,0.08V193.22z M309.89,164.07c-0.409,0.01-0.81,0.029-1.21,0.069c-0.739,1.17-1.42,2.4-2.01,3.69h3.22
	V164.07z M310.75,192.36h3.39c0.71-1.681,1.271-3.45,1.681-5.28h-5.07V192.36z M310.75,186.22H316c0.32-1.71,0.5-3.47,0.52-5.27
	h-5.77V186.22z M313.77,193.22h-3.02v3.75c0.34,0,0.68-0.02,1.01-0.05C312.5,195.75,313.18,194.51,313.77,193.22z M310.75,180.09
	h5.76c-0.029-1.8-0.22-3.56-0.56-5.27h-5.2V180.09z M310.75,168.69v5.27h5.02c-0.42-1.83-1-3.59-1.72-5.27H310.75z M310.75,167.83
	h2.92c-0.6-1.3-1.28-2.53-2.02-3.71c-0.301-0.03-0.601-0.04-0.9-0.05V167.83z M314.63,164.63c-0.67-0.18-1.35-0.32-2.04-0.41
	c0.74,1.15,1.41,2.351,1.99,3.61h3.8C317.25,166.5,315.98,165.4,314.63,164.63z M317.78,193.22h-3.07
	c-0.56,1.24-1.21,2.44-1.93,3.58c0.04,0,0.069-0.01,0.109-0.02C314.72,195.92,316.37,194.7,317.78,193.22z M314.97,168.69
	c0.721,1.68,1.29,3.439,1.71,5.27h5.16c-0.67-1.95-1.63-3.74-2.77-5.27H314.97z M321.65,187.08h-4.91c-0.4,1.83-0.95,3.59-1.65,5.28
	h3.46C319.85,190.81,320.9,189.02,321.65,187.08z M318.89,193.22c-0.939,1.061-2,2.011-3.149,2.851
	c1.859-0.65,3.569-1.62,5.06-2.851H318.89z M322.11,174.82h-5.261c0.341,1.71,0.521,3.47,0.561,5.27h5.5
	C322.9,178.28,322.61,176.5,322.11,174.82z M322.9,180.95h-5.49c-0.01,1.8-0.18,3.56-0.5,5.27h5.04
	C322.51,184.55,322.84,182.77,322.9,180.95z M319.32,167.83h1.479c-1.14-0.95-2.41-1.74-3.78-2.35
	C317.85,166.2,318.62,166.98,319.32,167.83z M322.58,187.08c-0.71,1.92-1.72,3.7-2.97,5.28h2.149c1.54-1.49,2.79-3.28,3.66-5.28
	H322.58z M322.76,173.96h2.66c-0.87-2-2.12-3.78-3.66-5.27h-1.77C321.17,170.28,322.11,172.05,322.76,173.96z M323.8,180.95
	c-0.069,1.84-0.38,3.6-0.92,5.27h2.89c0.61-1.649,0.95-3.42,1-5.27H323.8z M323.04,174.82c0.479,1.67,0.75,3.439,0.76,5.27h2.97
	c-0.05-1.85-0.39-3.62-1-5.27H323.04z"/>
<path fill="none" stroke="#000000" stroke-width="0.7508" stroke-linecap="round" stroke-linejoin="round" stroke-miterlimit="10" d="
	M342.74,200.81c0-0.46-0.37-0.84-0.83-0.84s-0.83,0.38-0.83,0.84s0.37,0.829,0.83,0.829S342.74,201.27,342.74,200.81z
	 M336.16,204.042h6.72v-0.54h-6.72V204.042z M336.16,205.679h6.72v-0.54h-6.72V205.679z M336.16,207.315h6.72v-0.54h-6.72V207.315z
	 M296.72,180.09c0.021-1.83,0.29-3.6,0.771-5.27h-2.62c-0.61,1.649-0.96,3.42-1,5.27H296.72z M297.65,186.22
	c-0.54-1.67-0.86-3.43-0.92-5.27h-2.86c0.05,1.85,0.39,3.62,1,5.27H297.65z M297.77,173.96c0.65-1.91,1.591-3.68,2.761-5.27h-1.65
	c-1.54,1.489-2.79,3.27-3.66,5.27H297.77z M297.94,187.08h-2.721c0.87,2,2.12,3.79,3.66,5.28h2.04
	C299.67,190.78,298.66,189,297.94,187.08z M297.61,180.09h5.319c0.04-1.8,0.221-3.56,0.561-5.27h-5.08
	C297.91,176.5,297.63,178.28,297.61,180.09z M303.43,186.22c-0.319-1.71-0.489-3.47-0.5-5.27h-5.31c0.07,1.819,0.399,3.6,0.95,5.27
	H303.43z M305.37,168.69h-3.91c-1.14,1.529-2.1,3.319-2.77,5.27h4.97C304.08,172.13,304.65,170.37,305.37,168.69z M305.25,192.36
	c-0.7-1.69-1.25-3.45-1.65-5.28h-4.72c0.75,1.939,1.8,3.729,3.09,5.28H305.25z M301.21,167.83c0.66-0.8,1.39-1.55,2.17-2.24
	c-1.28,0.601-2.47,1.351-3.54,2.24H301.21z M301.64,193.22h-1.8c1.43,1.181,3.07,2.13,4.851,2.78
	C303.57,195.18,302.55,194.25,301.64,193.22z M302.15,167.83h3.609c0.58-1.24,1.23-2.43,1.96-3.57c-0.649,0.11-1.29,0.25-1.92,0.431
	C304.49,165.46,303.25,166.53,302.15,167.83z M307.5,196.72c-0.69-1.12-1.32-2.29-1.87-3.5h-2.89
	C304.12,194.66,305.73,195.86,307.5,196.72z M309.89,180.95h-6.069c0.02,1.8,0.199,3.56,0.52,5.27h5.55V180.95z M309.89,174.82h-5.5
	c-0.34,1.71-0.529,3.47-0.56,5.27h6.06V174.82z M309.89,187.08h-5.37c0.41,1.83,0.971,3.6,1.681,5.28h3.689V187.08z M309.89,168.69
	h-3.6c-0.72,1.68-1.3,3.439-1.71,5.27h5.31V168.69z M309.89,193.22h-3.31c0.58,1.28,1.25,2.511,1.979,3.67
	c0.44,0.051,0.881,0.07,1.33,0.08V193.22z M309.89,164.07c-0.409,0.01-0.81,0.029-1.21,0.069c-0.739,1.17-1.42,2.4-2.01,3.69h3.22
	V164.07z M310.75,192.36h3.39c0.71-1.681,1.271-3.45,1.681-5.28h-5.07V192.36z M310.75,186.22H316c0.32-1.71,0.5-3.47,0.52-5.27
	h-5.77V186.22z M313.77,193.22h-3.02v3.75c0.34,0,0.68-0.02,1.01-0.05C312.5,195.75,313.18,194.51,313.77,193.22z M310.75,180.09
	h5.76c-0.029-1.8-0.22-3.56-0.56-5.27h-5.2V180.09z M310.75,168.69v5.27h5.02c-0.42-1.83-1-3.59-1.72-5.27H310.75z M310.75,167.83
	h2.92c-0.6-1.3-1.28-2.53-2.02-3.71c-0.301-0.03-0.601-0.04-0.9-0.05V167.83z M314.63,164.63c-0.67-0.18-1.35-0.32-2.04-0.41
	c0.74,1.15,1.41,2.351,1.99,3.61h3.8C317.25,166.5,315.98,165.4,314.63,164.63z M317.78,193.22h-3.07
	c-0.56,1.24-1.21,2.44-1.93,3.58c0.04,0,0.069-0.01,0.109-0.02C314.72,195.92,316.37,194.7,317.78,193.22z M314.97,168.69
	c0.721,1.68,1.29,3.439,1.71,5.27h5.16c-0.67-1.95-1.63-3.74-2.77-5.27H314.97z M321.65,187.08h-4.91c-0.4,1.83-0.95,3.59-1.65,5.28
	h3.46C319.85,190.81,320.9,189.02,321.65,187.08z M318.89,193.22c-0.939,1.061-2,2.011-3.149,2.851
	c1.859-0.65,3.569-1.62,5.06-2.851H318.89z M322.11,174.82h-5.261c0.341,1.71,0.521,3.47,0.561,5.27h5.5
	C322.9,178.28,322.61,176.5,322.11,174.82z M322.9,180.95h-5.49c-0.01,1.8-0.18,3.56-0.5,5.27h5.04
	C322.51,184.55,322.84,182.77,322.9,180.95z M319.32,167.83h1.479c-1.14-0.95-2.41-1.74-3.78-2.35
	C317.85,166.2,318.62,166.98,319.32,167.83z M322.58,187.08c-0.71,1.92-1.72,3.7-2.97,5.28h2.149c1.54-1.49,2.79-3.28,3.66-5.28
	H322.58z M322.76,173.96h2.66c-0.87-2-2.12-3.78-3.66-5.27h-1.77C321.17,170.28,322.11,172.05,322.76,173.96z M323.8,180.95
	c-0.069,1.84-0.38,3.6-0.92,5.27h2.89c0.61-1.649,0.95-3.42,1-5.27H323.8z M323.04,174.82c0.479,1.67,0.75,3.439,0.76,5.27h2.97
	c-0.05-1.85-0.39-3.62-1-5.27H323.04z"/>
<text transform="matrix(1 0 0 1 302.7695 226.5498)"><tspan x="0" y="0" font-family="'Calibri'" font-size="9.775">w</tspan><tspan x="7.486" y="0" font-family="'Calibri'" font-size="9.775">w</tspan><tspan x="14.249" y="0" font-family="'Calibri'" font-size="9.775">w</tspan></text>
<text transform="matrix(1 0 0 1 324.25 226.5498)"><tspan x="0" y="0" font-family="'Calibri'" font-size="9.775">1</tspan><tspan x="5.268" y="0" font-family="'Calibri'" font-size="9.775"> </tspan></text>
<text transform="matrix(1 0 0 1 331.5996 226.5498)" font-family="'Calibri'" font-size="9.775">–</text>
<text transform="matrix(1 0 0 1 336.5996 226.5498)" font-family="'Calibri'" font-size="9.775"> </text>
<text transform="matrix(1 0 0 1 271.8496 238.5996)"><tspan x="0" y="0" font-family="'Calibri'" font-size="9.775">h</tspan><tspan x="5.233" y="0" font-family="'Calibri'" font-size="9.775">tt</tspan><tspan x="11.902" y="0" font-family="'Calibri'" font-size="9.775">p</tspan></text>
<text transform="matrix(1 0 0 1 289.0801 238.5996)"><tspan x="0" y="0" font-family="'Calibri'" font-size="9.775">:</tspan><tspan x="3.007" y="0" font-family="'Calibri'" font-size="9.775">//</tspan></text>
<text transform="matrix(1 0 0 1 299.5 238.5996)"><tspan x="0" y="0" font-family="'Calibri'" font-size="9.775">b</tspan><tspan x="5.272" y="0" font-family="'Calibri'" font-size="9.775">n</tspan></text>
<text transform="matrix(1 0 0 1 310.0303 238.5996)" font-family="'Calibri'" font-size="9.775">.</text>
<text transform="matrix(1 0 0 1 312.5801 238.5996)"><tspan x="0" y="0" font-family="'Calibri'" font-size="9.775">w</tspan><tspan x="7.486" y="0" font-family="'Calibri'" font-size="9.775">i</tspan><tspan x="9.729" y="0" font-family="'Calibri'" font-size="9.775">k</tspan><tspan x="14.222" y="0" font-family="'Calibri'" font-size="9.775">i</tspan><tspan x="16.465" y="0" font-family="'Calibri'" font-size="9.775">p</tspan><tspan x="21.698" y="0" font-family="'Calibri'" font-size="9.775">e</tspan><tspan x="26.2" y="0" font-family="'Calibri'" font-size="9.775">d</tspan><tspan x="31.434" y="0" font-family="'Calibri'" font-size="9.775">ia</tspan></text>
<text transform="matrix(1 0 0 1 351.5 238.5996)" font-family="'Calibri'" font-size="9.775">.</text>
<text transform="matrix(1 0 0 1 354.0303 238.5996)"><tspan x="0" y="0" font-family="'Calibri'" font-size="9.775">o</tspan><tspan x="5.233" y="0" font-family="'Calibri'" font-size="9.775">r</tspan><tspan x="8.974" y="0" font-family="'Calibri'" font-size="9.775">g</tspan></text>
<polygon fill-rule="evenodd" clip-rule="evenodd" fill="#FFFFFF" points="210.81,215.414 179.84,215.414 169.38,234.682 
	169.38,263.687 221.17,263.687 221.17,234.682 "/>
<path fill="none" stroke="#000000" stroke-width="0.7508" stroke-linecap="round" stroke-linejoin="round" stroke-miterlimit="10" d="
	M210.81,215.414h-30.97l-10.46,19.268v29.005h51.79v-29.005L210.81,215.414z M169.38,234.682h51.79"/>
<text transform="matrix(1 0 0 1 178.6299 277.7754)"><tspan x="0" y="0" font-family="'Calibri'" font-size="9.775">w</tspan><tspan x="7.516" y="0" font-family="'Calibri'" font-size="9.775">o</tspan><tspan x="12.778" y="0" font-family="'Calibri'" font-size="9.775">r</tspan><tspan x="15.785" y="0" font-family="'Calibri'" font-size="9.775">k</tspan><tspan x="20.297" y="0" font-family="'Calibri'" font-size="9.775">e</tspan><tspan x="25.562" y="0" font-family="'Calibri'" font-size="9.775">r</tspan></text>
<text transform="matrix(1 0 0 1 207.5996 277.7754)" font-family="'Calibri'" font-size="9.775">3</text>
<polygon fill-rule="evenodd" clip-rule="evenodd" fill="#FFFFFF" points="210.81,149.74 179.84,149.74 169.38,169.01 169.38,198.02 
	221.17,198.02 221.17,169.01 "/>
<path fill="none" stroke="#000000" stroke-width="0.7508" stroke-linecap="round" stroke-linejoin="round" stroke-miterlimit="10" d="
	M210.81,149.74h-30.97l-10.46,19.27v29.01h51.79v-29.01L210.81,149.74z M169.38,169.01h51.79"/>
<text transform="matrix(1 0 0 1 178.6299 211.9502)"><tspan x="0" y="0" font-family="'Calibri'" font-size="9.775">w</tspan><tspan x="7.516" y="0" font-family="'Calibri'" font-size="9.775">o</tspan><tspan x="12.778" y="0" font-family="'Calibri'" font-size="9.775">r</tspan><tspan x="15.785" y="0" font-family="'Calibri'" font-size="9.775">k</tspan><tspan x="20.297" y="0" font-family="'Calibri'" font-size="9.775">e</tspan><tspan x="25.562" y="0" font-family="'Calibri'" font-size="9.775">r</tspan></text>
<text transform="matrix(1 0 0 1 207.5996 211.9502)" font-family="'Calibri'" font-size="9.775">2</text>
<polygon fill-rule="evenodd" clip-rule="evenodd" fill="#FFFFFF" points="210.81,84.08 179.84,84.08 169.38,103.34 169.38,132.35 
	221.17,132.35 221.17,103.34 "/>
<path fill="none" stroke="#000000" stroke-width="0.7508" stroke-linecap="round" stroke-linejoin="round" stroke-miterlimit="10" d="
	M210.81,84.08h-30.97l-10.46,19.26v29.01h51.79v-29.01L210.81,84.08z M169.38,103.34h51.79"/>
<text transform="matrix(1 0 0 1 178.6299 146.1201)"><tspan x="0" y="0" font-family="'Calibri'" font-size="9.775">w</tspan><tspan x="7.516" y="0" font-family="'Calibri'" font-size="9.775">o</tspan><tspan x="12.778" y="0" font-family="'Calibri'" font-size="9.775">r</tspan><tspan x="15.785" y="0" font-family="'Calibri'" font-size="9.775">k</tspan><tspan x="20.297" y="0" font-family="'Calibri'" font-size="9.775">e</tspan><tspan x="25.562" y="0" font-family="'Calibri'" font-size="9.775">r</tspan></text>
<text transform="matrix(1 0 0 1 207.5996 146.1201)" font-family="'Calibri'" font-size="9.775">1</text>
<polygon fill-rule="evenodd" clip-rule="evenodd" fill="#FFFFFF" points="210.81,18.41 179.84,18.41 169.38,37.68 169.38,66.68 
	221.17,66.68 221.17,37.68 "/>
<path fill="none" stroke="#000000" stroke-width="0.7508" stroke-linecap="round" stroke-linejoin="round" stroke-miterlimit="10" d="
	M210.81,18.41h-30.97l-10.46,19.27v29h51.79v-29L210.81,18.41z M169.38,37.68h51.79"/>
<text transform="matrix(1 0 0 1 178.6299 80.27)"><tspan x="0" y="0" font-family="'Calibri'" font-size="9.775">w</tspan><tspan x="7.516" y="0" font-family="'Calibri'" font-size="9.775">o</tspan><tspan x="12.778" y="0" font-family="'Calibri'" font-size="9.775">r</tspan><tspan x="15.785" y="0" font-family="'Calibri'" font-size="9.775">k</tspan><tspan x="20.297" y="0" font-family="'Calibri'" font-size="9.775">e</tspan><tspan x="25.562" y="0" font-family="'Calibri'" font-size="9.775">r</tspan></text>
<text transform="matrix(1 0 0 1 207.5996 80.27)" font-family="'Calibri'" font-size="9.775">0</text>
</svg>
