<?xml version="1.0" encoding="UTF-8" standalone="no"?>
<!DOCTYPE svg PUBLIC "-//W3C//DTD SVG 1.1//EN" "http://www.w3.org/Graphics/SVG/1.1/DTD/svg11.dtd">
<!-- Generated by Microsoft Visio, SVG Export system_overview.svg Page-1 -->
<svg xmlns="http://www.w3.org/2000/svg" xmlns:xlink="http://www.w3.org/1999/xlink" xmlns:ev="http://www.w3.org/2001/xml-events"
		xmlns:v="http://schemas.microsoft.com/visio/2003/SVGExtensions/" width="6.49606in" height="5.21654in"
		viewBox="0 0 467.717 375.591" xml:space="preserve" color-interpolation-filters="sRGB" class="st17">
	<v:documentProperties v:langID="1033" v:metric="true" v:viewMarkup="false">
		<v:userDefs>
			<v:ud v:nameU="msvSubprocessMaster" v:prompt="" v:val="VT4(Rectangle)"/>
			<v:ud v:nameU="msvNoAutoConnect" v:val="VT0(1):26"/>
		</v:userDefs>
	</v:documentProperties>

	<style type="text/css">
	<![CDATA[
		.st1 {fill:#ffffff;fill-opacity:0.5;stroke:#000000;stroke-dasharray:1.68,1.2;stroke-linecap:round;stroke-linejoin:round;stroke-width:0.24}
		.st2 {fill:none;stroke:none;stroke-linecap:round;stroke-linejoin:round;stroke-width:0.75}
		.st3 {fill:#000000;font-family:Calibri;font-size:1.00001em}
		.st4 {fill:#000000;font-family:Calibri;font-size:0.916672em}
		.st5 {fill:#ffffff;stroke:#000000;stroke-linecap:round;stroke-linejoin:round;stroke-width:0.75}
		.st6 {fill:#000000;font-family:Calibri;font-size:0.833336em}
		.st7 {marker-end:url(#mrkr1-40);stroke:#000000;stroke-linecap:round;stroke-linejoin:round;stroke-width:0.75}
		.st8 {fill:#000000;fill-opacity:1;stroke:#000000;stroke-opacity:1;stroke-width:0.22935779816514}
		.st9 {fill:#ffffff;stroke:none;stroke-linecap:butt;stroke-width:7.2}
		.st10 {fill:#000000;font-family:Calibri;font-size:0.666664em;font-weight:bold}
		.st11 {fill:#000000;font-family:Calibri;font-size:0.666664em}
		.st12 {marker-start:url(#mrkr1-73);stroke:#000000;stroke-linecap:round;stroke-linejoin:round;stroke-width:0.75}
		.st13 {fill:none;stroke:#000000;stroke-linecap:round;stroke-linejoin:round;stroke-width:0.75}
		.st14 {fill:none;stroke:#000000;stroke-linecap:round;stroke-linejoin:round;stroke-opacity:0.71;stroke-width:0.75}
		.st15 {fill:#ffffff}
		.st16 {stroke:#000000;stroke-linecap:round;stroke-linejoin:round;stroke-width:0.75}
		.st17 {fill:none;fill-rule:evenodd;font-size:12px;overflow:visible;stroke-linecap:square;stroke-miterlimit:3}
	]]>
	</style>

	<defs id="Markers">
		<g id="lend1">
			<path d="M 1 -1 L 0 0 L 1 1 " style="stroke-linecap:round;stroke-linejoin:round;fill:none"/>
		</g>
		<marker id="mrkr1-40" class="st8" v:arrowType="1" v:arrowSize="2" orient="auto" markerUnits="strokeWidth"
				overflow="visible">
			<use xlink:href="#lend1" transform="scale(-4.36,-4.36) "/>
		</marker>
		<marker id="mrkr1-73" class="st8" v:arrowType="1" v:arrowSize="2" orient="auto" markerUnits="strokeWidth"
				overflow="visible">
			<use xlink:href="#lend1" transform="scale(4.36) "/>
		</marker>
	</defs>
	<g v:mID="0" v:index="1" v:groupContext="foregroundPage">
		<title>Page-1</title>
		<v:pageProperties v:drawingScale="0.0393701" v:pageScale="0.0393701" v:drawingUnits="24" v:shadowOffsetX="8.50394"
				v:shadowOffsetY="-8.50394"/>
		<v:layer v:name="Flowchart" v:index="0"/>
		<v:layer v:name="Connector" v:index="1"/>
		<g id="shape210-1" v:mID="210" v:groupContext="shape" transform="translate(28.3465,-25.0866)">
			<title>Rectangle.210</title>
			<v:userDefs>
				<v:ud v:nameU="visVersion" v:val="VT0(15):26"/>
			</v:userDefs>
			<path d="M0 375.59 L49.61 375.59 L49.61 110.13 L0 110.13 L0 375.59 Z" class="st1"/>
		</g>
		<g id="shape208-3" v:mID="208" v:groupContext="shape" transform="translate(81.3543,-291.442)">
			<title>Rectangle</title>
			<v:userDefs>
				<v:ud v:nameU="visVersion" v:val="VT0(15):26"/>
			</v:userDefs>
			<path d="M0 375.59 L294.24 375.59 L294.24 319.79 L0 319.79 L0 375.59 Z" class="st1"/>
		</g>
		<g id="shape211-5" v:mID="211" v:groupContext="shape" transform="translate(28.3465,-127.559)">
			<title>Sheet.211</title>
			<desc>Stores (Riak, Cassandra)</desc>
			<v:textBlock v:margins="rect(4,4,4,4)" v:tabSpace="42.5197" v:verticalAlign="2" v:verticalText="true"/>
			<v:textRect cx="15.4452" cy="294.094" width="30.9" height="162.992"/>
			<rect x="0" y="212.598" width="30.8904" height="162.992" class="st2"/>
			<text x="11.2" y="216.6" writing-mode="tb-rl" class="st3" v:langID="1033"><v:paragraph/><v:tabList/>Stores (Riak, Cassandra)</text>		</g>
		<g id="shape209-8" v:mID="209" v:groupContext="shape" transform="translate(81.3543,-333.536)">
			<title>Sheet.209</title>
			<desc>Queues (Redis)</desc>
			<v:textBlock v:margins="rect(4,4,4,4)" v:tabSpace="42.5197" v:verticalAlign="0"/>
			<v:textRect cx="135.08" cy="368.736" width="270.16" height="13.7084"/>
			<rect x="0" y="361.882" width="270.16" height="13.7084" class="st2"/>
			<text x="4" y="375.78" class="st4" v:langID="1033"><v:paragraph/><v:tabList/>Queues (Redis)</text>		</g>
		<g id="group106-11" transform="translate(283.892,-24.8938)" v:mID="106" v:groupContext="group">
			<v:custProps>
				<v:cp v:nameU="ShapeClass" v:lbl="ShapeClass" v:prompt="" v:type="0" v:format="" v:sortKey="" v:invis="true"
						v:ask="false" v:langID="1033" v:cal="0" v:val="VT4(Location)"/>
				<v:cp v:nameU="ShapeType" v:lbl="ShapeType" v:prompt="" v:type="0" v:format="" v:sortKey="" v:invis="true"
						v:ask="false" v:langID="1033" v:cal="0" v:val="VT4(Cloud)"/>
			</v:custProps>
			<v:userDefs>
				<v:ud v:nameU="visVersion" v:prompt="" v:val="VT0(15):26"/>
				<v:ud v:nameU="ShapeClass" v:prompt="" v:val="VT0(5):26"/>
				<v:ud v:nameU="SolSH" v:prompt="" v:val="VT15({BF0433D9-CD73-4EB5-8390-8653BE590246}):41"/>
				<v:ud v:nameU="visLegendShape" v:prompt="" v:val="VT0(2):26"/>
				<v:ud v:nameU="visIsConnected" v:prompt="" v:val="VT0(0):26"/>
			</v:userDefs>
			<title>Cloud</title>
			<g id="shape107-12" v:mID="107" v:groupContext="shape" transform="translate(0,-32.157)">
				<title>Sheet.107</title>
				<path d="M130.05 312.72 C129.24 305.59 122.76 300.03 114.81 300.03 C112.54 300.03 110.42 300.5 108.49 301.3 C104.74
							 294.3 97 289.17 82.46 289.59 C63.58 290.13 41.21 298.63 36.72 313.71 C31.33 314.74 27.87 317.65 25.8
							 321.54 C24.96 321.46 24.11 321.41 23.24 321.41 C10.8 321.41 1.25 330.48 0.71 341.65 C0 356.11 10.8 361.91
							 23.24 361.91 C25.02 361.91 26.74 361.7 28.4 361.35 C30.98 363.04 34.35 364.07 38.04 364.07 C41.46 364.07
							 44.6 363.19 47.1 361.71 C51.88 369.86 61.73 375.59 73.08 374.92 C85.02 374.23 92.19 371.68 96.42 367.75
							 C96.68 367.72 96.93 367.72 97.2 367.69 C110.56 365.98 116.43 362.52 118.32 356.82 C118.67 356.83 119.03
							 356.84 119.38 356.84 C136.7 356.84 150.73 351.78 150.73 334.06 C150.73 324.22 142.08 315.9 130.05 312.72
							 Z" class="st5"/>
			</g>
		</g>
		<g id="group232-14" transform="translate(179.01,-169.429)" v:mID="232" v:groupContext="group">
			<title>Sheet.232</title>
			<g id="shape225-15" v:mID="225" v:groupContext="shape">
				<title>Rectangle.225</title>
				<v:userDefs>
					<v:ud v:nameU="visVersion" v:val="VT0(15):26"/>
				</v:userDefs>
				<rect x="0" y="290.551" width="110.551" height="85.0394" class="st5"/>
			</g>
			<g id="shape228-17" v:mID="228" v:groupContext="shape" transform="translate(55.1562,-46.6225)">
				<title>Sheet.228</title>
				<desc>Worker n</desc>
				<v:textBlock v:margins="rect(4,4,4,4)" v:tabSpace="42.5197" v:verticalAlign="0"/>
				<v:textRect cx="28.9134" cy="354.331" width="57.83" height="42.5197"/>
				<rect x="0" y="333.071" width="57.8268" height="42.5197" class="st2"/>
				<text x="15.65" y="346.07" class="st6" v:langID="1033"><v:paragraph v:horizAlign="2"/><v:tabList/>Worker n</text>			</g>
		</g>
		<g id="group233-20" transform="translate(163.42,-155.255)" v:mID="233" v:groupContext="group">
			<title>Sheet.233</title>
			<g id="shape224-21" v:mID="224" v:groupContext="shape">
				<title>Rectangle.224</title>
				<v:userDefs>
					<v:ud v:nameU="visVersion" v:val="VT0(15):26"/>
				</v:userDefs>
				<rect x="0" y="290.551" width="110.551" height="85.0394" class="st5"/>
			</g>
			<g id="shape227-23" v:mID="227" v:groupContext="shape" transform="translate(55.1339,-46.6225)">
				<title>Sheet.227</title>
				<desc>...</desc>
				<v:textBlock v:margins="rect(4,4,4,4)" v:tabSpace="42.5197" v:verticalAlign="0"/>
				<v:textRect cx="28.9134" cy="354.331" width="57.83" height="42.5197"/>
				<rect x="0" y="333.071" width="57.8268" height="42.5197" class="st2"/>
				<text x="46.25" y="346.07" class="st6" v:langID="1033"><v:paragraph v:horizAlign="2"/><v:tabList/>...</text>			</g>
		</g>
		<g id="shape221-26" v:mID="221" v:groupContext="shape" transform="translate(149.247,-141.082)">
			<title>Rectangle.221</title>
			<v:userDefs>
				<v:ud v:nameU="visVersion" v:val="VT0(15):26"/>
			</v:userDefs>
			<rect x="0" y="290.551" width="110.551" height="85.0394" class="st5"/>
		</g>
		<g id="shape105-28" v:mID="105" v:groupContext="shape" transform="translate(97.7953,-18)">
			<title>Sheet.105</title>
			<desc>n: Total number of URL-Blocks.</desc>
			<v:textBlock v:margins="rect(4,4,4,4)" v:tabSpace="42.5197" v:verticalAlign="0"/>
			<v:textRect cx="85.748" cy="354.331" width="171.5" height="42.5197"/>
			<rect x="0" y="333.071" width="171.496" height="42.5197" class="st2"/>
			<text x="4" y="346.97" class="st4" v:langID="1033"><v:paragraph/><v:tabList/>n: Total number of URL-Blocks.</text>		</g>
		<g id="group109-31" transform="translate(304.905,-83.449)" v:mID="109" v:groupContext="group">
			<title>Sheet.109</title>
			<g id="shape108-32" v:mID="108" v:groupContext="shape">
				<title>Sheet.108</title>
				<desc>WWW (Pages)</desc>
				<v:textBlock v:margins="rect(4,4,4,4)" v:tabSpace="42.5197"/>
				<v:textRect cx="54.3527" cy="358.78" width="108.71" height="33.6202"/>
				<rect x="0" y="341.97" width="108.705" height="33.6202" class="st2"/>
				<text x="22.14" y="362.08" class="st4" v:langID="1033"><v:paragraph v:horizAlign="1"/><v:tabList/>WWW (Pages)</text>			</g>
		</g>
		<g id="shape122-35" v:mID="122" v:groupContext="shape" v:layerMember="1" transform="translate(122.887,-298.504)">
			<title>Dynamic connector</title>
			<desc>1</desc>
			<v:textBlock v:margins="rect(4,4,4,4)" v:tabSpace="42.5197"/>
			<v:textRect cx="0.569416" cy="436.399" width="40" height="17.6036"/>
			<path d="M0.57 375.59 L0.57 484.17 L13.6 484.17" class="st7"/>
			<rect v:rectContext="textBkgnd" x="-1.45805" y="431.599" width="4.05478" height="9.59985" class="st9"/>
			<text x="-1.46" y="438.8" class="st10" v:langID="1033"><v:paragraph v:horizAlign="1"/><v:tabList/>1</text>		</g>
		<g id="shape72-43" v:mID="72" v:groupContext="shape" transform="translate(136.491,-129.035)">
			<title>Rectangle.72</title>
			<v:userDefs>
				<v:ud v:nameU="visVersion" v:val="VT0(15):26"/>
			</v:userDefs>
			<rect x="0" y="292.677" width="110.551" height="82.9134" class="st5"/>
		</g>
		<g id="shape114-45" v:mID="114" v:groupContext="shape" v:layerMember="1" transform="translate(287.34,-100.259)">
			<title>Dynamic connector.114</title>
			<desc>3</desc>
			<v:textBlock v:margins="rect(4,4,4,4)" v:tabSpace="42.5197"/>
			<v:textRect cx="-77.8725" cy="375.591" width="40" height="17.6036"/>
			<path d="M0 375.59 L-95.57 375.59 L-95.57 315.42" class="st7"/>
			<rect v:rectContext="textBkgnd" x="-79.9" y="370.791" width="4.05478" height="9.59985" class="st9"/>
			<text x="-79.9" y="377.99" class="st10" v:langID="1033"><v:paragraph v:horizAlign="1"/><v:tabList/>3</text>		</g>
		<g id="shape226-52" v:mID="226" v:groupContext="shape" transform="translate(203.687,-186.959)">
			<title>Sheet.226</title>
			<desc>Worker 2</desc>
			<v:textBlock v:margins="rect(4,4,4,4)" v:tabSpace="42.5197" v:verticalAlign="0"/>
			<v:textRect cx="28.9134" cy="354.331" width="57.83" height="42.5197"/>
			<rect x="0" y="333.071" width="57.8268" height="42.5197" class="st2"/>
			<text x="15.83" y="346.07" class="st6" v:langID="1033"><v:paragraph v:horizAlign="2"/><v:tabList/>Worker 2</text>		</g>
		<g id="shape261-55" v:mID="261" v:groupContext="shape" v:layerMember="1" transform="translate(247.042,-174.035)">
			<title>Dynamic connector.261</title>
			<desc>2</desc>
			<v:textBlock v:margins="rect(4,4,4,4)" v:tabSpace="42.5197"/>
			<v:textRect cx="71.8781" cy="375.591" width="40" height="17.6036"/>
			<path d="M0 375.59 L112.22 375.59 L112.22 407.13" class="st7"/>
			<rect v:rectContext="textBkgnd" x="69.8506" y="370.791" width="4.05478" height="9.59985" class="st9"/>
			<text x="69.85" y="377.99" class="st10" v:langID="1033"><v:paragraph v:horizAlign="1"/><v:tabList/>2</text>		</g>
		<g id="shape229-62" v:mID="229" v:groupContext="shape" transform="translate(191.572,-173.211)">
			<title>Sheet.229</title>
			<desc>Worker 1</desc>
			<v:textBlock v:margins="rect(4,4,4,4)" v:tabSpace="42.5197" v:verticalAlign="0"/>
			<v:textRect cx="28.9134" cy="354.331" width="57.83" height="42.5197"/>
			<rect x="0" y="333.071" width="57.8268" height="42.5197" class="st2"/>
			<text x="15.83" y="346.07" class="st6" v:langID="1033"><v:paragraph v:horizAlign="2"/><v:tabList/>Worker 1</text>		</g>
		<g id="shape204-65" v:mID="204" v:groupContext="shape" transform="translate(205.606,-167.244)">
			<title>Sheet.204</title>
			<desc>Mapper</desc>
			<v:textBlock v:margins="rect(4,4,4,4)" v:tabSpace="42.5197" v:verticalAlign="0"/>
			<v:textRect cx="23.3386" cy="369.921" width="46.68" height="11.3386"/>
			<rect x="0" y="364.252" width="46.6772" height="11.3386" class="st2"/>
			<text x="4" y="375.45" class="st11" v:langID="1033"><v:paragraph/><v:tabList/>Mapper</text>		</g>
		<g id="shape270-68" v:mID="270" v:groupContext="shape" v:layerMember="1" transform="translate(70.7066,-177.578)">
			<title>Dynamic connector.270</title>
			<path d="M0 382.68 L121.06 382.68" class="st12"/>
		</g>
		<g id="shape272-74" v:mID="272" v:groupContext="shape" v:layerMember="1" transform="translate(198.853,-170.492)">
			<title>Dynamic connector.272</title>
			<path d="M-7.09 375.59 L-7.09 247.58" class="st7"/>
		</g>
		<g id="shape273-79" v:mID="273" v:groupContext="shape" v:layerMember="1" transform="translate(191.766,-170.492)">
			<title>Dynamic connector.273</title>
			<path d="M0 375.59 L0 265.45 L-65.95 265.45 A2.3622 2.3622 -180 0 0 -70.67 265.45 L-87.52 265.45 L-87.52 247.58"
					class="st7"/>
		</g>
		<g id="shape274-84" v:mID="274" v:groupContext="shape" v:layerMember="1" transform="translate(191.766,-170.492)">
			<title>Dynamic connector.274</title>
			<path d="M0 375.59 L0 265.65 L52.01 265.65 L52.01 247.58" class="st7"/>
		</g>
		<g id="shape276-89" v:mID="276" v:groupContext="shape" v:layerMember="1" transform="translate(308.976,-298.504)">
			<title>Dynamic connector.276</title>
			<desc>4</desc>
			<v:textBlock v:margins="rect(4,4,4,4)" v:tabSpace="42.5197"/>
			<v:textRect cx="-104.737" cy="393.465" width="40" height="17.6036"/>
			<path d="M0 375.59 L0 393.46 L-117.21 393.46 L-117.21 503.6" class="st12"/>
			<rect v:rectContext="textBkgnd" x="-106.765" y="388.665" width="4.05478" height="9.59985" class="st9"/>
			<text x="-106.76" y="395.86" class="st11" v:langID="1033"><v:paragraph v:horizAlign="1"/><v:tabList/>4</text>		</g>
		<g id="group240-96" transform="translate(426.614,92.126) rotate(90)" v:mID="240" v:groupContext="group">
			<title>Sheet.240</title>
			<g id="shape241-97" v:mID="241" v:groupContext="shape" transform="translate(-2.79776E-014,-0.194778)">
				<title>Sheet.241</title>
				<desc>URL-Block 1</desc>
				<v:textBlock v:margins="rect(4,4,4,4)" v:tabSpace="42.5197"/>
				<v:textRect cx="31.1811" cy="365.846" width="62.37" height="19.4882"/>
				<rect x="0" y="356.102" width="62.3622" height="19.4882" class="st13"/>
				<text x="7.07" y="368.85" class="st6" v:langID="1033"><v:paragraph v:horizAlign="1"/><v:tabList/>URL-Block 1</text>			</g>
			<g id="shape242-100" v:mID="242" v:groupContext="shape" transform="translate(62.3622,-0.194778)">
				<title>Sheet.242</title>
				<desc>URL-Block 2</desc>
				<v:textBlock v:margins="rect(4,4,4,4)" v:tabSpace="42.5197"/>
				<v:textRect cx="32.5984" cy="365.846" width="65.2" height="19.4882"/>
				<rect x="0" y="356.102" width="65.1969" height="19.4882" class="st14"/>
				<text x="8.49" y="368.85" class="st6" v:langID="1033"><v:paragraph v:horizAlign="1"/><v:tabList/>URL-Block 2</text>			</g>
			<g id="shape243-103" v:mID="243" v:groupContext="shape" transform="translate(127.559,-0.194778)">
				<title>Sheet.243</title>
				<desc>...</desc>
				<v:textBlock v:margins="rect(4,4,4,4)" v:tabSpace="42.5197"/>
				<v:textRect cx="31.1811" cy="365.846" width="62.37" height="19.4882"/>
				<rect x="0" y="356.102" width="62.3622" height="19.4882" class="st13"/>
				<text x="27.39" y="368.85" class="st6" v:langID="1033"><v:paragraph v:horizAlign="1"/><v:tabList/>...</text>			</g>
			<g id="shape244-106" v:mID="244" v:groupContext="shape" transform="translate(189.958,-5.68434E-014)">
				<title>Sheet.244</title>
				<desc>URL-Block n</desc>
				<v:textBlock v:margins="rect(4,4,4,4)" v:tabSpace="42.5197"/>
				<v:textRect cx="31.1811" cy="365.669" width="62.37" height="19.8425"/>
				<rect x="0" y="355.748" width="62.3622" height="19.8425" class="st13"/>
				<text x="6.98" y="368.67" class="st6" v:langID="1033"><v:paragraph v:horizAlign="1"/><v:tabList/>URL-Block n</text>			</g>
		</g>
		<g id="group277-109" transform="translate(85.0394,-298.504)" v:mID="277" v:groupContext="group">
			<title>Sheet.277</title>
			<g id="shape89-110" v:mID="89" v:groupContext="shape" transform="translate(127.559,-5.68434E-014)">
				<title>Sheet.89</title>
				<desc>...</desc>
				<v:textBlock v:margins="rect(4,4,4,4)" v:tabSpace="42.5197"/>
				<v:textRect cx="31.1811" cy="365.846" width="62.37" height="19.4882"/>
				<rect x="0" y="356.102" width="62.3622" height="19.4882" class="st13"/>
				<text x="27.39" y="368.85" class="st6" v:langID="1033"><v:paragraph v:horizAlign="1"/><v:tabList/>...</text>			</g>
			<g id="shape92-113" v:mID="92" v:groupContext="shape" transform="translate(189.958,-5.68434E-014)">
				<title>Sheet.92</title>
				<desc>URL-Block n</desc>
				<v:textBlock v:margins="rect(4,4,4,4)" v:tabSpace="42.5197"/>
				<v:textRect cx="31.1811" cy="365.944" width="62.37" height="19.2934"/>
				<rect x="0" y="356.297" width="62.3622" height="19.2934" class="st13"/>
				<text x="6.98" y="368.94" class="st6" v:langID="1033"><v:paragraph v:horizAlign="1"/><v:tabList/>URL-Block n</text>			</g>
			<g id="shape87-116" v:mID="87" v:groupContext="shape">
				<title>Sheet.87</title>
				<desc>URL-Block 1</desc>
				<v:textBlock v:margins="rect(4,4,4,4)" v:tabSpace="42.5197"/>
				<v:textRect cx="31.1811" cy="365.846" width="62.37" height="19.4882"/>
				<rect x="0" y="356.102" width="62.3622" height="19.4882" class="st13"/>
				<text x="7.07" y="368.85" class="st6" v:langID="1033"><v:paragraph v:horizAlign="1"/><v:tabList/>URL-Block 1</text>			</g>
			<g id="shape88-119" v:mID="88" v:groupContext="shape" transform="translate(62.3622,-5.68434E-014)">
				<title>Sheet.88</title>
				<desc>URL-Block 2</desc>
				<v:textBlock v:margins="rect(4,4,4,4)" v:tabSpace="42.5197"/>
				<v:textRect cx="32.5984" cy="365.846" width="65.2" height="19.4882"/>
				<rect x="0" y="356.102" width="65.1969" height="19.4882" class="st14"/>
				<text x="8.49" y="368.85" class="st6" v:langID="1033"><v:paragraph v:horizAlign="1"/><v:tabList/>URL-Block 2</text>			</g>
		</g>
		<g id="shape278-122" v:mID="278" v:groupContext="shape" v:layerMember="1" transform="translate(191.766,-170.492)">
			<title>Dynamic connector.278</title>
			<path d="M0 375.59 L-92.55 375.59 L-92.55 293.8 L-121.06 293.8" class="st7"/>
		</g>
		<g id="shape279-127" v:mID="279" v:groupContext="shape" v:layerMember="1" transform="translate(191.766,-170.492)">
			<title>Dynamic connector.279</title>
			<path d="M0 375.59 L-92.55 375.59 L-92.55 434.79 L-121.06 434.79" class="st7"/>
		</g>
		<g id="shape280-132" v:mID="280" v:groupContext="shape" v:layerMember="1" transform="translate(191.766,-170.492)">
			<title>Dynamic connector.280</title>
			<desc>4</desc>
			<v:textBlock v:margins="rect(4,4,4,4)" v:tabSpace="42.5197"/>
			<v:textRect cx="-92.5537" cy="397.57" width="40" height="17.6036"/>
			<path d="M0 375.59 L-92.55 375.59 L-92.55 483.76 L-120.9 483.76" class="st7"/>
			<rect v:rectContext="textBkgnd" x="-94.5811" y="392.77" width="4.05478" height="9.59985" class="st9"/>
			<text x="-94.58" y="399.97" class="st11" v:langID="1033"><v:paragraph v:horizAlign="1"/><v:tabList/>4</text>		</g>
		<g id="group68-139" transform="translate(179.132,-157.857)" v:mID="68" v:groupContext="group">
			<v:custProps>
				<v:cp v:nameU="AssetNumber" v:lbl="Asset Number" v:prompt="" v:type="0" v:format="" v:sortKey="Asset"
						v:invis="false" v:ask="false" v:langID="1033" v:cal="0"/>
				<v:cp v:nameU="SerialNumber" v:lbl="Serial Number" v:prompt="" v:type="0" v:format="" v:sortKey="Asset"
						v:invis="false" v:ask="false" v:langID="1033" v:cal="0"/>
				<v:cp v:nameU="Location" v:lbl="Location" v:prompt="" v:type="0" v:format="" v:sortKey="Asset" v:invis="false"
						v:ask="false" v:langID="1033" v:cal="0"/>
				<v:cp v:nameU="Building" v:lbl="Building" v:prompt="" v:type="0" v:format="" v:sortKey="Asset" v:invis="false"
						v:ask="false" v:langID="1033" v:cal="0"/>
				<v:cp v:nameU="Room" v:lbl="Room" v:prompt="" v:type="0" v:format="" v:sortKey="Asset" v:invis="false"
						v:ask="false" v:langID="1033" v:cal="0"/>
				<v:cp v:nameU="Manufacturer" v:lbl="Manufacturer" v:prompt="" v:type="0" v:format="" v:sortKey="Equipment"
						v:invis="false" v:ask="false" v:langID="1033" v:cal="0"/>
				<v:cp v:nameU="ProductNumber" v:lbl="Product Number" v:prompt="" v:type="0" v:format="" v:sortKey="Equipment"
						v:invis="false" v:ask="false" v:langID="1033" v:cal="0"/>
				<v:cp v:nameU="PartNumber" v:lbl="Part Number" v:prompt="" v:type="0" v:format="" v:sortKey="Equipment"
						v:invis="false" v:ask="false" v:langID="1033" v:cal="0"/>
				<v:cp v:nameU="ProductDescription" v:lbl="Product Description" v:prompt="" v:type="0" v:format=""
						v:sortKey="Equipment" v:invis="false" v:ask="false" v:langID="1033" v:cal="0"/>
				<v:cp v:nameU="NetworkName" v:lbl="Network Name" v:prompt="" v:type="0" v:format="" v:sortKey="Network"
						v:invis="false" v:ask="false" v:langID="1033" v:cal="0"/>
				<v:cp v:nameU="IPAddress" v:lbl="IP Address" v:prompt="" v:type="0" v:format="" v:sortKey="Network" v:invis="false"
						v:ask="false" v:langID="1033" v:cal="0"/>
				<v:cp v:nameU="SubnetMask" v:lbl="Subnet Mask" v:prompt="" v:type="0" v:format="" v:sortKey="Network"
						v:invis="false" v:ask="false" v:langID="1033" v:cal="0"/>
				<v:cp v:nameU="AdminInterface" v:lbl="Administrative Interface" v:prompt="" v:type="0" v:format=""
						v:sortKey="Network" v:invis="false" v:ask="false" v:langID="1033" v:cal="0"/>
				<v:cp v:nameU="NumberofPorts" v:lbl="Number of Ports" v:prompt="" v:type="0" v:format="" v:sortKey="Network"
						v:invis="false" v:ask="false" v:langID="1033" v:cal="0"/>
				<v:cp v:nameU="CommunityString" v:lbl="Community String" v:prompt="" v:type="0" v:format="" v:sortKey="Network"
						v:invis="false" v:ask="false" v:langID="1033" v:cal="0"/>
				<v:cp v:nameU="NetworkDescription" v:lbl="Network Description" v:prompt="" v:type="0" v:format=""
						v:sortKey="Network" v:invis="false" v:ask="false" v:langID="1033" v:cal="0"/>
				<v:cp v:nameU="MACAddress" v:lbl="MAC Address" v:prompt="" v:type="0" v:format="" v:sortKey="Network"
						v:invis="false" v:ask="false" v:langID="1033" v:cal="0"/>
				<v:cp v:nameU="ShapeClass" v:lbl="ShapeClass" v:prompt="" v:type="0" v:format="" v:sortKey="" v:invis="true"
						v:ask="false" v:langID="1033" v:cal="0" v:val="VT4(Equipment)"/>
				<v:cp v:nameU="ShapeType" v:lbl="ShapeType" v:prompt="" v:type="0" v:format="" v:sortKey="" v:invis="true"
						v:ask="false" v:langID="1033" v:cal="0" v:val="VT4(Device)"/>
				<v:cp v:nameU="SubShapeType" v:lbl="SubShapeType" v:prompt="" v:type="0" v:format="" v:sortKey="" v:invis="true"
						v:ask="false" v:langID="1033" v:cal="0" v:val="VT4(Load balancer)"/>
			</v:custProps>
			<v:userDefs>
				<v:ud v:nameU="visVersion" v:prompt="" v:val="VT0(15):26"/>
				<v:ud v:nameU="ShapeClass" v:prompt="" v:val="VT0(5):26"/>
				<v:ud v:nameU="SolSH" v:prompt="" v:val="VT15({BF0433D9-CD73-4EB5-8390-8653BE590246}):41"/>
				<v:ud v:nameU="visLegendShape" v:prompt="" v:val="VT0(2):26"/>
				<v:ud v:nameU="visIsConnected" v:prompt="" v:val="VT0(0):26"/>
			</v:userDefs>
			<title>Load balancer.68</title>
			<g id="shape69-140" v:mID="69" v:groupContext="shape" transform="translate(0,-2.57302)">
				<title>Sheet.69</title>
				<path d="M18.95 355.47 L6.32 355.47 L0 359.2 L0 375.59 L25.27 375.59 L25.27 359.2 L18.95 355.47 Z" class="st15"/>
				<path d="M0 359.2 L25.27 359.2" class="st16"/>
				<path d="M18.95 355.47 L6.32 355.47 L0 359.2 L0 375.59 L25.27 375.59 L25.27 359.2 L18.95 355.47" class="st16"/>
			</g>
			<g id="shape70-144" v:mID="70" v:groupContext="shape" transform="translate(2.81837,-4.53869)">
				<title>Sheet.70</title>
				<path d="M15.91 374.62 L14.46 374.92 L15.49 375.59 L17.44 375.1 L17.11 373.12 L16.08 372.44 L16.39 373.88 L12.98
							 371.65 L12.49 372.39 L15.91 374.62 ZM17.84 368.85 L13.76 368.85 L13.76 369.74 L17.83 369.74 L16.78 370.77
							 L18.02 370.77 L19.37 369.29 L18.01 367.81 L16.79 367.81 L17.84 368.85 ZM16.32 364.16 L12.9 366.4 L13.38
							 367.14 L16.79 364.91 L16.48 366.35 L17.51 365.67 L17.84 363.69 L15.89 363.2 L14.87 363.87 L16.32 364.16
							 ZM9.72 365.97 C7.95 365.97 6.52 367.41 6.52 369.18 C6.52 370.95 7.95 372.38 9.72 372.38 C11.49 372.38
							 12.93 370.95 12.93 369.18 C12.93 367.41 11.49 365.97 9.72 365.97 ZM9.72 366.98 C10.93 366.98 11.92 367.97
							 11.92 369.18 C11.92 370.39 10.93 371.37 9.72 371.37 C8.51 371.37 7.53 370.39 7.53 369.18 C7.53 367.97
							 8.51 366.98 9.72 366.98 ZM4.08 368.74 L0 368.74 L0 369.62 L4.07 369.62 L3.03 370.66 L4.26 370.66 L5.62
							 369.18 L4.25 367.7 L3.03 367.7 L4.08 368.74 Z" class="st5"/>
			</g>
		</g>
	</g>
</svg>
