<?xml version="1.0" encoding="utf-8"?>
<!-- Generator: Adobe Illustrator 16.0.0, SVG Export Plug-In . SVG Version: 6.00 Build 0)  -->
<!DOCTYPE svg PUBLIC "-//W3C//DTD SVG 1.0//EN" "http://www.w3.org/TR/2001/REC-SVG-20010904/DTD/svg10.dtd">
<svg version="1.0" id="Layer_1" xmlns="http://www.w3.org/2000/svg" xmlns:xlink="http://www.w3.org/1999/xlink" x="0px" y="0px"
	 width="467.25px" height="375px" viewBox="0 0 467.25 375" enable-background="new 0 0 467.25 375" xml:space="preserve">
<g>
	<defs>
		<rect id="SVGID_1_" width="467.25" height="375"/>
	</defs>
	<clipPath id="SVGID_2_">
		<use xlink:href="#SVGID_1_"  overflow="visible"/>
	</clipPath>
	<path clip-path="url(#SVGID_2_)" fill-rule="evenodd" clip-rule="evenodd" fill="#FFFFFF" d="M413.94,255.67
		c-0.811-7.13-7.29-12.7-15.24-12.7c-2.26,0-4.391,0.48-6.32,1.28c-3.74-7-11.49-12.13-26.03-11.71
		c-18.88,0.54-41.239,9.03-45.739,24.12c-5.38,1.03-8.851,3.939-10.92,7.83c-0.83-0.08-1.681-0.13-2.561-0.13
		c-12.439,0-21.99,9.069-22.53,20.242c-0.71,14.462,10.091,20.253,22.53,20.253c1.78,0,3.5-0.202,5.16-0.554
		c2.58,1.686,5.95,2.721,9.65,2.721c3.409,0,6.55-0.888,9.05-2.364c4.79,8.148,14.63,13.882,25.979,13.21
		c11.94-0.693,19.11-3.238,23.34-7.17c0.271-0.027,0.511-0.027,0.79-0.059c13.351-1.715,19.221-5.173,21.11-10.872
		c0.35,0.01,0.71,0.019,1.06,0.019c17.33-0.001,31.351-5.06,31.351-22.777C434.62,267.16,425.97,258.85,413.94,255.67z"/>
	
		<path clip-path="url(#SVGID_2_)" fill="none" stroke="#000000" stroke-width="0.7508" stroke-linecap="round" stroke-linejoin="round" stroke-miterlimit="10" d="
		M413.94,255.67c-0.811-7.13-7.29-12.7-15.24-12.7c-2.26,0-4.391,0.48-6.32,1.28c-3.74-7-11.49-12.13-26.03-11.71
		c-18.88,0.54-41.239,9.03-45.739,24.12c-5.38,1.03-8.851,3.939-10.92,7.83c-0.83-0.08-1.681-0.13-2.561-0.13
		c-12.439,0-21.99,9.069-22.53,20.242c-0.71,14.462,10.091,20.253,22.53,20.253c1.78,0,3.5-0.202,5.16-0.554
		c2.58,1.686,5.95,2.721,9.65,2.721c3.409,0,6.55-0.888,9.05-2.364c4.79,8.148,14.63,13.882,25.979,13.21
		c11.94-0.693,19.11-3.238,23.34-7.17c0.271-0.027,0.511-0.027,0.79-0.059c13.351-1.715,19.221-5.173,21.11-10.872
		c0.35,0.01,0.71,0.019,1.06,0.019c17.33-0.001,31.351-5.06,31.351-22.777C434.62,267.16,425.97,258.85,413.94,255.67z"/>
	
		<rect x="179.01" y="121.121" clip-path="url(#SVGID_2_)" fill-rule="evenodd" clip-rule="evenodd" fill="#FFFFFF" width="110.55" height="85.039"/>
	
		<rect x="179.01" y="121.121" clip-path="url(#SVGID_2_)" fill="none" stroke="#000000" stroke-width="0.7508" stroke-linecap="round" stroke-linejoin="round" stroke-miterlimit="10" width="110.55" height="85.039"/>
	<g clip-path="url(#SVGID_2_)">
		<text transform="matrix(1 0 0 1 246.6699 130.2798)"><tspan x="0" y="0" font-family="'Calibri'" font-size="9.775">W</tspan><tspan x="9.009" y="0" font-family="'Calibri'" font-size="9.775">o</tspan><tspan x="14.242" y="0" font-family="'Calibri'" font-size="9.775">r</tspan><tspan x="17.982" y="0" font-family="'Calibri'" font-size="9.775">k</tspan><tspan x="22.465" y="0" font-family="'Calibri'" font-size="9.775">e</tspan><tspan x="26.967" y="0" font-family="'Calibri'" font-size="9.775">r</tspan><tspan x="30.707" y="0" font-family="'Calibri'" font-size="9.775"> </tspan><tspan x="32.937" y="0" font-family="'Calibri'" font-size="9.775">n</tspan></text>
	</g>
	<g clip-path="url(#SVGID_2_)">
		<text transform="matrix(1 0 0 1 284.9199 131.6699)" font-family="'Calibri'" font-size="6.775">B</text>
	</g>
	
		<rect x="163.42" y="135.301" clip-path="url(#SVGID_2_)" fill-rule="evenodd" clip-rule="evenodd" fill="#FFFFFF" width="110.55" height="85.039"/>
	
		<rect x="163.42" y="135.301" clip-path="url(#SVGID_2_)" fill="none" stroke="#000000" stroke-width="0.7508" stroke-linecap="round" stroke-linejoin="round" stroke-miterlimit="10" width="110.55" height="85.039"/>
	<g clip-path="url(#SVGID_2_)">
		<text transform="matrix(1 0 0 1 265.2305 144.48)"><tspan x="0" y="0" font-family="'Calibri'" font-size="9.775">.</tspan><tspan x="2.253" y="0" font-family="'Calibri'" font-size="9.775">.</tspan><tspan x="5.258" y="0" font-family="'Calibri'" font-size="9.775">.</tspan></text>
	</g>
	
		<rect x="149.25" y="149.471" clip-path="url(#SVGID_2_)" fill-rule="evenodd" clip-rule="evenodd" fill="#FFFFFF" width="110.55" height="85.039"/>
	
		<rect x="149.25" y="149.471" clip-path="url(#SVGID_2_)" fill="none" stroke="#000000" stroke-width="0.7508" stroke-linecap="round" stroke-linejoin="round" stroke-miterlimit="10" width="110.55" height="85.039"/>
	<g clip-path="url(#SVGID_2_)">
		<text transform="matrix(1 0 0 1 101.9502 329.625)" font-family="'Calibri'" font-size="11.275">n</text>
	</g>
	<g clip-path="url(#SVGID_2_)">
		<text transform="matrix(1 0 0 1 107.75 331.1748)" font-family="'Calibri'" font-size="7.5">B</text>
	</g>
	<g clip-path="url(#SVGID_2_)">
		<text transform="matrix(1 0 0 1 111.6499 329.625)"><tspan x="0" y="0" font-family="'Calibri'" font-size="11.275">:</tspan><tspan x="3.006" y="0" font-family="'Calibri'" font-size="11.275"> </tspan></text>
	</g>
	<g clip-path="url(#SVGID_2_)">
		<text transform="matrix(1 0 0 1 117.0698 329.625)"><tspan x="0" y="0" font-family="'Calibri'" font-size="11.275">T</tspan><tspan x="5.28" y="0" font-family="'Calibri'" font-size="11.275">o</tspan><tspan x="11.282" y="0" font-family="'Calibri'" font-size="11.275">t</tspan><tspan x="15.059" y="0" font-family="'Calibri'" font-size="11.275">a</tspan><tspan x="20.302" y="0" font-family="'Calibri'" font-size="11.275">l</tspan><tspan x="22.562" y="0" font-family="'Calibri'" font-size="11.275"> </tspan><tspan x="25.54" y="0" font-family="'Calibri'" font-size="11.275">n</tspan><tspan x="30.821" y="0" font-family="'Calibri'" font-size="11.275">u</tspan><tspan x="36.824" y="0" font-family="'Calibri'" font-size="11.275">m</tspan><tspan x="45.831" y="0" font-family="'Calibri'" font-size="11.275">b</tspan><tspan x="51.123" y="0" font-family="'Calibri'" font-size="11.275">e</tspan><tspan x="57.127" y="0" font-family="'Calibri'" font-size="11.275">r</tspan><tspan x="60.889" y="0" font-family="'Calibri'" font-size="11.275"> </tspan><tspan x="63.145" y="0" font-family="'Calibri'" font-size="11.275">o</tspan><tspan x="69.147" y="0" font-family="'Calibri'" font-size="11.275">f</tspan><tspan x="72.148" y="0" font-family="'Calibri'" font-size="11.275"> </tspan><tspan x="75.125" y="0" font-family="'Calibri'" font-size="11.275">U</tspan><tspan x="81.909" y="0" font-family="'Calibri'" font-size="11.275">R</tspan><tspan x="87.94" y="0" font-family="'Calibri'" font-size="11.275">L</tspan></text>
	</g>
	<g clip-path="url(#SVGID_2_)">
		<text transform="matrix(1 0 0 1 209.5801 329.625)" font-family="'Calibri'" font-size="11.275">-</text>
	</g>
	<g clip-path="url(#SVGID_2_)">
		<text transform="matrix(1 0 0 1 212.9502 329.625)"><tspan x="0" y="0" font-family="'Calibri'" font-size="11.275">B</tspan><tspan x="6.009" y="0" font-family="'Calibri'" font-size="11.275">l</tspan><tspan x="8.27" y="0" font-family="'Calibri'" font-size="11.275">o</tspan><tspan x="14.249" y="0" font-family="'Calibri'" font-size="11.275">c</tspan><tspan x="18.757" y="0" font-family="'Calibri'" font-size="11.275">k</tspan><tspan x="23.996" y="0" font-family="'Calibri'" font-size="11.275">s</tspan></text>
	</g>
	<g clip-path="url(#SVGID_2_)">
		<text transform="matrix(1 0 0 1 241.25 329.625)" font-family="'Calibri'" font-size="11.275">.</text>
	</g>
	<g clip-path="url(#SVGID_2_)">
		<text transform="matrix(1 0 0 1 101.9502 342.8496)" font-family="'Calibri'" font-size="11.275">n</text>
	</g>
	<g clip-path="url(#SVGID_2_)">
		<text transform="matrix(1 0 0 1 107.75 344.4004)" font-family="'Calibri'" font-size="7.5">B</text>
	</g>
	<g clip-path="url(#SVGID_2_)">
		<text transform="matrix(1 0 0 1 111.6499 342.8496)" font-family="'Calibri'" font-size="11.275"> </text>
	</g>
	<g clip-path="url(#SVGID_2_)">
		<text transform="matrix(1 0 0 1 114.1201 342.8496)"><tspan x="0" y="0" font-family="'Calibri'" font-size="11.275">≡</tspan><tspan x="5.277" y="0" font-family="'Calibri'" font-size="11.275"> </tspan></text>
	</g>
	<g clip-path="url(#SVGID_2_)">
		<text transform="matrix(1 0 0 1 122.1001 342.8496)"><tspan x="0" y="0" font-family="'Calibri'" font-size="11.275">0</tspan><tspan x="5.286" y="0" font-family="'Calibri'" font-size="11.275"> </tspan></text>
	</g>
	<g clip-path="url(#SVGID_2_)">
		<text transform="matrix(1 0 0 1 130.1802 342.8496)" font-family="'Calibri'" font-size="11.275">(</text>
	</g>
	<g clip-path="url(#SVGID_2_)">
		<text transform="matrix(1 0 0 1 133.52 342.8496)"><tspan x="0" y="0" font-family="'Calibri'" font-size="11.275">m</tspan><tspan x="9.007" y="0" font-family="'Calibri'" font-size="11.275">o</tspan><tspan x="14.276" y="0" font-family="'Calibri'" font-size="11.275">d</tspan><tspan x="20.256" y="0" font-family="'Calibri'" font-size="11.275"> </tspan></text>
	</g>
	<g clip-path="url(#SVGID_2_)">
		<text transform="matrix(1 0 0 1 156.4302 342.8496)" font-family="'Calibri'" font-size="11.275">2</text>
	</g>
	<g clip-path="url(#SVGID_2_)">
		<text transform="matrix(1 0 0 1 162 342.8496)"><tspan x="0" y="0" font-family="'Calibri'" font-size="11.275">)</tspan><tspan x="3.001" y="0" font-family="'Calibri'" font-size="11.275"> </tspan></text>
	</g>
	<g clip-path="url(#SVGID_2_)">
		<text transform="matrix(1 0 0 1 327.5703 279.1748)"><tspan x="0" y="0" font-family="'Calibri'" font-size="11.275">WWW</tspan><tspan x="29.349" y="0" font-family="'Calibri'" font-size="11.275"> </tspan></text>
	</g>
	<g clip-path="url(#SVGID_2_)">
		<text transform="matrix(1 0 0 1 359.4697 279.1748)" font-family="'Calibri'" font-size="11.275">(</text>
	</g>
	<g clip-path="url(#SVGID_2_)">
		<text transform="matrix(1 0 0 1 362.7998 279.1748)"><tspan x="0" y="0" font-family="'Calibri'" font-size="11.275">P</tspan><tspan x="6.005" y="0" font-family="'Calibri'" font-size="11.275">a</tspan><tspan x="11.282" y="0" font-family="'Calibri'" font-size="11.275">g</tspan><tspan x="16.566" y="0" font-family="'Calibri'" font-size="11.275">e</tspan><tspan x="21.85" y="0" font-family="'Calibri'" font-size="11.275">s</tspan></text>
	</g>
	<g clip-path="url(#SVGID_2_)">
		<text transform="matrix(1 0 0 1 388.75 279.1748)" font-family="'Calibri'" font-size="11.275">)</text>
	</g>
	
		<polyline clip-path="url(#SVGID_2_)" fill="none" stroke="#000000" stroke-width="0.7508" stroke-linecap="round" stroke-linejoin="round" stroke-miterlimit="10" points="
		123.46,77.09 123.46,205.1 136.49,205.1 	"/>
	
		<polyline clip-path="url(#SVGID_2_)" fill="none" stroke="#000000" stroke-width="0.7508" stroke-linecap="round" stroke-linejoin="round" stroke-miterlimit="10" points="
		133.22,208.37 136.49,205.1 133.22,201.83 	"/>
	
		<rect x="121.43" y="142.81" clip-path="url(#SVGID_2_)" fill-rule="evenodd" clip-rule="evenodd" fill="#FFFFFF" width="4.055" height="9.6"/>
	<g clip-path="url(#SVGID_2_)">
		<text transform="matrix(1 0 0 1 121.6201 150.2998)" font-family="'Calibri,Bold'" font-size="8.275">1</text>
	</g>
	
		<rect x="136.49" y="163.647" clip-path="url(#SVGID_2_)" fill-rule="evenodd" clip-rule="evenodd" fill="#FFFFFF" width="110.55" height="82.913"/>
	
		<rect x="136.49" y="163.647" clip-path="url(#SVGID_2_)" fill="none" stroke="#000000" stroke-width="0.7508" stroke-linecap="round" stroke-linejoin="round" stroke-miterlimit="10" width="110.55" height="82.913"/>
	
		<polyline clip-path="url(#SVGID_2_)" fill="none" stroke="#000000" stroke-width="0.7508" stroke-linecap="round" stroke-linejoin="round" stroke-miterlimit="10" points="
		287.34,275.331 158.12,275.331 158.12,239.3 	"/>
	
		<polyline clip-path="url(#SVGID_2_)" fill="none" stroke="#000000" stroke-width="0.7508" stroke-linecap="round" stroke-linejoin="round" stroke-miterlimit="10" points="
		161.39,242.57 158.12,239.3 154.85,242.57 	"/>
	
		<rect x="202.69" y="270.532" clip-path="url(#SVGID_2_)" fill-rule="evenodd" clip-rule="evenodd" fill="#FFFFFF" width="4.055" height="9.6"/>
	<g clip-path="url(#SVGID_2_)">
		<text transform="matrix(1 0 0 1 203.02 278.2754)" font-family="'Calibri,Bold'" font-size="8.275">3</text>
	</g>
	
		<path clip-path="url(#SVGID_2_)" fill="none" stroke="#000000" stroke-width="0.7508" stroke-linecap="round" stroke-linejoin="round" stroke-miterlimit="10" d="
		M170.76,229.61h7.02c0-1.311,1.06-2.37,2.36-2.37c1.31,0,2.37,1.06,2.37,2.37h6.42v34.52h34.77v-17.57"/>
	
		<polyline clip-path="url(#SVGID_2_)" fill="none" stroke="#000000" stroke-width="0.7508" stroke-linecap="round" stroke-linejoin="round" stroke-miterlimit="10" points="
		226.97,249.83 223.7,246.56 220.43,249.83 	"/>
	
		<rect x="184.48" y="259.15" clip-path="url(#SVGID_2_)" fill-rule="evenodd" clip-rule="evenodd" fill="#FFFFFF" width="8.902" height="9.6"/>
	<g clip-path="url(#SVGID_2_)">
		<text transform="matrix(1 0 0 1 184.77 266.8799)" font-family="'Calibri,Bold'" font-size="8.275">4</text>
	</g>
	<g clip-path="url(#SVGID_2_)">
		<text transform="matrix(1 0 0 1 188.8501 266.8799)" font-family="'Calibri,Bold'" font-size="8.275">A</text>
	</g>
	<g clip-path="url(#SVGID_2_)">
		<text transform="matrix(1 0 0 1 219.8799 159.4199)"><tspan x="0" y="0" font-family="'Calibri'" font-size="9.775">W</tspan><tspan x="9.009" y="0" font-family="'Calibri'" font-size="9.775">o</tspan><tspan x="14.242" y="0" font-family="'Calibri'" font-size="9.775">r</tspan><tspan x="17.982" y="0" font-family="'Calibri'" font-size="9.775">k</tspan><tspan x="22.465" y="0" font-family="'Calibri'" font-size="9.775">e</tspan><tspan x="26.967" y="0" font-family="'Calibri'" font-size="9.775">r</tspan><tspan x="30.707" y="0" font-family="'Calibri'" font-size="9.775"> </tspan></text>
	</g>
	<g clip-path="url(#SVGID_2_)">
		<text transform="matrix(1 0 0 1 252.8496 159.4199)" font-family="'Calibri'" font-size="9.775">2</text>
	</g>
	
		<rect x="85.039" y="57.602" clip-path="url(#SVGID_2_)" fill="none" stroke="#000000" stroke-width="0.7508" stroke-linecap="round" stroke-linejoin="round" stroke-miterlimit="10" width="62.362" height="19.488"/>
	<g clip-path="url(#SVGID_2_)">
		<text transform="matrix(1 0 0 1 92.25 70.48)"><tspan x="0" y="0" font-family="'Calibri'" font-size="9.775">U</tspan><tspan x="6.76" y="0" font-family="'Calibri'" font-size="9.775">R</tspan><tspan x="12.048" y="0" font-family="'Calibri'" font-size="9.775">L</tspan></text>
	</g>
	<g clip-path="url(#SVGID_2_)">
		<text transform="matrix(1 0 0 1 108.3198 70.48)" font-family="'Calibri'" font-size="9.775">-</text>
	</g>
	<g clip-path="url(#SVGID_2_)">
		<text transform="matrix(1 0 0 1 111.3999 70.48)"><tspan x="0" y="0" font-family="'Calibri'" font-size="9.775">B</tspan><tspan x="5.258" y="0" font-family="'Calibri'" font-size="9.775">l</tspan><tspan x="7.501" y="0" font-family="'Calibri'" font-size="9.775">o</tspan><tspan x="12.735" y="0" font-family="'Calibri'" font-size="9.775">c</tspan><tspan x="17.22" y="0" font-family="'Calibri'" font-size="9.775">k</tspan><tspan x="21.703" y="0" font-family="'Calibri'" font-size="9.775"> </tspan></text>
	</g>
	<g clip-path="url(#SVGID_2_)">
		<text transform="matrix(1 0 0 1 135.48 70.48)" font-family="'Calibri'" font-size="9.775">1</text>
	</g>
	
		<rect x="147.4" y="57.602" opacity="0.7098" clip-path="url(#SVGID_2_)" fill="none" stroke="#000000" stroke-width="0.7508" stroke-linecap="round" stroke-linejoin="round" stroke-miterlimit="10" width="65.197" height="19.488"/>
	<g clip-path="url(#SVGID_2_)">
		<text transform="matrix(1 0 0 1 156.1499 70.48)"><tspan x="0" y="0" font-family="'Calibri'" font-size="9.775">U</tspan><tspan x="6.741" y="0" font-family="'Calibri'" font-size="9.775">R</tspan><tspan x="12" y="0" font-family="'Calibri'" font-size="9.775">L</tspan></text>
	</g>
	<g clip-path="url(#SVGID_2_)">
		<text transform="matrix(1 0 0 1 172.2202 70.48)" font-family="'Calibri'" font-size="9.775">-</text>
	</g>
	<g clip-path="url(#SVGID_2_)">
		<text transform="matrix(1 0 0 1 175.2798 70.48)"><tspan x="0" y="0" font-family="'Calibri'" font-size="9.775">B</tspan><tspan x="5.288" y="0" font-family="'Calibri'" font-size="9.775">l</tspan><tspan x="7.531" y="0" font-family="'Calibri'" font-size="9.775">o</tspan><tspan x="12.793" y="0" font-family="'Calibri'" font-size="9.775">c</tspan><tspan x="17.308" y="0" font-family="'Calibri'" font-size="9.775">k</tspan><tspan x="21.82" y="0" font-family="'Calibri'" font-size="9.775"> </tspan></text>
	</g>
	<g clip-path="url(#SVGID_2_)">
		<text transform="matrix(1 0 0 1 199.3799 70.48)" font-family="'Calibri'" font-size="9.775">2</text>
	</g>
	
		<rect x="212.6" y="57.602" clip-path="url(#SVGID_2_)" fill="none" stroke="#000000" stroke-width="0.7508" stroke-linecap="round" stroke-linejoin="round" stroke-miterlimit="10" width="62.362" height="19.488"/>
	<g clip-path="url(#SVGID_2_)">
		<text transform="matrix(1 0 0 1 240.3799 70.48)"><tspan x="0" y="0" font-family="'Calibri'" font-size="9.775">.</tspan><tspan x="2.253" y="0" font-family="'Calibri'" font-size="9.775">.</tspan><tspan x="5.238" y="0" font-family="'Calibri'" font-size="9.775">.</tspan></text>
	</g>
	
		<rect x="275" y="57.437" clip-path="url(#SVGID_2_)" fill="none" stroke="#000000" stroke-width="0.7508" stroke-linecap="round" stroke-linejoin="round" stroke-miterlimit="10" width="62.362" height="19.843"/>
	<g clip-path="url(#SVGID_2_)">
		<text transform="matrix(1 0 0 1 280.6504 70.5)"><tspan x="0" y="0" font-family="'Calibri'" font-size="9.775">U</tspan><tspan x="6.761" y="0" font-family="'Calibri'" font-size="9.775">R</tspan><tspan x="12.049" y="0" font-family="'Calibri'" font-size="9.775">L</tspan></text>
	</g>
	<g clip-path="url(#SVGID_2_)">
		<text transform="matrix(1 0 0 1 296.7305 70.5)" font-family="'Calibri'" font-size="9.775">-</text>
	</g>
	<g clip-path="url(#SVGID_2_)">
		<text transform="matrix(1 0 0 1 299.7998 70.5)"><tspan x="0" y="0" font-family="'Calibri'" font-size="9.775">B</tspan><tspan x="5.259" y="0" font-family="'Calibri'" font-size="9.775">l</tspan><tspan x="7.502" y="0" font-family="'Calibri'" font-size="9.775">o</tspan><tspan x="12.734" y="0" font-family="'Calibri'" font-size="9.775">c</tspan><tspan x="17.22" y="0" font-family="'Calibri'" font-size="9.775">k</tspan><tspan x="21.702" y="0" font-family="'Calibri'" font-size="9.775"> </tspan><tspan x="23.932" y="0" font-family="'Calibri'" font-size="9.775">n</tspan></text>
	</g>
	<g clip-path="url(#SVGID_2_)">
		<text transform="matrix(1 0 0 1 329.1504 71.8999)" font-family="'Calibri'" font-size="6.75">B</text>
	</g>
	
		<rect x="51.218" y="92.128" clip-path="url(#SVGID_2_)" fill="none" stroke="#000000" stroke-width="0.7508" stroke-linecap="round" stroke-linejoin="round" stroke-miterlimit="10" width="19.488" height="62.362"/>
	<g clip-path="url(#SVGID_2_)">
		<text transform="matrix(-6.123234e-17 1 -1 -6.123234e-17 58.0503 99.3994)"><tspan x="0" y="0" font-family="'Calibri'" font-size="9.75">U</tspan><tspan x="6.733" y="0" font-family="'Calibri'" font-size="9.75">R</tspan><tspan x="11.988" y="0" font-family="'Calibri'" font-size="9.75">L</tspan></text>
	</g>
	<g clip-path="url(#SVGID_2_)">
		<text transform="matrix(-6.123234e-17 1 -1 -6.123234e-17 58.0493 115.4795)" font-family="'Calibri'" font-size="9.75">-</text>
	</g>
	<g clip-path="url(#SVGID_2_)">
		<text transform="matrix(-6.123234e-17 1 -1 -6.123234e-17 58.0498 118.5498)"><tspan x="0" y="0" font-family="'Calibri'" font-size="9.75">B</tspan><tspan x="5.255" y="0" font-family="'Calibri'" font-size="9.75">l</tspan><tspan x="7.492" y="0" font-family="'Calibri'" font-size="9.75">o</tspan><tspan x="12.731" y="0" font-family="'Calibri'" font-size="9.75">c</tspan><tspan x="17.225" y="0" font-family="'Calibri'" font-size="9.75">k</tspan><tspan x="21.715" y="0" font-family="'Calibri'" font-size="9.75"> </tspan></text>
	</g>
	<g clip-path="url(#SVGID_2_)">
		<text transform="matrix(-6.123234e-17 1 -1 -6.123234e-17 58.0498 142.6201)" font-family="'Calibri'" font-size="9.75">1</text>
	</g>
	
		<rect x="51.218" y="154.493" opacity="0.7098" clip-path="url(#SVGID_2_)" fill="none" stroke="#000000" stroke-width="0.7508" stroke-linecap="round" stroke-linejoin="round" stroke-miterlimit="10" width="19.488" height="65.197"/>
	<g clip-path="url(#SVGID_2_)">
		<text transform="matrix(-6.123234e-17 1 -1 -6.123234e-17 58.0498 163.2998)"><tspan x="0" y="0" font-family="'Calibri'" font-size="9.75">U</tspan><tspan x="6.733" y="0" font-family="'Calibri'" font-size="9.75">R</tspan><tspan x="11.988" y="0" font-family="'Calibri'" font-size="9.75">L</tspan></text>
	</g>
	<g clip-path="url(#SVGID_2_)">
		<text transform="matrix(-6.123234e-17 1 -1 -6.123234e-17 58.0498 179.3701)" font-family="'Calibri'" font-size="9.75">-</text>
	</g>
	<g clip-path="url(#SVGID_2_)">
		<text transform="matrix(-6.123234e-17 1 -1 -6.123234e-17 58.0498 182.4502)"><tspan x="0" y="0" font-family="'Calibri'" font-size="9.75">B</tspan><tspan x="5.255" y="0" font-family="'Calibri'" font-size="9.75">l</tspan><tspan x="7.492" y="0" font-family="'Calibri'" font-size="9.75">o</tspan><tspan x="12.731" y="0" font-family="'Calibri'" font-size="9.75">c</tspan><tspan x="17.225" y="0" font-family="'Calibri'" font-size="9.75">k</tspan><tspan x="21.716" y="0" font-family="'Calibri'" font-size="9.75"> </tspan></text>
	</g>
	<g clip-path="url(#SVGID_2_)">
		<text transform="matrix(-6.123234e-17 1 -1 -6.123234e-17 58.0498 206.5498)" font-family="'Calibri'" font-size="9.75">2</text>
	</g>
	
		<rect x="51.218" y="219.685" clip-path="url(#SVGID_2_)" fill="none" stroke="#000000" stroke-width="0.7508" stroke-linecap="round" stroke-linejoin="round" stroke-miterlimit="10" width="19.488" height="62.362"/>
	<g clip-path="url(#SVGID_2_)">
		<text transform="matrix(-6.123234e-17 1 -1 -6.123234e-17 58.0498 247.5703)"><tspan x="0" y="0" font-family="'Calibri'" font-size="9.75">.</tspan><tspan x="2.256" y="0" font-family="'Calibri'" font-size="9.75">.</tspan><tspan x="5.244" y="0" font-family="'Calibri'" font-size="9.75">.</tspan></text>
	</g>
	
		<rect x="51.024" y="282.084" clip-path="url(#SVGID_2_)" fill="none" stroke="#000000" stroke-width="0.7508" stroke-linecap="round" stroke-linejoin="round" stroke-miterlimit="10" width="19.843" height="62.362"/>
	<g clip-path="url(#SVGID_2_)">
		<text transform="matrix(-6.123234e-17 1 -1 -6.123234e-17 58.0498 287.875)"><tspan x="0" y="0" font-family="'Calibri'" font-size="9.775">U</tspan><tspan x="6.74" y="0" font-family="'Calibri'" font-size="9.775">R</tspan><tspan x="12" y="0" font-family="'Calibri'" font-size="9.775">L</tspan></text>
	</g>
	<g clip-path="url(#SVGID_2_)">
		<text transform="matrix(-6.123234e-17 1 -1 -6.123234e-17 58.0498 303.9492)" font-family="'Calibri'" font-size="9.775">-</text>
	</g>
	<g clip-path="url(#SVGID_2_)">
		<text transform="matrix(-6.123234e-17 1 -1 -6.123234e-17 58.0498 307)"><tspan x="0" y="0" font-family="'Calibri'" font-size="9.775">B</tspan><tspan x="5.287" y="0" font-family="'Calibri'" font-size="9.775">l</tspan><tspan x="7.531" y="0" font-family="'Calibri'" font-size="9.775">o</tspan><tspan x="12.812" y="0" font-family="'Calibri'" font-size="9.775">c</tspan><tspan x="17.328" y="0" font-family="'Calibri'" font-size="9.775">k</tspan><tspan x="21.84" y="0" font-family="'Calibri'" font-size="9.775"> </tspan><tspan x="24.098" y="0" font-family="'Calibri'" font-size="9.775">n</tspan></text>
	</g>
	<g clip-path="url(#SVGID_2_)">
		<text transform="matrix(-6.123234e-17 1 -1 -6.123234e-17 56.6504 336.375)" font-family="'Calibri'" font-size="6.775">B</text>
	</g>
	
		<polyline clip-path="url(#SVGID_2_)" fill="none" stroke="#000000" stroke-width="0.7508" stroke-linecap="round" stroke-linejoin="round" stroke-miterlimit="10" points="
		166.52,192.77 180.14,192.77 180.14,275.331 	"/>
	
		<polyline clip-path="url(#SVGID_2_)" fill="none" stroke="#000000" stroke-width="0.7508" stroke-linecap="round" stroke-linejoin="round" stroke-miterlimit="10" points="
		169.79,189.5 166.52,192.77 169.79,196.04 	"/>
	
		<rect x="28.346" y="85.044" opacity="0.498" clip-path="url(#SVGID_2_)" fill-rule="evenodd" clip-rule="evenodd" fill="#FFF2CC" width="49.606" height="265.46"/>
	
		<rect x="28.346" y="85.044" clip-path="url(#SVGID_2_)" fill="none" stroke="#000000" stroke-width="0.7508" stroke-linecap="round" stroke-linejoin="round" stroke-miterlimit="10" stroke-dasharray="0,3.7537" width="49.606" height="265.46"/>
	<g clip-path="url(#SVGID_2_)">
		<text transform="matrix(-6.123234e-17 1 -1 -6.123234e-17 35.5005 89.2305)"><tspan x="0" y="0" font-family="'Calibri'" font-size="12.025">S</tspan><tspan x="5.261" y="0" font-family="'Calibri'" font-size="12.025">t</tspan><tspan x="9.746" y="0" font-family="'Calibri'" font-size="12.025">o</tspan><tspan x="15.75" y="0" font-family="'Calibri'" font-size="12.025">r</tspan><tspan x="20.231" y="0" font-family="'Calibri'" font-size="12.025">e</tspan><tspan x="26.214" y="0" font-family="'Calibri'" font-size="12.025">s</tspan><tspan x="30.725" y="0" font-family="'Calibri'" font-size="12.025"> </tspan></text>
	</g>
	<g clip-path="url(#SVGID_2_)">
		<text transform="matrix(-6.123234e-17 1 -1 -6.123234e-17 35.5 122.7002)" font-family="'Calibri'" font-size="12.025">(</text>
	</g>
	<g clip-path="url(#SVGID_2_)">
		<text transform="matrix(-6.123234e-17 1 -1 -6.123234e-17 35.4995 126.3496)"><tspan x="0" y="0" font-family="'Calibri'" font-size="12.025">R</tspan><tspan x="6.758" y="0" font-family="'Calibri'" font-size="12.025">i</tspan><tspan x="9.012" y="0" font-family="'Calibri'" font-size="12.025">a</tspan><tspan x="15" y="0" font-family="'Calibri'" font-size="12.025">k</tspan></text>
	</g>
	<g clip-path="url(#SVGID_2_)">
		<text transform="matrix(-6.123234e-17 1 -1 -6.123234e-17 35.5 146.8701)" font-family="'Calibri'" font-size="12.025">, </text>
	</g>
	<g clip-path="url(#SVGID_2_)">
		<text transform="matrix(-6.123234e-17 1 -1 -6.123234e-17 35.5 196.9668)" font-family="'Calibri'" font-size="12.025">a</text>
		<text transform="matrix(-6.123234e-17 1 -1 -6.123234e-17 35.5 192.457)" font-family="'Calibri'" font-size="12.025">r</text>
		<text transform="matrix(-6.123234e-17 1 -1 -6.123234e-17 35.5 186.4326)" font-family="'Calibri'" font-size="12.025">d</text>
		<text transform="matrix(-6.123234e-17 1 -1 -6.123234e-17 35.5 179.6748)" font-family="'Calibri'" font-size="12.025">n</text>
		<text transform="matrix(-6.123234e-17 1 -1 -6.123234e-17 35.5 174.3955)" font-family="'Calibri'" font-size="12.025">a</text>
		<text transform="matrix(-6.123234e-17 1 -1 -6.123234e-17 35.5005 169.1289)" font-family="'Calibri'" font-size="12.025">s</text>
		<text transform="matrix(-6.123234e-17 1 -1 -6.123234e-17 35.5005 164.6074)" font-family="'Calibri'" font-size="12.025">s</text>
		<text transform="matrix(-6.123234e-17 1 -1 -6.123234e-17 35.5 159.3281)" font-family="'Calibri'" font-size="12.025">a</text>
		<text transform="matrix(-6.123234e-17 1 -1 -6.123234e-17 35.5005 152.5703)" font-family="'Calibri'" font-size="12.025">C</text>
	</g>
	<g clip-path="url(#SVGID_2_)">
		<text transform="matrix(-6.123234e-17 1 -1 -6.123234e-17 35.5 202.5)" font-family="'Calibri'" font-size="12.025">)</text>
	</g>
	
		<rect x="81.354" y="28.348" opacity="0.498" clip-path="url(#SVGID_2_)" fill-rule="evenodd" clip-rule="evenodd" fill="#EBF1DF" width="294.24" height="55.802"/>
	
		<rect x="81.354" y="28.348" clip-path="url(#SVGID_2_)" fill="none" stroke="#000000" stroke-width="0.7508" stroke-linecap="round" stroke-linejoin="round" stroke-miterlimit="10" stroke-dasharray="0,3.7537" width="294.24" height="55.802"/>
	<g clip-path="url(#SVGID_2_)">
		<text transform="matrix(1 0 0 1 85.5 42.3301)"><tspan x="0" y="0" font-family="'Calibri'" font-size="11.275">Q</tspan><tspan x="7.507" y="0" font-family="'Calibri'" font-size="11.275">u</tspan><tspan x="13.488" y="0" font-family="'Calibri'" font-size="11.275">e</tspan><tspan x="18.748" y="0" font-family="'Calibri'" font-size="11.275">u</tspan><tspan x="24.728" y="0" font-family="'Calibri'" font-size="11.275">e</tspan><tspan x="29.989" y="0" font-family="'Calibri'" font-size="11.275">s</tspan><tspan x="34.466" y="0" font-family="'Calibri'" font-size="11.275"> </tspan></text>
	</g>
	<g clip-path="url(#SVGID_2_)">
		<text transform="matrix(1 0 0 1 122.25 42.3301)" font-family="'Calibri'" font-size="11.275">(</text>
	</g>
	<g clip-path="url(#SVGID_2_)">
		<text transform="matrix(1 0 0 1 125.6001 42.3301)"><tspan x="0" y="0" font-family="'Calibri'" font-size="11.275">R</tspan><tspan x="6.009" y="0" font-family="'Calibri'" font-size="11.275">e</tspan><tspan x="11.27" y="0" font-family="'Calibri'" font-size="11.275">d</tspan><tspan x="17.25" y="0" font-family="'Calibri'" font-size="11.275">i</tspan><tspan x="19.51" y="0" font-family="'Calibri'" font-size="11.275">s</tspan></text>
	</g>
	<g clip-path="url(#SVGID_2_)">
		<text transform="matrix(1 0 0 1 149.6802 42.3301)" font-family="'Calibri'" font-size="11.275">)</text>
	</g>
	
		<polyline clip-path="url(#SVGID_2_)" fill="none" stroke="#000000" stroke-width="0.7508" stroke-linecap="round" stroke-linejoin="round" stroke-miterlimit="10" points="
		247.04,201.56 359.26,201.56 359.26,233.1 	"/>
	
		<polyline clip-path="url(#SVGID_2_)" fill="none" stroke="#000000" stroke-width="0.7508" stroke-linecap="round" stroke-linejoin="round" stroke-miterlimit="10" points="
		355.99,229.83 359.26,233.1 362.53,229.83 	"/>
	
		<rect x="316.89" y="196.76" clip-path="url(#SVGID_2_)" fill-rule="evenodd" clip-rule="evenodd" fill="#FFFFFF" width="4.056" height="9.601"/>
	<g clip-path="url(#SVGID_2_)">
		<text transform="matrix(1 0 0 1 317.4004 204.3496)" font-family="'Calibri,Bold'" font-size="8.275">2</text>
	</g>
	<g clip-path="url(#SVGID_2_)">
		<text transform="matrix(1 0 0 1 207.75 173.2002)"><tspan x="0" y="0" font-family="'Calibri'" font-size="9.775">W</tspan><tspan x="8.99" y="0" font-family="'Calibri'" font-size="9.775">o</tspan><tspan x="14.223" y="0" font-family="'Calibri'" font-size="9.775">r</tspan><tspan x="17.963" y="0" font-family="'Calibri'" font-size="9.775">k</tspan><tspan x="22.445" y="0" font-family="'Calibri'" font-size="9.775">e</tspan><tspan x="26.947" y="0" font-family="'Calibri'" font-size="9.775">r</tspan><tspan x="30.688" y="0" font-family="'Calibri'" font-size="9.775"> </tspan></text>
	</g>
	<g clip-path="url(#SVGID_2_)">
		<text transform="matrix(1 0 0 1 240.7305 173.2002)" font-family="'Calibri'" font-size="9.775">1</text>
	</g>
	
		<rect x="200.36" y="192.56" clip-path="url(#SVGID_2_)" fill-rule="evenodd" clip-rule="evenodd" fill="#FFFFFF" width="46.677" height="18"/>
	
		<rect x="200.36" y="192.56" clip-path="url(#SVGID_2_)" fill="none" stroke="#000000" stroke-width="0.7508" stroke-linecap="round" stroke-linejoin="round" stroke-miterlimit="10" width="46.677" height="18"/>
	<g clip-path="url(#SVGID_2_)">
		<text transform="matrix(1 0 0 1 217.6299 204.3496)"><tspan x="0" y="0" font-family="'Calibri'" font-size="8.275">U</tspan><tspan x="5.276" y="0" font-family="'Calibri'" font-size="8.275">R</tspan><tspan x="9.794" y="0" font-family="'Calibri'" font-size="8.275">L</tspan></text>
	</g>
	
		<rect x="200.36" y="210.56" clip-path="url(#SVGID_2_)" fill-rule="evenodd" clip-rule="evenodd" fill="#FFFFFF" width="46.677" height="18"/>
	
		<rect x="200.36" y="210.56" clip-path="url(#SVGID_2_)" fill="none" stroke="#000000" stroke-width="0.7508" stroke-linecap="round" stroke-linejoin="round" stroke-miterlimit="10" width="46.677" height="18"/>
	<g clip-path="url(#SVGID_2_)">
		<text transform="matrix(1 0 0 1 217.6299 222.4004)" font-family="'Calibri'" font-size="8.25">URL</text>
	</g>
	
		<rect x="200.36" y="228.56" clip-path="url(#SVGID_2_)" fill-rule="evenodd" clip-rule="evenodd" fill="#FFFFFF" width="46.677" height="18"/>
	
		<rect x="200.36" y="228.56" clip-path="url(#SVGID_2_)" fill="none" stroke="#000000" stroke-width="0.7508" stroke-linecap="round" stroke-linejoin="round" stroke-miterlimit="10" width="46.677" height="18"/>
	<g clip-path="url(#SVGID_2_)">
		<text transform="matrix(1 0 0 1 217.6299 240.4199)"><tspan x="0" y="0" font-family="'Calibri'" font-size="8.275">U</tspan><tspan x="5.276" y="0" font-family="'Calibri'" font-size="8.275">R</tspan><tspan x="9.794" y="0" font-family="'Calibri'" font-size="8.275">L</tspan></text>
	</g>
	<polygon clip-path="url(#SVGID_2_)" fill-rule="evenodd" clip-rule="evenodd" fill="#FFFFFF" points="164.44,219.18 151.81,219.18 
		145.49,222.91 145.49,239.3 170.76,239.3 170.76,222.91 	"/>
	
		<path clip-path="url(#SVGID_2_)" fill="none" stroke="#000000" stroke-width="0.7508" stroke-linecap="round" stroke-linejoin="round" stroke-miterlimit="10" d="
		M164.44,219.18h-12.63l-6.32,3.73v16.39h25.27v-16.39L164.44,219.18z M145.49,222.91h25.27"/>
	<path clip-path="url(#SVGID_2_)" fill-rule="evenodd" clip-rule="evenodd" fill="#FFFFFF" d="M152.39,230.48h-4.08v0.89h4.07
		l-1.05,1.03h1.24l1.36-1.48l-1.37-1.479h-1.22L152.39,230.48z M158.03,228.73c1.21,0,2.2,0.979,2.2,2.189s-0.99,2.2-2.2,2.2
		c-1.21,0-2.19-0.99-2.19-2.2S156.82,228.73,158.03,228.73z M158.03,227.72c-1.77,0-3.2,1.431-3.2,3.2c0,1.771,1.43,3.21,3.2,3.21
		s3.21-1.439,3.21-3.21C161.24,229.15,159.8,227.72,158.03,227.72z M164.62,225.91l-3.41,2.229l0.48,0.74l3.41-2.22l-0.31,1.43
		l1.03-0.67l0.33-1.979l-1.95-0.5l-1.03,0.67L164.62,225.91z M166.15,230.6h-4.09v0.881h4.08l-1.05,1.029h1.23l1.36-1.479
		l-1.36-1.48h-1.23L166.15,230.6z M164.22,236.37l-1.45,0.3l1.02,0.67l1.95-0.5l-0.32-1.979l-1.04-0.67l0.31,1.43l-3.41-2.22
		l-0.48,0.739L164.22,236.37z"/>
	
		<path clip-path="url(#SVGID_2_)" fill="none" stroke="#000000" stroke-width="0.7508" stroke-linecap="round" stroke-linejoin="round" stroke-miterlimit="10" d="
		M152.39,230.48h-4.08v0.89h4.07l-1.05,1.03h1.24l1.36-1.48l-1.37-1.479h-1.22L152.39,230.48z M158.03,228.73
		c1.21,0,2.2,0.979,2.2,2.189s-0.99,2.2-2.2,2.2c-1.21,0-2.19-0.99-2.19-2.2S156.82,228.73,158.03,228.73z M158.03,227.72
		c-1.77,0-3.2,1.431-3.2,3.2c0,1.771,1.43,3.21,3.2,3.21s3.21-1.439,3.21-3.21C161.24,229.15,159.8,227.72,158.03,227.72z
		 M164.62,225.91l-3.41,2.229l0.48,0.74l3.41-2.22l-0.31,1.43l1.03-0.67l0.33-1.979l-1.95-0.5l-1.03,0.67L164.62,225.91z
		 M166.15,230.6h-4.09v0.881h4.08l-1.05,1.029h1.23l1.36-1.479l-1.36-1.48h-1.23L166.15,230.6z M164.22,236.37l-1.45,0.3l1.02,0.67
		l1.95-0.5l-0.32-1.979l-1.04-0.67l0.31,1.43l-3.41-2.22l-0.48,0.739L164.22,236.37z"/>
	<g clip-path="url(#SVGID_2_)">
		<text transform="matrix(1 0 0 1 146.9302 215.9199)"><tspan x="0" y="0" font-family="'Calibri'" font-size="8.275">Q</tspan><tspan x="5.253" y="0" font-family="'Calibri'" font-size="8.275">u</tspan><tspan x="9.742" y="0" font-family="'Calibri'" font-size="8.275">e</tspan><tspan x="13.495" y="0" font-family="'Calibri'" font-size="8.275">u</tspan><tspan x="17.983" y="0" font-family="'Calibri'" font-size="8.275">e</tspan></text>
	</g>
	<path clip-path="url(#SVGID_2_)" fill-rule="evenodd" clip-rule="evenodd" fill="#FFFFFF" d="M166.52,185.83c0-1.66-4.03-3-8.99-3
		c-4.97,0-9,1.34-9,3c0,1.65,4.03,3,9,3C162.49,188.83,166.52,187.48,166.52,185.83z M148.53,185.86v13.86c0,1.66,4.03,3,9,3
		c4.96,0,8.99-1.34,8.99-3v-13.89c0,1.65-4.03,3-8.99,3C152.6,188.83,148.59,187.5,148.53,185.86z"/>
	
		<path clip-path="url(#SVGID_2_)" fill="none" stroke="#000000" stroke-width="0.7508" stroke-linecap="round" stroke-linejoin="round" stroke-miterlimit="10" d="
		M166.52,185.83c0-1.66-4.03-3-8.99-3c-4.97,0-9,1.34-9,3c0,1.65,4.03,3,9,3C162.49,188.83,166.52,187.48,166.52,185.83z
		 M148.53,185.86v13.86c0,1.66,4.03,3,9,3c4.96,0,8.99-1.34,8.99-3v-13.89c0,1.65-4.03,3-8.99,3
		C152.6,188.83,148.59,187.5,148.53,185.86z"/>
	<g clip-path="url(#SVGID_2_)">
		<text transform="matrix(1 0 0 1 149.5498 179.4502)"><tspan x="0" y="0" font-family="'Calibri'" font-size="8.275">S</tspan><tspan x="3.752" y="0" font-family="'Calibri'" font-size="8.275">t</tspan><tspan x="6.011" y="0" font-family="'Calibri'" font-size="8.275">o</tspan><tspan x="10.499" y="0" font-family="'Calibri'" font-size="8.275">r</tspan><tspan x="13.492" y="0" font-family="'Calibri'" font-size="8.275">e</tspan></text>
	</g>
	
		<path clip-path="url(#SVGID_2_)" fill="none" stroke="#000000" stroke-width="0.7508" stroke-linecap="round" stroke-linejoin="round" stroke-miterlimit="10" d="
		M243.18,77.09v22.12H125.82c0-1.3-1.06-2.36-2.36-2.36c-1.31,0-2.37,1.06-2.37,2.36H99.213"/>
	
		<polyline clip-path="url(#SVGID_2_)" fill="none" stroke="#000000" stroke-width="0.7508" stroke-linecap="round" stroke-linejoin="round" stroke-miterlimit="10" points="
		246.45,80.36 243.18,77.09 239.91,80.36 	"/>
	
		<polyline clip-path="url(#SVGID_2_)" fill="none" stroke="#000000" stroke-width="0.7508" stroke-linecap="round" stroke-linejoin="round" stroke-miterlimit="10" points="
		306.18,77.28 306.18,99.21 243.18,99.21 	"/>
	
		<polyline clip-path="url(#SVGID_2_)" fill="none" stroke="#000000" stroke-width="0.7508" stroke-linecap="round" stroke-linejoin="round" stroke-miterlimit="10" points="
		309.45,80.55 306.18,77.28 302.91,80.55 	"/>
	
		<path clip-path="url(#SVGID_2_)" fill="none" stroke="#000000" stroke-width="0.7508" stroke-linecap="round" stroke-linejoin="round" stroke-miterlimit="10" d="
		M70.707,191.34H96.85c0-1.31,1.058-2.359,2.363-2.359c1.307,0,2.357,1.05,2.357,2.359h19.52c0-1.31,1.06-2.359,2.37-2.359
		c1.3,0,2.36,1.05,2.36,2.359h22.71"/>
	
		<polyline clip-path="url(#SVGID_2_)" fill="none" stroke="#000000" stroke-width="0.7508" stroke-linecap="round" stroke-linejoin="round" stroke-miterlimit="10" points="
		73.977,188.07 70.707,191.34 73.977,194.61 	"/>
	
		<polyline clip-path="url(#SVGID_2_)" fill="none" stroke="#000000" stroke-width="0.7508" stroke-linecap="round" stroke-linejoin="round" stroke-miterlimit="10" points="
		99.213,77.09 99.213,229.24 145.49,229.24 	"/>
	
		<polyline clip-path="url(#SVGID_2_)" fill="none" stroke="#000000" stroke-width="0.7508" stroke-linecap="round" stroke-linejoin="round" stroke-miterlimit="10" points="
		102.48,80.36 99.213,77.09 95.943,80.36 	"/>
	
		<rect x="94.943" y="171.5" clip-path="url(#SVGID_2_)" fill-rule="evenodd" clip-rule="evenodd" fill="#FFFFFF" width="8.539" height="9.6"/>
	<g clip-path="url(#SVGID_2_)">
		<text transform="matrix(1 0 0 1 95.1001 179.0498)" font-family="'Calibri,Bold'" font-size="8.275">4</text>
	</g>
	<g clip-path="url(#SVGID_2_)">
		<text transform="matrix(1 0 0 1 99.1499 179.0498)" font-family="'Calibri,Bold'" font-size="8.275">B</text>
	</g>
	
		<line clip-path="url(#SVGID_2_)" fill="none" stroke="#000000" stroke-width="0.7508" stroke-linecap="round" stroke-linejoin="round" stroke-miterlimit="10" x1="177.17" y1="77.09" x2="177.17" y2="99.21"/>
	
		<polyline clip-path="url(#SVGID_2_)" fill="none" stroke="#000000" stroke-width="0.7508" stroke-linecap="round" stroke-linejoin="round" stroke-miterlimit="10" points="
		180.44,80.36 177.17,77.09 173.9,80.36 	"/>
	
		<polyline clip-path="url(#SVGID_2_)" fill="none" stroke="#000000" stroke-width="0.7508" stroke-linecap="round" stroke-linejoin="round" stroke-miterlimit="10" points="
		70.707,123.31 85.039,123.31 85.039,192.77 	"/>
	
		<polyline clip-path="url(#SVGID_2_)" fill="none" stroke="#000000" stroke-width="0.7508" stroke-linecap="round" stroke-linejoin="round" stroke-miterlimit="10" points="
		73.977,120.04 70.707,123.31 73.977,126.58 	"/>
	
		<polyline clip-path="url(#SVGID_2_)" fill="none" stroke="#000000" stroke-width="0.7508" stroke-linecap="round" stroke-linejoin="round" stroke-miterlimit="10" points="
		70.707,254.6 85.039,254.6 85.039,192.77 	"/>
	
		<polyline clip-path="url(#SVGID_2_)" fill="none" stroke="#000000" stroke-width="0.7508" stroke-linecap="round" stroke-linejoin="round" stroke-miterlimit="10" points="
		73.977,251.33 70.707,254.6 73.977,257.87 	"/>
	
		<polyline clip-path="url(#SVGID_2_)" fill="none" stroke="#000000" stroke-width="0.7508" stroke-linecap="round" stroke-linejoin="round" stroke-miterlimit="10" points="
		70.866,315.997 85.039,315.997 85.039,254.6 	"/>
	
		<polyline clip-path="url(#SVGID_2_)" fill="none" stroke="#000000" stroke-width="0.7508" stroke-linecap="round" stroke-linejoin="round" stroke-miterlimit="10" points="
		74.136,312.727 70.866,315.997 74.136,319.267 	"/>
</g>
</svg>
