<?xml version="1.0" encoding="utf-8"?>
<!-- Generator: Adobe Illustrator 16.0.0, SVG Export Plug-In . SVG Version: 6.00 Build 0)  -->
<!DOCTYPE svg PUBLIC "-//W3C//DTD SVG 1.0//EN" "http://www.w3.org/TR/2001/REC-SVG-20010904/DTD/svg10.dtd">
<svg version="1.0" id="Layer_1" xmlns="http://www.w3.org/2000/svg" xmlns:xlink="http://www.w3.org/1999/xlink" x="0px" y="0px"
	 width="362.25px" height="282.75px" viewBox="0 0 362.25 282.75" enable-background="new 0 0 362.25 282.75" xml:space="preserve">
<ellipse fill-rule="evenodd" clip-rule="evenodd" fill="#F2F2F2" cx="80.052" cy="217.956" rx="61.677" ry="46.546"/>
<ellipse fill="none" stroke="#000000" stroke-width="0.7508" stroke-linecap="round" stroke-linejoin="round" stroke-miterlimit="10" cx="80.052" cy="217.956" rx="61.677" ry="46.546"/>
<text transform="matrix(1 0 0 1 66.8501 220.9502)"><tspan x="0" y="0" font-family="'Calibri,Bold'" font-size="8.275">G</tspan><tspan x="5.346" y="0" font-family="'Calibri,Bold'" font-size="8.275">r</tspan><tspan x="8.076" y="0" font-family="'Calibri,Bold'" font-size="8.275">o</tspan><tspan x="11.924" y="0" font-family="'Calibri,Bold'" font-size="8.275">up</tspan><tspan x="21.292" y="0" font-family="'Calibri,Bold'" font-size="8.275"> </tspan></text>
<text transform="matrix(1 0 0 1 89.5249 220.9502)" font-family="'Calibri,Bold'" font-size="8.275">1</text>
<path fill-rule="evenodd" clip-rule="evenodd" fill="#F2F2F2" d="M18.75,87.81c0-25.71,27.614-46.55,61.679-46.55
	c34.061,0,61.681,20.84,61.681,46.55c0,25.7-27.62,46.54-61.681,46.54C46.364,134.35,18.75,113.51,18.75,87.81z"/>
<path fill="none" stroke="#000000" stroke-width="0.7508" stroke-linecap="round" stroke-linejoin="round" stroke-miterlimit="10" d="
	M18.75,87.81c0-25.71,27.614-46.55,61.679-46.55c34.061,0,61.681,20.84,61.681,46.55c0,25.7-27.62,46.54-61.681,46.54
	C46.364,134.35,18.75,113.51,18.75,87.81z"/>
<text transform="matrix(1 0 0 1 67.2251 90.4502)"><tspan x="0" y="0" font-family="'Calibri,Bold'" font-size="8.275">G</tspan><tspan x="5.346" y="0" font-family="'Calibri,Bold'" font-size="8.275">r</tspan><tspan x="8.076" y="0" font-family="'Calibri,Bold'" font-size="8.275">o</tspan><tspan x="11.924" y="0" font-family="'Calibri,Bold'" font-size="8.275">up</tspan><tspan x="21.292" y="0" font-family="'Calibri,Bold'" font-size="8.275"> </tspan></text>
<text transform="matrix(1 0 0 1 89.8999 90.4502)" font-family="'Calibri,Bold'" font-size="8.275">0</text>
<line fill="none" stroke="#000000" stroke-width="0.7508" stroke-linecap="round" stroke-linejoin="round" stroke-miterlimit="10" x1="298.75" y1="75.11" x2="315.52" y2="75.11"/>
<rect x="315.52" y="65.207" fill-rule="evenodd" clip-rule="evenodd" fill="#FFFFFF" width="10.995" height="17.223"/>
<rect x="315.52" y="65.207" fill="none" stroke="#000000" stroke-width="0.7508" stroke-linecap="round" stroke-linejoin="round" stroke-miterlimit="10" width="10.995" height="17.223"/>
<circle fill-rule="evenodd" clip-rule="evenodd" cx="298.88" cy="58.23" r="13.69"/>
<circle fill="none" stroke="#000000" stroke-width="0.7508" stroke-linecap="round" stroke-linejoin="round" stroke-miterlimit="10" cx="298.88" cy="58.23" r="13.69"/>
<path fill-rule="evenodd" clip-rule="evenodd" fill="#FFFFFF" d="M324.76,74.41c0-0.36-0.3-0.66-0.67-0.66s-0.66,0.3-0.66,0.66
	c0,0.37,0.29,0.67,0.66,0.67S324.76,74.78,324.76,74.41z M319.5,77h5.37v-0.43h-5.37V77z M319.5,78.3h5.37v-0.43h-5.37V78.3z
	 M319.5,79.61h5.37v-0.43h-5.37V79.61z M288.03,57.88c0.01-1.46,0.229-2.87,0.62-4.2h-2.101c-0.479,1.31-0.76,2.73-0.8,4.2H288.03z
	 M288.77,62.78c-0.43-1.34-0.68-2.75-0.729-4.21h-2.29c0.04,1.48,0.32,2.89,0.8,4.21H288.77z M288.87,52.99
	c0.52-1.52,1.26-2.94,2.2-4.21h-1.32c-1.23,1.19-2.22,2.62-2.92,4.21H288.87z M289.01,63.47h-2.18c0.7,1.59,1.689,3.01,2.92,4.2
	h1.63C290.38,66.41,289.58,65,289.01,63.47z M288.74,57.88h4.25c0.02-1.43,0.17-2.84,0.439-4.2h-4.05
	C288.98,55.02,288.76,56.44,288.74,57.88z M293.38,62.78c-0.25-1.37-0.38-2.77-0.399-4.21h-4.23c0.05,1.46,0.32,2.87,0.76,4.21
	H293.38z M294.93,48.78h-3.12c-0.909,1.23-1.67,2.66-2.21,4.21h3.971C293.9,51.53,294.36,50.13,294.93,48.78z M294.84,67.67
	c-0.56-1.34-1-2.75-1.32-4.2h-3.77c0.6,1.54,1.44,2.97,2.47,4.2H294.84z M291.61,48.1c0.529-0.64,1.109-1.24,1.729-1.78
	c-1.02,0.47-1.97,1.07-2.82,1.78H291.61z M291.96,68.36h-1.44c1.141,0.94,2.45,1.7,3.87,2.22C293.5,69.92,292.69,69.18,291.96,68.36
	z M292.36,48.1h2.88c0.46-0.99,0.99-1.94,1.569-2.85c-0.52,0.09-1.029,0.2-1.54,0.35C294.23,46.21,293.24,47.06,292.36,48.1z
	 M296.64,71.15c-0.56-0.89-1.06-1.82-1.5-2.79h-2.3C293.94,69.51,295.22,70.46,296.64,71.15z M298.54,58.57h-4.84
	c0.01,1.44,0.149,2.84,0.41,4.21h4.43V58.57z M298.54,53.68h-4.39c-0.271,1.36-0.42,2.76-0.45,4.2h4.84V53.68z M298.54,63.47h-4.28
	c0.32,1.45,0.771,2.86,1.33,4.2h2.95V63.47z M298.54,48.78h-2.88c-0.57,1.35-1.03,2.75-1.36,4.21h4.24V48.78z M298.54,68.36h-2.65
	c0.471,1.02,1,2,1.591,2.93c0.35,0.04,0.699,0.06,1.06,0.07V68.36z M298.54,45.1c-0.33,0.01-0.65,0.02-0.97,0.06
	c-0.59,0.93-1.13,1.91-1.601,2.94h2.57V45.1z M299.23,67.67h2.699c0.57-1.34,1.021-2.75,1.34-4.2h-4.039V67.67z M299.23,62.78h4.18
	c0.26-1.37,0.399-2.77,0.42-4.21h-4.6V62.78z M301.63,68.36h-2.399v3c0.27-0.01,0.539-0.02,0.8-0.05
	C300.63,70.38,301.16,69.39,301.63,68.36z M299.23,57.88h4.59c-0.021-1.44-0.181-2.84-0.45-4.2h-4.14V57.88z M299.23,48.78v4.21h4
	c-0.33-1.46-0.801-2.86-1.37-4.21H299.23z M299.23,48.1h2.329c-0.479-1.03-1.02-2.02-1.619-2.96c-0.23-0.02-0.471-0.04-0.71-0.04
	V48.1z M302.32,45.55c-0.53-0.15-1.07-0.26-1.63-0.33c0.59,0.92,1.13,1.88,1.59,2.88h3.029C304.41,47.04,303.4,46.16,302.32,45.55z
	 M304.84,68.36h-2.45c-0.449,0.99-0.97,1.94-1.54,2.86c0.03,0,0.051-0.01,0.08-0.01C302.39,70.51,303.71,69.54,304.84,68.36z
	 M302.59,48.78c0.58,1.35,1.04,2.75,1.36,4.21h4.12c-0.53-1.55-1.29-2.98-2.21-4.21H302.59z M307.92,63.47H304
	c-0.31,1.45-0.75,2.86-1.31,4.2h2.76C306.49,66.44,307.32,65.01,307.92,63.47z M305.72,68.36c-0.75,0.84-1.59,1.61-2.51,2.27
	c1.49-0.51,2.85-1.29,4.04-2.27H305.72z M308.29,53.68h-4.19c0.261,1.36,0.41,2.77,0.44,4.2h4.39
	C308.92,56.44,308.69,55.02,308.29,53.68z M308.93,58.57h-4.39c-0.01,1.44-0.15,2.84-0.4,4.21h4.03
	C308.61,61.44,308.87,60.03,308.93,58.57z M306.06,48.1h1.19c-0.91-0.76-1.93-1.38-3.02-1.87C304.89,46.8,305.51,47.42,306.06,48.1z
	 M308.67,63.47c-0.57,1.53-1.38,2.94-2.37,4.2h1.71c1.23-1.19,2.23-2.61,2.92-4.2H308.67z M308.81,52.99h2.12
	c-0.689-1.59-1.689-3.02-2.92-4.21h-1.41C307.54,50.05,308.29,51.47,308.81,52.99z M309.64,58.57c-0.05,1.46-0.31,2.87-0.729,4.21
	h2.3c0.49-1.32,0.76-2.73,0.8-4.21H309.64z M309.03,53.68c0.39,1.33,0.6,2.75,0.609,4.2h2.37c-0.04-1.47-0.31-2.89-0.8-4.2H309.03z"
	/>
<path fill="none" stroke="#000000" stroke-width="0.7508" stroke-linecap="round" stroke-linejoin="round" stroke-miterlimit="10" d="
	M324.76,74.41c0-0.36-0.3-0.66-0.67-0.66s-0.66,0.3-0.66,0.66c0,0.37,0.29,0.67,0.66,0.67S324.76,74.78,324.76,74.41z M319.5,77
	h5.37v-0.43h-5.37V77z M319.5,78.3h5.37v-0.43h-5.37V78.3z M319.5,79.61h5.37v-0.43h-5.37V79.61z M288.03,57.88
	c0.01-1.46,0.229-2.87,0.62-4.2h-2.101c-0.479,1.31-0.76,2.73-0.8,4.2H288.03z M288.77,62.78c-0.43-1.34-0.68-2.75-0.729-4.21h-2.29
	c0.04,1.48,0.32,2.89,0.8,4.21H288.77z M288.87,52.99c0.52-1.52,1.26-2.94,2.2-4.21h-1.32c-1.23,1.19-2.22,2.62-2.92,4.21H288.87z
	 M289.01,63.47h-2.18c0.7,1.59,1.689,3.01,2.92,4.2h1.63C290.38,66.41,289.58,65,289.01,63.47z M288.74,57.88h4.25
	c0.02-1.43,0.17-2.84,0.439-4.2h-4.05C288.98,55.02,288.76,56.44,288.74,57.88z M293.38,62.78c-0.25-1.37-0.38-2.77-0.399-4.21
	h-4.23c0.05,1.46,0.32,2.87,0.76,4.21H293.38z M294.93,48.78h-3.12c-0.909,1.23-1.67,2.66-2.21,4.21h3.971
	C293.9,51.53,294.36,50.13,294.93,48.78z M294.84,67.67c-0.56-1.34-1-2.75-1.32-4.2h-3.77c0.6,1.54,1.44,2.97,2.47,4.2H294.84z
	 M291.61,48.1c0.529-0.64,1.109-1.24,1.729-1.78c-1.02,0.47-1.97,1.07-2.82,1.78H291.61z M291.96,68.36h-1.44
	c1.141,0.94,2.45,1.7,3.87,2.22C293.5,69.92,292.69,69.18,291.96,68.36z M292.36,48.1h2.88c0.46-0.99,0.99-1.94,1.569-2.85
	c-0.52,0.09-1.029,0.2-1.54,0.35C294.23,46.21,293.24,47.06,292.36,48.1z M296.64,71.15c-0.56-0.89-1.06-1.82-1.5-2.79h-2.3
	C293.94,69.51,295.22,70.46,296.64,71.15z M298.54,58.57h-4.84c0.01,1.44,0.149,2.84,0.41,4.21h4.43V58.57z M298.54,53.68h-4.39
	c-0.271,1.36-0.42,2.76-0.45,4.2h4.84V53.68z M298.54,63.47h-4.28c0.32,1.45,0.771,2.86,1.33,4.2h2.95V63.47z M298.54,48.78h-2.88
	c-0.57,1.35-1.03,2.75-1.36,4.21h4.24V48.78z M298.54,68.36h-2.65c0.471,1.02,1,2,1.591,2.93c0.35,0.04,0.699,0.06,1.06,0.07V68.36z
	 M298.54,45.1c-0.33,0.01-0.65,0.02-0.97,0.06c-0.59,0.93-1.13,1.91-1.601,2.94h2.57V45.1z M299.23,67.67h2.699
	c0.57-1.34,1.021-2.75,1.34-4.2h-4.039V67.67z M299.23,62.78h4.18c0.26-1.37,0.399-2.77,0.42-4.21h-4.6V62.78z M301.63,68.36h-2.399
	v3c0.27-0.01,0.539-0.02,0.8-0.05C300.63,70.38,301.16,69.39,301.63,68.36z M299.23,57.88h4.59c-0.021-1.44-0.181-2.84-0.45-4.2
	h-4.14V57.88z M299.23,48.78v4.21h4c-0.33-1.46-0.801-2.86-1.37-4.21H299.23z M299.23,48.1h2.329c-0.479-1.03-1.02-2.02-1.619-2.96
	c-0.23-0.02-0.471-0.04-0.71-0.04V48.1z M302.32,45.55c-0.53-0.15-1.07-0.26-1.63-0.33c0.59,0.92,1.13,1.88,1.59,2.88h3.029
	C304.41,47.04,303.4,46.16,302.32,45.55z M304.84,68.36h-2.45c-0.449,0.99-0.97,1.94-1.54,2.86c0.03,0,0.051-0.01,0.08-0.01
	C302.39,70.51,303.71,69.54,304.84,68.36z M302.59,48.78c0.58,1.35,1.04,2.75,1.36,4.21h4.12c-0.53-1.55-1.29-2.98-2.21-4.21H302.59
	z M307.92,63.47H304c-0.31,1.45-0.75,2.86-1.31,4.2h2.76C306.49,66.44,307.32,65.01,307.92,63.47z M305.72,68.36
	c-0.75,0.84-1.59,1.61-2.51,2.27c1.49-0.51,2.85-1.29,4.04-2.27H305.72z M308.29,53.68h-4.19c0.261,1.36,0.41,2.77,0.44,4.2h4.39
	C308.92,56.44,308.69,55.02,308.29,53.68z M308.93,58.57h-4.39c-0.01,1.44-0.15,2.84-0.4,4.21h4.03
	C308.61,61.44,308.87,60.03,308.93,58.57z M306.06,48.1h1.19c-0.91-0.76-1.93-1.38-3.02-1.87C304.89,46.8,305.51,47.42,306.06,48.1z
	 M308.67,63.47c-0.57,1.53-1.38,2.94-2.37,4.2h1.71c1.23-1.19,2.23-2.61,2.92-4.2H308.67z M308.81,52.99h2.12
	c-0.689-1.59-1.689-3.02-2.92-4.21h-1.41C307.54,50.05,308.29,51.47,308.81,52.99z M309.64,58.57c-0.05,1.46-0.31,2.87-0.729,4.21
	h2.3c0.49-1.32,0.76-2.73,0.8-4.21H309.64z M309.03,53.68c0.39,1.33,0.6,2.75,0.609,4.2h2.37c-0.04-1.47-0.31-2.89-0.8-4.2H309.03z"
	/>
<text transform="matrix(1 0 0 1 273.1504 97.3999)"><tspan x="0" y="0" font-family="'Calibri'" font-size="9.775">b</tspan><tspan x="5.272" y="0" font-family="'Calibri'" font-size="9.775">s</tspan></text>
<text transform="matrix(1 0 0 1 282.3496 97.3999)" font-family="'Calibri'" font-size="9.775">.</text>
<text transform="matrix(1 0 0 1 284.8799 97.3999)"><tspan x="0" y="0" font-family="'Calibri'" font-size="9.775">w</tspan><tspan x="7.516" y="0" font-family="'Calibri'" font-size="9.775">i</tspan><tspan x="9.759" y="0" font-family="'Calibri'" font-size="9.775">k</tspan><tspan x="14.251" y="0" font-family="'Calibri'" font-size="9.775">i</tspan><tspan x="16.494" y="0" font-family="'Calibri'" font-size="9.775">p</tspan><tspan x="21.728" y="0" font-family="'Calibri'" font-size="9.775">e</tspan><tspan x="26.229" y="0" font-family="'Calibri'" font-size="9.775">d</tspan><tspan x="31.463" y="0" font-family="'Calibri'" font-size="9.775">ia</tspan></text>
<text transform="matrix(1 0 0 1 323.7998 97.3999)" font-family="'Calibri'" font-size="9.775">.</text>
<text transform="matrix(1 0 0 1 326.3496 97.3999)"><tspan x="0" y="0" font-family="'Calibri'" font-size="9.775">o</tspan><tspan x="5.233" y="0" font-family="'Calibri'" font-size="9.775">r</tspan><tspan x="8.974" y="0" font-family="'Calibri'" font-size="9.775">g</tspan></text>
<line fill="none" stroke="#000000" stroke-width="0.7508" stroke-linecap="round" stroke-linejoin="round" stroke-miterlimit="10" x1="298.75" y1="218.664" x2="315.52" y2="218.664"/>
<rect x="315.52" y="208.765" fill-rule="evenodd" clip-rule="evenodd" fill="#FFFFFF" width="10.995" height="17.224"/>
<rect x="315.52" y="208.765" fill="none" stroke="#000000" stroke-width="0.7508" stroke-linecap="round" stroke-linejoin="round" stroke-miterlimit="10" width="10.995" height="17.224"/>
<circle fill-rule="evenodd" clip-rule="evenodd" cx="298.88" cy="201.784" r="13.69"/>
<circle fill="none" stroke="#000000" stroke-width="0.7508" stroke-linecap="round" stroke-linejoin="round" stroke-miterlimit="10" cx="298.88" cy="201.784" r="13.69"/>
<path fill-rule="evenodd" clip-rule="evenodd" fill="#FFFFFF" d="M324.76,217.971c0-0.367-0.3-0.664-0.67-0.664
	s-0.66,0.297-0.66,0.664s0.29,0.665,0.66,0.665S324.76,218.338,324.76,217.971z M319.5,220.554h5.37v-0.432h-5.37V220.554z
	 M319.5,221.86h5.37v-0.432h-5.37V221.86z M319.5,223.165h5.37v-0.43h-5.37V223.165z M288.03,201.44
	c0.01-1.459,0.229-2.869,0.62-4.205h-2.101c-0.479,1.314-0.76,2.729-0.8,4.205H288.03z M288.77,206.334
	c-0.43-1.333-0.68-2.743-0.729-4.206h-2.29c0.04,1.475,0.32,2.891,0.8,4.206H288.77z M288.87,196.547
	c0.52-1.521,1.26-2.938,2.2-4.206h-1.32c-1.23,1.189-2.22,2.615-2.92,4.206H288.87z M289.01,207.022h-2.18
	c0.7,1.591,1.689,3.017,2.92,4.205h1.63C290.38,209.969,289.58,208.553,289.01,207.022z M288.74,201.44h4.25
	c0.02-1.436,0.17-2.842,0.439-4.205h-4.05C288.98,198.575,288.76,199.993,288.74,201.44z M293.38,206.334
	c-0.25-1.365-0.38-2.771-0.399-4.206h-4.23c0.05,1.455,0.32,2.87,0.76,4.206H293.38z M294.93,192.341h-3.12
	c-0.909,1.227-1.67,2.655-2.21,4.206h3.971C293.9,195.091,294.36,193.685,294.93,192.341z M294.84,211.228
	c-0.56-1.345-1-2.752-1.32-4.205h-3.77c0.6,1.546,1.44,2.97,2.47,4.205H294.84z M291.61,191.653
	c0.529-0.639,1.109-1.234,1.729-1.781c-1.02,0.475-1.97,1.073-2.82,1.781H291.61z M291.96,211.916h-1.44
	c1.141,0.944,2.45,1.699,3.87,2.217C293.5,213.48,292.69,212.737,291.96,211.916z M292.36,191.653h2.88
	c0.46-0.986,0.99-1.935,1.569-2.844c-0.52,0.083-1.029,0.199-1.54,0.343C294.23,189.767,293.24,190.619,292.36,191.653z
	 M296.64,214.709c-0.56-0.894-1.06-1.826-1.5-2.794h-2.3C293.94,213.069,295.22,214.021,296.64,214.709z M298.54,202.128h-4.84
	c0.01,1.436,0.149,2.842,0.41,4.206h4.43V202.128z M298.54,197.235h-4.39c-0.271,1.36-0.42,2.766-0.45,4.205h4.84V197.235z
	 M298.54,207.022h-4.28c0.32,1.459,0.771,2.865,1.33,4.205h2.95V207.022z M298.54,192.341h-2.88c-0.57,1.341-1.03,2.747-1.36,4.206
	h4.24V192.341z M298.54,211.916h-2.65c0.471,1.022,1,2.001,1.591,2.931c0.35,0.037,0.699,0.059,1.06,0.067V211.916z M298.54,188.655
	c-0.33,0.008-0.65,0.024-0.97,0.057c-0.59,0.938-1.13,1.918-1.601,2.941h2.57V188.655z M299.23,211.228h2.699
	c0.57-1.34,1.021-2.746,1.34-4.205h-4.039V211.228z M299.23,206.334h4.18c0.26-1.364,0.399-2.771,0.42-4.206h-4.6V206.334z
	 M301.63,211.916h-2.399v2.998c0.27-0.007,0.539-0.021,0.8-0.045C300.63,213.933,301.16,212.947,301.63,211.916z M299.23,201.44
	h4.59c-0.021-1.439-0.181-2.845-0.45-4.205h-4.14V201.44z M299.23,192.341v4.206h4c-0.33-1.459-0.801-2.865-1.37-4.206H299.23z
	 M299.23,191.653h2.329c-0.479-1.03-1.02-2.019-1.619-2.96c-0.23-0.02-0.471-0.032-0.71-0.038V191.653z M302.32,189.103
	c-0.53-0.143-1.07-0.254-1.63-0.329c0.59,0.92,1.13,1.881,1.59,2.88h3.029C304.41,190.592,303.4,189.721,302.32,189.103z
	 M304.84,211.916h-2.45c-0.449,0.991-0.97,1.945-1.54,2.86c0.03-0.004,0.051-0.01,0.08-0.015
	C302.39,214.07,303.71,213.097,304.84,211.916z M302.59,192.341c0.58,1.344,1.04,2.75,1.36,4.206h4.12
	c-0.53-1.551-1.29-2.979-2.21-4.206H302.59z M307.92,207.022H304c-0.31,1.453-0.75,2.86-1.31,4.205h2.76
	C306.49,209.992,307.32,208.568,307.92,207.022z M305.72,211.916c-0.75,0.845-1.59,1.608-2.51,2.273
	c1.49-0.518,2.85-1.291,4.04-2.273H305.72z M308.29,197.235h-4.19c0.261,1.363,0.41,2.77,0.44,4.205h4.39
	C308.92,199.993,308.69,198.575,308.29,197.235z M308.93,202.128h-4.39c-0.01,1.437-0.15,2.841-0.4,4.206h4.03
	C308.61,204.998,308.87,203.583,308.93,202.128z M306.06,191.653h1.19c-0.91-0.752-1.93-1.381-3.02-1.869
	C304.89,190.356,305.51,190.98,306.06,191.653z M308.67,207.022c-0.57,1.53-1.38,2.946-2.37,4.205h1.71
	c1.23-1.188,2.23-2.614,2.92-4.205H308.67z M308.81,196.547h2.12c-0.689-1.591-1.689-3.017-2.92-4.206h-1.41
	C307.54,193.61,308.29,195.025,308.81,196.547z M309.64,202.128c-0.05,1.463-0.31,2.873-0.729,4.206h2.3
	c0.49-1.315,0.76-2.731,0.8-4.206H309.64z M309.03,197.235c0.39,1.336,0.6,2.747,0.609,4.205h2.37c-0.04-1.476-0.31-2.891-0.8-4.205
	H309.03z"/>
<path fill="none" stroke="#000000" stroke-width="0.7508" stroke-linecap="round" stroke-linejoin="round" stroke-miterlimit="10" d="
	M324.76,217.971c0-0.367-0.3-0.664-0.67-0.664s-0.66,0.297-0.66,0.664s0.29,0.665,0.66,0.665S324.76,218.338,324.76,217.971z
	 M319.5,220.554h5.37v-0.432h-5.37V220.554z M319.5,221.86h5.37v-0.432h-5.37V221.86z M319.5,223.165h5.37v-0.43h-5.37V223.165z
	 M288.03,201.44c0.01-1.459,0.229-2.869,0.62-4.205h-2.101c-0.479,1.314-0.76,2.729-0.8,4.205H288.03z M288.77,206.334
	c-0.43-1.333-0.68-2.743-0.729-4.206h-2.29c0.04,1.475,0.32,2.891,0.8,4.206H288.77z M288.87,196.547
	c0.52-1.521,1.26-2.938,2.2-4.206h-1.32c-1.23,1.189-2.22,2.615-2.92,4.206H288.87z M289.01,207.022h-2.18
	c0.7,1.591,1.689,3.017,2.92,4.205h1.63C290.38,209.969,289.58,208.553,289.01,207.022z M288.74,201.44h4.25
	c0.02-1.436,0.17-2.842,0.439-4.205h-4.05C288.98,198.575,288.76,199.993,288.74,201.44z M293.38,206.334
	c-0.25-1.365-0.38-2.771-0.399-4.206h-4.23c0.05,1.455,0.32,2.87,0.76,4.206H293.38z M294.93,192.341h-3.12
	c-0.909,1.227-1.67,2.655-2.21,4.206h3.971C293.9,195.091,294.36,193.685,294.93,192.341z M294.84,211.228
	c-0.56-1.345-1-2.752-1.32-4.205h-3.77c0.6,1.546,1.44,2.97,2.47,4.205H294.84z M291.61,191.653
	c0.529-0.639,1.109-1.234,1.729-1.781c-1.02,0.475-1.97,1.073-2.82,1.781H291.61z M291.96,211.916h-1.44
	c1.141,0.944,2.45,1.699,3.87,2.217C293.5,213.48,292.69,212.737,291.96,211.916z M292.36,191.653h2.88
	c0.46-0.986,0.99-1.935,1.569-2.844c-0.52,0.083-1.029,0.199-1.54,0.343C294.23,189.767,293.24,190.619,292.36,191.653z
	 M296.64,214.709c-0.56-0.894-1.06-1.826-1.5-2.794h-2.3C293.94,213.069,295.22,214.021,296.64,214.709z M298.54,202.128h-4.84
	c0.01,1.436,0.149,2.842,0.41,4.206h4.43V202.128z M298.54,197.235h-4.39c-0.271,1.36-0.42,2.766-0.45,4.205h4.84V197.235z
	 M298.54,207.022h-4.28c0.32,1.459,0.771,2.865,1.33,4.205h2.95V207.022z M298.54,192.341h-2.88c-0.57,1.341-1.03,2.747-1.36,4.206
	h4.24V192.341z M298.54,211.916h-2.65c0.471,1.022,1,2.001,1.591,2.931c0.35,0.037,0.699,0.059,1.06,0.067V211.916z M298.54,188.655
	c-0.33,0.008-0.65,0.024-0.97,0.057c-0.59,0.938-1.13,1.918-1.601,2.941h2.57V188.655z M299.23,211.228h2.699
	c0.57-1.34,1.021-2.746,1.34-4.205h-4.039V211.228z M299.23,206.334h4.18c0.26-1.364,0.399-2.771,0.42-4.206h-4.6V206.334z
	 M301.63,211.916h-2.399v2.998c0.27-0.007,0.539-0.021,0.8-0.045C300.63,213.933,301.16,212.947,301.63,211.916z M299.23,201.44
	h4.59c-0.021-1.439-0.181-2.845-0.45-4.205h-4.14V201.44z M299.23,192.341v4.206h4c-0.33-1.459-0.801-2.865-1.37-4.206H299.23z
	 M299.23,191.653h2.329c-0.479-1.03-1.02-2.019-1.619-2.96c-0.23-0.02-0.471-0.032-0.71-0.038V191.653z M302.32,189.103
	c-0.53-0.143-1.07-0.254-1.63-0.329c0.59,0.92,1.13,1.881,1.59,2.88h3.029C304.41,190.592,303.4,189.721,302.32,189.103z
	 M304.84,211.916h-2.45c-0.449,0.991-0.97,1.945-1.54,2.86c0.03-0.004,0.051-0.01,0.08-0.015
	C302.39,214.07,303.71,213.097,304.84,211.916z M302.59,192.341c0.58,1.344,1.04,2.75,1.36,4.206h4.12
	c-0.53-1.551-1.29-2.979-2.21-4.206H302.59z M307.92,207.022H304c-0.31,1.453-0.75,2.86-1.31,4.205h2.76
	C306.49,209.992,307.32,208.568,307.92,207.022z M305.72,211.916c-0.75,0.845-1.59,1.608-2.51,2.273
	c1.49-0.518,2.85-1.291,4.04-2.273H305.72z M308.29,197.235h-4.19c0.261,1.363,0.41,2.77,0.44,4.205h4.39
	C308.92,199.993,308.69,198.575,308.29,197.235z M308.93,202.128h-4.39c-0.01,1.437-0.15,2.841-0.4,4.206h4.03
	C308.61,204.998,308.87,203.583,308.93,202.128z M306.06,191.653h1.19c-0.91-0.752-1.93-1.381-3.02-1.869
	C304.89,190.356,305.51,190.98,306.06,191.653z M308.67,207.022c-0.57,1.53-1.38,2.946-2.37,4.205h1.71
	c1.23-1.188,2.23-2.614,2.92-4.205H308.67z M308.81,196.547h2.12c-0.689-1.591-1.689-3.017-2.92-4.206h-1.41
	C307.54,193.61,308.29,195.025,308.81,196.547z M309.64,202.128c-0.05,1.463-0.31,2.873-0.729,4.206h2.3
	c0.49-1.315,0.76-2.731,0.8-4.206H309.64z M309.03,197.235c0.39,1.336,0.6,2.747,0.609,4.205h2.37c-0.04-1.476-0.31-2.891-0.8-4.205
	H309.03z"/>
<text transform="matrix(1 0 0 1 272.5 241.3496)"><tspan x="0" y="0" font-family="'Calibri'" font-size="9.775">b</tspan><tspan x="5.243" y="0" font-family="'Calibri'" font-size="9.775">n</tspan></text>
<text transform="matrix(1 0 0 1 283.0195 241.3496)" font-family="'Calibri'" font-size="9.775">.</text>
<text transform="matrix(1 0 0 1 285.5498 241.3496)"><tspan x="0" y="0" font-family="'Calibri'" font-size="9.775">w</tspan><tspan x="7.516" y="0" font-family="'Calibri'" font-size="9.775">i</tspan><tspan x="9.759" y="0" font-family="'Calibri'" font-size="9.775">k</tspan><tspan x="14.251" y="0" font-family="'Calibri'" font-size="9.775">i</tspan><tspan x="16.494" y="0" font-family="'Calibri'" font-size="9.775">p</tspan><tspan x="21.728" y="0" font-family="'Calibri'" font-size="9.775">e</tspan><tspan x="26.229" y="0" font-family="'Calibri'" font-size="9.775">d</tspan><tspan x="31.463" y="0" font-family="'Calibri'" font-size="9.775">ia</tspan></text>
<text transform="matrix(1 0 0 1 324.4697 241.3496)" font-family="'Calibri'" font-size="9.775">.</text>
<text transform="matrix(1 0 0 1 327.0303 241.3496)"><tspan x="0" y="0" font-family="'Calibri'" font-size="9.775">o</tspan><tspan x="5.233" y="0" font-family="'Calibri'" font-size="9.775">r</tspan><tspan x="8.974" y="0" font-family="'Calibri'" font-size="9.775">g</tspan></text>
<rect x="18.75" y="18.37" fill="none" stroke="#000000" stroke-width="0.7508" stroke-linecap="round" stroke-linejoin="round" stroke-miterlimit="10" width="123.36" height="115.98"/>
<text transform="matrix(1 0 0 1 22.7998 33.27)"><tspan x="0" y="0" font-family="'Calibri'" font-size="12.025">R</tspan><tspan x="6.758" y="0" font-family="'Calibri'" font-size="12.025">e</tspan><tspan x="12.741" y="0" font-family="'Calibri'" font-size="12.025">g</tspan><tspan x="18.016" y="0" font-family="'Calibri'" font-size="12.025">i</tspan><tspan x="20.992" y="0" font-family="'Calibri'" font-size="12.025">o</tspan><tspan x="26.997" y="0" font-family="'Calibri'" font-size="12.025">n</tspan><tspan x="33.748" y="0" font-family="'Calibri'" font-size="12.025"> </tspan></text>
<text transform="matrix(1 0 0 1 59.1001 33.27)" font-family="'Calibri'" font-size="12.025">1</text>
<polygon fill-rule="evenodd" clip-rule="evenodd" fill="#FFFFFF" points="124.8,57.56 102.8,57.56 95.369,71.24 95.369,91.85 
	132.15,91.85 132.15,71.24 "/>
<path fill="none" stroke="#000000" stroke-width="0.7508" stroke-linecap="round" stroke-linejoin="round" stroke-miterlimit="10" d="
	M124.8,57.56h-22l-7.431,13.68v20.61h36.781V71.24L124.8,57.56z M95.369,71.24h36.781"/>
<text transform="matrix(1 0 0 1 100.3701 103.6201)"><tspan x="0" y="0" font-family="'Calibri'" font-size="8.275">w</tspan><tspan x="6.015" y="0" font-family="'Calibri'" font-size="8.275">o</tspan><tspan x="9.766" y="0" font-family="'Calibri'" font-size="8.275">r</tspan><tspan x="12.758" y="0" font-family="'Calibri'" font-size="8.275">k</tspan><tspan x="16.52" y="0" font-family="'Calibri'" font-size="8.275">e</tspan><tspan x="20.257" y="0" font-family="'Calibri'" font-size="8.275">r</tspan></text>
<text transform="matrix(1 0 0 1 123.5498 103.6201)" font-family="'Calibri'" font-size="8.275">1</text>
<polygon fill-rule="evenodd" clip-rule="evenodd" fill="#FFFFFF" points="58.148,57.56 36.153,57.56 28.721,71.24 28.721,91.85 
	65.505,91.85 65.505,71.24 "/>
<path fill="none" stroke="#000000" stroke-width="0.7508" stroke-linecap="round" stroke-linejoin="round" stroke-miterlimit="10" d="
	M58.148,57.56H36.153l-7.432,13.68v20.61h36.784V71.24L58.148,57.56z M28.721,71.24h36.784"/>
<text transform="matrix(1 0 0 1 33.6001 103.6201)"><tspan x="0" y="0" font-family="'Calibri'" font-size="8.25">w</tspan><tspan x="5.988" y="0" font-family="'Calibri'" font-size="8.25">o</tspan><tspan x="9.745" y="0" font-family="'Calibri'" font-size="8.25">r</tspan><tspan x="12.736" y="0" font-family="'Calibri'" font-size="8.25">k</tspan><tspan x="16.487" y="0" font-family="'Calibri'" font-size="8.25">e</tspan><tspan x="20.237" y="0" font-family="'Calibri'" font-size="8.25">r</tspan></text>
<text transform="matrix(1 0 0 1 56.7749 103.6201)" font-family="'Calibri'" font-size="8.25">0</text>
<line fill="none" stroke="#000000" stroke-width="0.7508" stroke-linecap="round" stroke-linejoin="round" stroke-miterlimit="10" x1="142.11" y1="63.49" x2="281.42" y2="63.49"/>
<polygon fill-rule="evenodd" clip-rule="evenodd" points="280.73,60.73 286.24,63.49 280.73,66.24 "/>
<rect x="207.3" y="58.69" fill-rule="evenodd" clip-rule="evenodd" fill="#FFFFFF" width="13.754" height="9.6"/>
<text transform="matrix(1 0 0 1 207.7197 66.0498)" font-family="'Calibri,Bold'" font-size="8.275">0</text>
<text transform="matrix(1 0 0 1 211.7998 66.0498)"><tspan x="0" y="0" font-family="'Calibri,Bold'" font-size="8.275">m</tspan><tspan x="6.918" y="0" font-family="'Calibri,Bold'" font-size="8.275">s</tspan></text>
<rect x="18.375" y="148.521" fill="none" stroke="#000000" stroke-width="0.7508" stroke-linecap="round" stroke-linejoin="round" stroke-miterlimit="10" width="123.36" height="115.979"/>
<text transform="matrix(1 0 0 1 22.4248 163.75)"><tspan x="0" y="0" font-family="'Calibri'" font-size="12.05">R</tspan><tspan x="6.735" y="0" font-family="'Calibri'" font-size="12.05">e</tspan><tspan x="12.731" y="0" font-family="'Calibri'" font-size="12.05">g</tspan><tspan x="17.994" y="0" font-family="'Calibri'" font-size="12.05">i</tspan><tspan x="20.976" y="0" font-family="'Calibri'" font-size="12.05">o</tspan><tspan x="26.981" y="0" font-family="'Calibri'" font-size="12.05">n</tspan><tspan x="33.709" y="0" font-family="'Calibri'" font-size="12.05"> </tspan></text>
<text transform="matrix(1 0 0 1 58.7251 163.75)" font-family="'Calibri'" font-size="12.05">2</text>
<polygon fill-rule="evenodd" clip-rule="evenodd" fill="#FFFFFF" points="124.42,193.123 102.43,193.123 94.994,206.811 
	94.994,227.414 131.78,227.414 131.78,206.811 "/>
<path fill="none" stroke="#000000" stroke-width="0.7508" stroke-linecap="round" stroke-linejoin="round" stroke-miterlimit="10" d="
	M124.42,193.123h-21.99l-7.436,13.688v20.604h36.786v-20.604L124.42,193.123z M94.994,206.811h36.786"/>
<text transform="matrix(1 0 0 1 100 239.5498)"><tspan x="0" y="0" font-family="'Calibri'" font-size="8.275">w</tspan><tspan x="6.015" y="0" font-family="'Calibri'" font-size="8.275">o</tspan><tspan x="9.766" y="0" font-family="'Calibri'" font-size="8.275">r</tspan><tspan x="12.758" y="0" font-family="'Calibri'" font-size="8.275">k</tspan><tspan x="16.52" y="0" font-family="'Calibri'" font-size="8.275">e</tspan><tspan x="20.257" y="0" font-family="'Calibri'" font-size="8.275">r</tspan></text>
<text transform="matrix(1 0 0 1 123.1802 239.5498)" font-family="'Calibri'" font-size="8.275">3</text>
<polygon fill-rule="evenodd" clip-rule="evenodd" fill="#FFFFFF" points="57.773,193.123 35.778,193.123 28.346,206.811 
	28.346,227.414 65.13,227.414 65.13,206.811 "/>
<path fill="none" stroke="#000000" stroke-width="0.7508" stroke-linecap="round" stroke-linejoin="round" stroke-miterlimit="10" d="
	M57.773,193.123H35.778l-7.432,13.688v20.604H65.13v-20.604L57.773,193.123z M28.346,206.811H65.13"/>
<text transform="matrix(1 0 0 1 33.2251 239.5498)"><tspan x="0" y="0" font-family="'Calibri'" font-size="8.275">w</tspan><tspan x="5.99" y="0" font-family="'Calibri'" font-size="8.275">o</tspan><tspan x="9.741" y="0" font-family="'Calibri'" font-size="8.275">r</tspan><tspan x="12.734" y="0" font-family="'Calibri'" font-size="8.275">k</tspan><tspan x="16.496" y="0" font-family="'Calibri'" font-size="8.275">e</tspan><tspan x="20.232" y="0" font-family="'Calibri'" font-size="8.275">r</tspan></text>
<text transform="matrix(1 0 0 1 56.3999 239.5498)" font-family="'Calibri'" font-size="8.275">2</text>
<line fill="none" stroke="#000000" stroke-width="0.7508" stroke-linecap="round" stroke-linejoin="round" stroke-miterlimit="10" x1="141.73" y1="207.042" x2="281.42" y2="207.042"/>
<polygon fill-rule="evenodd" clip-rule="evenodd" points="280.73,204.284 286.24,207.042 280.73,209.799 "/>
<rect x="207.11" y="202.242" fill-rule="evenodd" clip-rule="evenodd" fill="#FFFFFF" width="13.754" height="9.6"/>
<text transform="matrix(1 0 0 1 207.5498 210)" font-family="'Calibri,Bold'" font-size="8.275">0</text>
<text transform="matrix(1 0 0 1 211.5996 210)"><tspan x="0" y="0" font-family="'Calibri,Bold'" font-size="8.275">m</tspan><tspan x="6.935" y="0" font-family="'Calibri,Bold'" font-size="8.275">s</tspan><tspan x="9.946" y="0" font-family="'Calibri,Bold'" font-size="8.275"> </tspan></text>
<path fill="none" stroke="#000000" stroke-width="0.7508" stroke-linecap="round" stroke-linejoin="round" stroke-miterlimit="10" d="
	M141.73,207.042l80.38-70.302c-0.86-0.99-0.761-2.48,0.22-3.34c0.979-0.86,2.479-0.76,3.34,0.23l67.16-58.75"/>
<polygon fill-rule="evenodd" clip-rule="evenodd" points="290.5,73.26 296.46,71.7 294.13,77.41 "/>
<rect x="208.26" y="134.57" fill-rule="evenodd" clip-rule="evenodd" fill="#FFFFFF" width="21.685" height="9.6"/>
<text transform="matrix(1 0 0 1 208.7002 142.1504)"><tspan x="0" y="0" font-family="'Calibri'" font-size="8.275">1</tspan><tspan x="3.756" y="0" font-family="'Calibri'" font-size="8.275">5</tspan><tspan x="8.247" y="0" font-family="'Calibri'" font-size="8.275">0</tspan></text>
<text transform="matrix(1 0 0 1 220.8799 142.1504)"><tspan x="0" y="0" font-family="'Calibri'" font-size="8.275">m</tspan><tspan x="6.768" y="0" font-family="'Calibri'" font-size="8.275">s</tspan></text>
<line fill="none" stroke="#000000" stroke-width="0.7508" stroke-linecap="round" stroke-linejoin="round" stroke-miterlimit="10" x1="142.11" y1="63.49" x2="285.4" y2="189.105"/>
<polygon fill-rule="evenodd" clip-rule="evenodd" points="286.7,186.577 289.02,192.287 283.06,190.724 "/>
<rect x="204.72" y="123.09" fill-rule="evenodd" clip-rule="evenodd" fill="#FFFFFF" width="21.685" height="9.6"/>
<text transform="matrix(1 0 0 1 205.1504 130.6201)"><tspan x="0" y="0" font-family="'Calibri'" font-size="8.275">1</tspan><tspan x="3.78" y="0" font-family="'Calibri'" font-size="8.275">5</tspan><tspan x="8.297" y="0" font-family="'Calibri'" font-size="8.275">0</tspan></text>
<text transform="matrix(1 0 0 1 217.3496 130.6201)"><tspan x="0" y="0" font-family="'Calibri'" font-size="8.275">m</tspan><tspan x="6.743" y="0" font-family="'Calibri'" font-size="8.275">s</tspan></text>
</svg>
