<?xml version="1.0" encoding="utf-8"?>
<!-- Generator: Adobe Illustrator 16.0.0, SVG Export Plug-In . SVG Version: 6.00 Build 0)  -->
<!DOCTYPE svg PUBLIC "-//W3C//DTD SVG 1.0//EN" "http://www.w3.org/TR/2001/REC-SVG-20010904/DTD/svg10.dtd">
<svg version="1.0" id="Layer_1" xmlns="http://www.w3.org/2000/svg" xmlns:xlink="http://www.w3.org/1999/xlink" x="0px" y="0px"
	 width="362.25px" height="193.5px" viewBox="0 0 362.25 193.5" enable-background="new 0 0 362.25 193.5" xml:space="preserve">
<ellipse fill-rule="evenodd" clip-rule="evenodd" fill="#F2F2F2" cx="80.052" cy="108.383" rx="61.677" ry="67.123"/>
<ellipse fill="none" stroke="#000000" stroke-width="0.7508" stroke-linecap="round" stroke-linejoin="round" stroke-miterlimit="10" cx="80.052" cy="108.383" rx="61.677" ry="67.123"/>
<text transform="matrix(1 0 0 1 66.8501 111.2002)"><tspan x="0" y="0" font-family="'Calibri,Bold'" font-size="8.3">G</tspan><tspan x="5.329" y="0" font-family="'Calibri,Bold'" font-size="8.3">r</tspan><tspan x="8.076" y="0" font-family="'Calibri,Bold'" font-size="8.3">o</tspan><tspan x="11.927" y="0" font-family="'Calibri,Bold'" font-size="8.3">up</tspan><tspan x="21.289" y="0" font-family="'Calibri,Bold'" font-size="8.3"> </tspan></text>
<text transform="matrix(1 0 0 1 89.5249 111.2002)" font-family="'Calibri,Bold'" font-size="8.3">0</text>
<line fill="none" stroke="#000000" stroke-width="0.7508" stroke-linecap="round" stroke-linejoin="round" stroke-miterlimit="10" x1="298.38" y1="50.28" x2="315.15" y2="50.28"/>
<rect x="315.15" y="40.387" fill-rule="evenodd" clip-rule="evenodd" fill="#FFFFFF" width="10.994" height="17.223"/>
<rect x="315.15" y="40.387" fill="none" stroke="#000000" stroke-width="0.7508" stroke-linecap="round" stroke-linejoin="round" stroke-miterlimit="10" width="10.994" height="17.223"/>
<circle fill-rule="evenodd" clip-rule="evenodd" cx="298.51" cy="33.4" r="13.69"/>
<circle fill="none" stroke="#000000" stroke-width="0.7508" stroke-linecap="round" stroke-linejoin="round" stroke-miterlimit="10" cx="298.51" cy="33.4" r="13.69"/>
<path fill-rule="evenodd" clip-rule="evenodd" fill="#FFFFFF" d="M324.38,49.59c0-0.37-0.3-0.66-0.66-0.66
	c-0.37,0-0.67,0.29-0.67,0.66c0,0.37,0.3,0.67,0.67,0.67C324.08,50.26,324.38,49.96,324.38,49.59z M319.13,52.17h5.36v-0.43h-5.36
	V52.17z M319.13,53.48h5.36v-0.43h-5.36V53.48z M319.13,54.78h5.36v-0.43h-5.36V54.78z M287.66,33.06
	c0.01-1.46,0.22-2.87,0.609-4.21h-2.09c-0.489,1.32-0.76,2.73-0.8,4.21H287.66z M288.39,37.95c-0.42-1.33-0.68-2.74-0.729-4.2h-2.28
	c0.04,1.47,0.311,2.89,0.8,4.2H288.39z M288.49,28.17c0.52-1.53,1.27-2.94,2.21-4.21h-1.32c-1.229,1.19-2.229,2.62-2.92,4.21H288.49
	z M288.63,38.64h-2.17c0.69,1.59,1.69,3.02,2.92,4.21H291C290.01,41.59,289.2,40.17,288.63,38.64z M288.37,33.06h4.24
	c0.029-1.44,0.18-2.84,0.439-4.21h-4.04C288.61,30.19,288.38,31.61,288.37,33.06z M293.01,37.95c-0.25-1.36-0.39-2.77-0.399-4.2
	h-4.24c0.06,1.45,0.32,2.87,0.76,4.2H293.01z M294.56,23.96h-3.119c-0.921,1.23-1.681,2.66-2.221,4.21h3.98
	C293.52,26.71,293.98,25.3,294.56,23.96z M294.46,42.85c-0.56-1.35-1-2.75-1.31-4.21h-3.771c0.59,1.55,1.43,2.97,2.47,4.21H294.46z
	 M291.24,23.27c0.529-0.64,1.1-1.23,1.729-1.78c-1.02,0.48-1.97,1.07-2.83,1.78H291.24z M291.58,43.53h-1.44
	c1.15,0.95,2.45,1.7,3.87,2.22C293.12,45.1,292.31,44.36,291.58,43.53z M291.99,23.27h2.88c0.46-0.98,0.979-1.93,1.57-2.84
	c-0.53,0.08-1.04,0.2-1.54,0.34C293.85,21.39,292.86,22.24,291.99,23.27z M296.26,46.33c-0.56-0.9-1.06-1.83-1.5-2.8h-2.3
	C293.56,44.69,294.84,45.64,296.26,46.33z M298.16,33.75h-4.84c0.02,1.43,0.16,2.84,0.42,4.2h4.42V33.75z M298.16,28.85h-4.38
	c-0.271,1.37-0.42,2.77-0.45,4.21h4.83V28.85z M298.16,38.64h-4.28c0.32,1.46,0.771,2.87,1.34,4.21h2.94V38.64z M298.16,23.96h-2.87
	c-0.57,1.34-1.03,2.75-1.37,4.21h4.24V23.96z M298.16,43.53h-2.641c0.471,1.03,1,2.01,1.58,2.94c0.351,0.03,0.71,0.05,1.061,0.06
	V43.53z M298.16,20.27c-0.32,0.01-0.641,0.03-0.96,0.06c-0.59,0.94-1.13,1.92-1.601,2.94h2.561V20.27z M298.85,42.85h2.71
	c0.561-1.34,1.011-2.75,1.33-4.21h-4.04V42.85z M298.85,37.95h4.19c0.26-1.36,0.4-2.77,0.41-4.2h-4.601V37.95z M301.26,43.53h-2.41
	v3c0.271,0,0.54-0.02,0.811-0.04C300.25,45.55,300.79,44.57,301.26,43.53z M298.85,33.06h4.601c-0.03-1.44-0.181-2.84-0.45-4.21
	h-4.15V33.06z M298.85,23.96v4.21h4c-0.33-1.46-0.79-2.87-1.359-4.21H298.85z M298.85,23.27h2.33c-0.479-1.03-1.02-2.02-1.609-2.96
	c-0.24-0.02-0.48-0.03-0.721-0.04V23.27z M301.94,20.72c-0.53-0.14-1.07-0.25-1.62-0.33c0.59,0.92,1.12,1.88,1.59,2.88h3.03
	C304.04,22.21,303.02,21.34,301.94,20.72z M304.46,43.53h-2.45c-0.45,1-0.96,1.95-1.54,2.87c0.03-0.01,0.061-0.01,0.09-0.02
	C302.02,45.69,303.34,44.72,304.46,43.53z M302.22,23.96c0.57,1.34,1.03,2.75,1.36,4.21h4.12c-0.54-1.55-1.3-2.98-2.21-4.21H302.22z
	 M307.55,38.64h-3.92c-0.32,1.46-0.76,2.86-1.32,4.21h2.771C306.11,41.61,306.95,40.19,307.55,38.64z M305.34,43.53
	c-0.75,0.85-1.59,1.61-2.5,2.28c1.48-0.52,2.84-1.29,4.03-2.28H305.34z M307.92,28.85h-4.2c0.271,1.37,0.42,2.77,0.44,4.21h4.399
	C308.54,31.61,308.32,30.19,307.92,28.85z M308.55,33.75h-4.38c-0.02,1.43-0.15,2.84-0.4,4.2h4.021
	C308.23,36.62,308.5,35.2,308.55,33.75z M305.69,23.27h1.18c-0.91-0.75-1.92-1.38-3.01-1.87C304.52,21.98,305.13,22.6,305.69,23.27z
	 M308.29,38.64c-0.57,1.53-1.37,2.95-2.37,4.21h1.72c1.23-1.19,2.221-2.62,2.92-4.21H308.29z M308.43,28.17h2.13
	c-0.699-1.6-1.689-3.02-2.92-4.21h-1.409C307.17,25.23,307.91,26.64,308.43,28.17z M309.26,33.75c-0.05,1.46-0.3,2.87-0.729,4.2
	h2.31c0.48-1.31,0.76-2.73,0.8-4.2H309.26z M308.65,28.85c0.39,1.34,0.609,2.75,0.619,4.21h2.37c-0.04-1.48-0.319-2.89-0.8-4.21
	H308.65z"/>
<path fill="none" stroke="#000000" stroke-width="0.7508" stroke-linecap="round" stroke-linejoin="round" stroke-miterlimit="10" d="
	M324.38,49.59c0-0.37-0.3-0.66-0.66-0.66c-0.37,0-0.67,0.29-0.67,0.66c0,0.37,0.3,0.67,0.67,0.67
	C324.08,50.26,324.38,49.96,324.38,49.59z M319.13,52.17h5.36v-0.43h-5.36V52.17z M319.13,53.48h5.36v-0.43h-5.36V53.48z
	 M319.13,54.78h5.36v-0.43h-5.36V54.78z M287.66,33.06c0.01-1.46,0.22-2.87,0.609-4.21h-2.09c-0.489,1.32-0.76,2.73-0.8,4.21H287.66
	z M288.39,37.95c-0.42-1.33-0.68-2.74-0.729-4.2h-2.28c0.04,1.47,0.311,2.89,0.8,4.2H288.39z M288.49,28.17
	c0.52-1.53,1.27-2.94,2.21-4.21h-1.32c-1.229,1.19-2.229,2.62-2.92,4.21H288.49z M288.63,38.64h-2.17c0.69,1.59,1.69,3.02,2.92,4.21
	H291C290.01,41.59,289.2,40.17,288.63,38.64z M288.37,33.06h4.24c0.029-1.44,0.18-2.84,0.439-4.21h-4.04
	C288.61,30.19,288.38,31.61,288.37,33.06z M293.01,37.95c-0.25-1.36-0.39-2.77-0.399-4.2h-4.24c0.06,1.45,0.32,2.87,0.76,4.2H293.01
	z M294.56,23.96h-3.119c-0.921,1.23-1.681,2.66-2.221,4.21h3.98C293.52,26.71,293.98,25.3,294.56,23.96z M294.46,42.85
	c-0.56-1.35-1-2.75-1.31-4.21h-3.771c0.59,1.55,1.43,2.97,2.47,4.21H294.46z M291.24,23.27c0.529-0.64,1.1-1.23,1.729-1.78
	c-1.02,0.48-1.97,1.07-2.83,1.78H291.24z M291.58,43.53h-1.44c1.15,0.95,2.45,1.7,3.87,2.22C293.12,45.1,292.31,44.36,291.58,43.53z
	 M291.99,23.27h2.88c0.46-0.98,0.979-1.93,1.57-2.84c-0.53,0.08-1.04,0.2-1.54,0.34C293.85,21.39,292.86,22.24,291.99,23.27z
	 M296.26,46.33c-0.56-0.9-1.06-1.83-1.5-2.8h-2.3C293.56,44.69,294.84,45.64,296.26,46.33z M298.16,33.75h-4.84
	c0.02,1.43,0.16,2.84,0.42,4.2h4.42V33.75z M298.16,28.85h-4.38c-0.271,1.37-0.42,2.77-0.45,4.21h4.83V28.85z M298.16,38.64h-4.28
	c0.32,1.46,0.771,2.87,1.34,4.21h2.94V38.64z M298.16,23.96h-2.87c-0.57,1.34-1.03,2.75-1.37,4.21h4.24V23.96z M298.16,43.53h-2.641
	c0.471,1.03,1,2.01,1.58,2.94c0.351,0.03,0.71,0.05,1.061,0.06V43.53z M298.16,20.27c-0.32,0.01-0.641,0.03-0.96,0.06
	c-0.59,0.94-1.13,1.92-1.601,2.94h2.561V20.27z M298.85,42.85h2.71c0.561-1.34,1.011-2.75,1.33-4.21h-4.04V42.85z M298.85,37.95
	h4.19c0.26-1.36,0.4-2.77,0.41-4.2h-4.601V37.95z M301.26,43.53h-2.41v3c0.271,0,0.54-0.02,0.811-0.04
	C300.25,45.55,300.79,44.57,301.26,43.53z M298.85,33.06h4.601c-0.03-1.44-0.181-2.84-0.45-4.21h-4.15V33.06z M298.85,23.96v4.21h4
	c-0.33-1.46-0.79-2.87-1.359-4.21H298.85z M298.85,23.27h2.33c-0.479-1.03-1.02-2.02-1.609-2.96c-0.24-0.02-0.48-0.03-0.721-0.04
	V23.27z M301.94,20.72c-0.53-0.14-1.07-0.25-1.62-0.33c0.59,0.92,1.12,1.88,1.59,2.88h3.03C304.04,22.21,303.02,21.34,301.94,20.72z
	 M304.46,43.53h-2.45c-0.45,1-0.96,1.95-1.54,2.87c0.03-0.01,0.061-0.01,0.09-0.02C302.02,45.69,303.34,44.72,304.46,43.53z
	 M302.22,23.96c0.57,1.34,1.03,2.75,1.36,4.21h4.12c-0.54-1.55-1.3-2.98-2.21-4.21H302.22z M307.55,38.64h-3.92
	c-0.32,1.46-0.76,2.86-1.32,4.21h2.771C306.11,41.61,306.95,40.19,307.55,38.64z M305.34,43.53c-0.75,0.85-1.59,1.61-2.5,2.28
	c1.48-0.52,2.84-1.29,4.03-2.28H305.34z M307.92,28.85h-4.2c0.271,1.37,0.42,2.77,0.44,4.21h4.399
	C308.54,31.61,308.32,30.19,307.92,28.85z M308.55,33.75h-4.38c-0.02,1.43-0.15,2.84-0.4,4.2h4.021
	C308.23,36.62,308.5,35.2,308.55,33.75z M305.69,23.27h1.18c-0.91-0.75-1.92-1.38-3.01-1.87C304.52,21.98,305.13,22.6,305.69,23.27z
	 M308.29,38.64c-0.57,1.53-1.37,2.95-2.37,4.21h1.72c1.23-1.19,2.221-2.62,2.92-4.21H308.29z M308.43,28.17h2.13
	c-0.699-1.6-1.689-3.02-2.92-4.21h-1.409C307.17,25.23,307.91,26.64,308.43,28.17z M309.26,33.75c-0.05,1.46-0.3,2.87-0.729,4.2
	h2.31c0.48-1.31,0.76-2.73,0.8-4.2H309.26z M308.65,28.85c0.39,1.34,0.609,2.75,0.619,4.21h2.37c-0.04-1.48-0.319-2.89-0.8-4.21
	H308.65z"/>
<text transform="matrix(1 0 0 1 272.7695 72.6001)"><tspan x="0" y="0" font-family="'Calibri'" font-size="9.8">b</tspan><tspan x="5.267" y="0" font-family="'Calibri'" font-size="9.8">s</tspan></text>
<text transform="matrix(1 0 0 1 281.9805 72.6001)" font-family="'Calibri'" font-size="9.8">.</text>
<text transform="matrix(1 0 0 1 284.5 72.6001)"><tspan x="0" y="0" font-family="'Calibri'" font-size="9.8">w</tspan><tspan x="7.515" y="0" font-family="'Calibri'" font-size="9.8">i</tspan><tspan x="9.764" y="0" font-family="'Calibri'" font-size="9.8">k</tspan><tspan x="14.248" y="0" font-family="'Calibri'" font-size="9.8">i</tspan><tspan x="16.497" y="0" font-family="'Calibri'" font-size="9.8">p</tspan><tspan x="21.725" y="0" font-family="'Calibri'" font-size="9.8">e</tspan><tspan x="26.229" y="0" font-family="'Calibri'" font-size="9.8">d</tspan><tspan x="31.466" y="0" font-family="'Calibri'" font-size="9.8">ia</tspan></text>
<text transform="matrix(1 0 0 1 323.4199 72.6001)" font-family="'Calibri'" font-size="9.8">.</text>
<text transform="matrix(1 0 0 1 325.9805 72.6001)"><tspan x="0" y="0" font-family="'Calibri'" font-size="9.8">o</tspan><tspan x="5.236" y="0" font-family="'Calibri'" font-size="9.8">r</tspan><tspan x="8.977" y="0" font-family="'Calibri'" font-size="9.8">g</tspan></text>
<line fill="none" stroke="#000000" stroke-width="0.7508" stroke-linecap="round" stroke-linejoin="round" stroke-miterlimit="10" x1="298.38" y1="148.434" x2="315.15" y2="148.434"/>
<rect x="315.15" y="138.535" fill-rule="evenodd" clip-rule="evenodd" fill="#FFFFFF" width="10.994" height="17.223"/>
<rect x="315.15" y="138.535" fill="none" stroke="#000000" stroke-width="0.7508" stroke-linecap="round" stroke-linejoin="round" stroke-miterlimit="10" width="10.994" height="17.223"/>
<circle fill-rule="evenodd" clip-rule="evenodd" cx="298.51" cy="131.554" r="13.69"/>
<circle fill="none" stroke="#000000" stroke-width="0.7508" stroke-linecap="round" stroke-linejoin="round" stroke-miterlimit="10" cx="298.51" cy="131.554" r="13.69"/>
<path fill-rule="evenodd" clip-rule="evenodd" fill="#FFFFFF" d="M324.38,147.741c0-0.367-0.3-0.665-0.66-0.665
	c-0.37,0-0.67,0.298-0.67,0.665s0.3,0.665,0.67,0.665C324.08,148.406,324.38,148.108,324.38,147.741z M319.13,150.323h5.36v-0.432
	h-5.36V150.323z M319.13,151.63h5.36v-0.431h-5.36V151.63z M319.13,152.935h5.36v-0.431h-5.36V152.935z M287.66,131.21
	c0.01-1.459,0.22-2.869,0.609-4.206h-2.09c-0.489,1.316-0.76,2.731-0.8,4.206H287.66z M288.39,136.104
	c-0.42-1.332-0.68-2.742-0.729-4.205h-2.28c0.04,1.475,0.311,2.891,0.8,4.205H288.39z M288.49,126.317
	c0.52-1.522,1.27-2.938,2.21-4.206h-1.32c-1.229,1.188-2.229,2.614-2.92,4.206H288.49z M288.63,136.792h-2.17
	c0.69,1.591,1.69,3.017,2.92,4.206H291C290.01,139.739,289.2,138.323,288.63,136.792z M288.37,131.21h4.24
	c0.029-1.436,0.18-2.841,0.439-4.206h-4.04C288.61,128.345,288.38,129.763,288.37,131.21z M293.01,136.104
	c-0.25-1.364-0.39-2.771-0.399-4.205h-4.24c0.06,1.453,0.32,2.869,0.76,4.205H293.01z M294.56,122.111h-3.119
	c-0.921,1.226-1.681,2.654-2.221,4.206h3.98C293.52,124.861,293.98,123.455,294.56,122.111z M294.46,140.998
	c-0.56-1.345-1-2.752-1.31-4.206h-3.771c0.59,1.546,1.43,2.97,2.47,4.206H294.46z M291.24,121.423
	c0.529-0.638,1.1-1.233,1.729-1.781c-1.02,0.475-1.97,1.073-2.83,1.781H291.24z M291.58,141.685h-1.44
	c1.15,0.945,2.45,1.7,3.87,2.218C293.12,143.25,292.31,142.507,291.58,141.685z M291.99,121.423h2.88
	c0.46-0.986,0.979-1.934,1.57-2.843c-0.53,0.083-1.04,0.199-1.54,0.342C293.85,119.537,292.86,120.389,291.99,121.423z
	 M296.26,144.479c-0.56-0.894-1.06-1.825-1.5-2.794h-2.3C293.56,142.839,294.84,143.791,296.26,144.479z M298.16,131.898h-4.84
	c0.02,1.435,0.16,2.842,0.42,4.205h4.42V131.898z M298.16,127.004h-4.38c-0.271,1.362-0.42,2.768-0.45,4.206h4.83V127.004z
	 M298.16,136.792h-4.28c0.32,1.459,0.771,2.866,1.34,4.206h2.94V136.792z M298.16,122.111h-2.87c-0.57,1.341-1.03,2.747-1.37,4.206
	h4.24V122.111z M298.16,141.685h-2.641c0.471,1.023,1,2.002,1.58,2.933c0.351,0.037,0.71,0.058,1.061,0.066V141.685z
	 M298.16,118.425c-0.32,0.008-0.641,0.025-0.96,0.057c-0.59,0.937-1.13,1.919-1.601,2.941h2.561V118.425z M298.85,140.998h2.71
	c0.561-1.34,1.011-2.747,1.33-4.206h-4.04V140.998z M298.85,136.104h4.19c0.26-1.363,0.4-2.771,0.41-4.205h-4.601V136.104z
	 M301.26,141.685h-2.41v2.999c0.271-0.007,0.54-0.021,0.811-0.045C300.25,143.703,300.79,142.717,301.26,141.685z M298.85,131.21
	h4.601c-0.03-1.438-0.181-2.844-0.45-4.206h-4.15V131.21z M298.85,122.111v4.206h4c-0.33-1.459-0.79-2.865-1.359-4.206H298.85z
	 M298.85,121.423h2.33c-0.479-1.03-1.02-2.018-1.609-2.961c-0.24-0.018-0.48-0.031-0.721-0.037V121.423z M301.94,118.873
	c-0.53-0.143-1.07-0.254-1.62-0.33c0.59,0.92,1.12,1.881,1.59,2.88h3.03C304.04,120.362,303.02,119.491,301.94,118.873z
	 M304.46,141.685h-2.45c-0.45,0.992-0.96,1.946-1.54,2.861c0.03-0.004,0.061-0.009,0.09-0.014
	C302.02,143.84,303.34,142.867,304.46,141.685z M302.22,122.111c0.57,1.344,1.03,2.75,1.36,4.206h4.12
	c-0.54-1.552-1.3-2.98-2.21-4.206H302.22z M307.55,136.792h-3.92c-0.32,1.454-0.76,2.861-1.32,4.206h2.771
	C306.11,139.762,306.95,138.337,307.55,136.792z M305.34,141.685c-0.75,0.847-1.59,1.609-2.5,2.274
	c1.48-0.517,2.84-1.291,4.03-2.274H305.34z M307.92,127.004h-4.2c0.271,1.365,0.42,2.771,0.44,4.206h4.399
	C308.54,129.763,308.32,128.345,307.92,127.004z M308.55,131.898h-4.38c-0.02,1.435-0.15,2.841-0.4,4.205h4.021
	C308.23,134.768,308.5,133.352,308.55,131.898z M305.69,121.423h1.18c-0.91-0.752-1.92-1.381-3.01-1.869
	C304.52,120.126,305.13,120.75,305.69,121.423z M308.29,136.792c-0.57,1.531-1.37,2.947-2.37,4.206h1.72
	c1.23-1.189,2.221-2.615,2.92-4.206H308.29z M308.43,126.317h2.13c-0.699-1.592-1.689-3.018-2.92-4.206h-1.409
	C307.17,123.38,307.91,124.795,308.43,126.317z M309.26,131.898c-0.05,1.463-0.3,2.873-0.729,4.205h2.31
	c0.48-1.314,0.76-2.73,0.8-4.205H309.26z M308.65,127.004c0.39,1.337,0.609,2.747,0.619,4.206h2.37
	c-0.04-1.475-0.319-2.89-0.8-4.206H308.65z"/>
<path fill="none" stroke="#000000" stroke-width="0.7508" stroke-linecap="round" stroke-linejoin="round" stroke-miterlimit="10" d="
	M324.38,147.741c0-0.367-0.3-0.665-0.66-0.665c-0.37,0-0.67,0.298-0.67,0.665s0.3,0.665,0.67,0.665
	C324.08,148.406,324.38,148.108,324.38,147.741z M319.13,150.323h5.36v-0.432h-5.36V150.323z M319.13,151.63h5.36v-0.431h-5.36
	V151.63z M319.13,152.935h5.36v-0.431h-5.36V152.935z M287.66,131.21c0.01-1.459,0.22-2.869,0.609-4.206h-2.09
	c-0.489,1.316-0.76,2.731-0.8,4.206H287.66z M288.39,136.104c-0.42-1.332-0.68-2.742-0.729-4.205h-2.28
	c0.04,1.475,0.311,2.891,0.8,4.205H288.39z M288.49,126.317c0.52-1.522,1.27-2.938,2.21-4.206h-1.32
	c-1.229,1.188-2.229,2.614-2.92,4.206H288.49z M288.63,136.792h-2.17c0.69,1.591,1.69,3.017,2.92,4.206H291
	C290.01,139.739,289.2,138.323,288.63,136.792z M288.37,131.21h4.24c0.029-1.436,0.18-2.841,0.439-4.206h-4.04
	C288.61,128.345,288.38,129.763,288.37,131.21z M293.01,136.104c-0.25-1.364-0.39-2.771-0.399-4.205h-4.24
	c0.06,1.453,0.32,2.869,0.76,4.205H293.01z M294.56,122.111h-3.119c-0.921,1.226-1.681,2.654-2.221,4.206h3.98
	C293.52,124.861,293.98,123.455,294.56,122.111z M294.46,140.998c-0.56-1.345-1-2.752-1.31-4.206h-3.771
	c0.59,1.546,1.43,2.97,2.47,4.206H294.46z M291.24,121.423c0.529-0.638,1.1-1.233,1.729-1.781c-1.02,0.475-1.97,1.073-2.83,1.781
	H291.24z M291.58,141.685h-1.44c1.15,0.945,2.45,1.7,3.87,2.218C293.12,143.25,292.31,142.507,291.58,141.685z M291.99,121.423h2.88
	c0.46-0.986,0.979-1.934,1.57-2.843c-0.53,0.083-1.04,0.199-1.54,0.342C293.85,119.537,292.86,120.389,291.99,121.423z
	 M296.26,144.479c-0.56-0.894-1.06-1.825-1.5-2.794h-2.3C293.56,142.839,294.84,143.791,296.26,144.479z M298.16,131.898h-4.84
	c0.02,1.435,0.16,2.842,0.42,4.205h4.42V131.898z M298.16,127.004h-4.38c-0.271,1.362-0.42,2.768-0.45,4.206h4.83V127.004z
	 M298.16,136.792h-4.28c0.32,1.459,0.771,2.866,1.34,4.206h2.94V136.792z M298.16,122.111h-2.87c-0.57,1.341-1.03,2.747-1.37,4.206
	h4.24V122.111z M298.16,141.685h-2.641c0.471,1.023,1,2.002,1.58,2.933c0.351,0.037,0.71,0.058,1.061,0.066V141.685z
	 M298.16,118.425c-0.32,0.008-0.641,0.025-0.96,0.057c-0.59,0.937-1.13,1.919-1.601,2.941h2.561V118.425z M298.85,140.998h2.71
	c0.561-1.34,1.011-2.747,1.33-4.206h-4.04V140.998z M298.85,136.104h4.19c0.26-1.363,0.4-2.771,0.41-4.205h-4.601V136.104z
	 M301.26,141.685h-2.41v2.999c0.271-0.007,0.54-0.021,0.811-0.045C300.25,143.703,300.79,142.717,301.26,141.685z M298.85,131.21
	h4.601c-0.03-1.438-0.181-2.844-0.45-4.206h-4.15V131.21z M298.85,122.111v4.206h4c-0.33-1.459-0.79-2.865-1.359-4.206H298.85z
	 M298.85,121.423h2.33c-0.479-1.03-1.02-2.018-1.609-2.961c-0.24-0.018-0.48-0.031-0.721-0.037V121.423z M301.94,118.873
	c-0.53-0.143-1.07-0.254-1.62-0.33c0.59,0.92,1.12,1.881,1.59,2.88h3.03C304.04,120.362,303.02,119.491,301.94,118.873z
	 M304.46,141.685h-2.45c-0.45,0.992-0.96,1.946-1.54,2.861c0.03-0.004,0.061-0.009,0.09-0.014
	C302.02,143.84,303.34,142.867,304.46,141.685z M302.22,122.111c0.57,1.344,1.03,2.75,1.36,4.206h4.12
	c-0.54-1.552-1.3-2.98-2.21-4.206H302.22z M307.55,136.792h-3.92c-0.32,1.454-0.76,2.861-1.32,4.206h2.771
	C306.11,139.762,306.95,138.337,307.55,136.792z M305.34,141.685c-0.75,0.847-1.59,1.609-2.5,2.274
	c1.48-0.517,2.84-1.291,4.03-2.274H305.34z M307.92,127.004h-4.2c0.271,1.365,0.42,2.771,0.44,4.206h4.399
	C308.54,129.763,308.32,128.345,307.92,127.004z M308.55,131.898h-4.38c-0.02,1.435-0.15,2.841-0.4,4.205h4.021
	C308.23,134.768,308.5,133.352,308.55,131.898z M305.69,121.423h1.18c-0.91-0.752-1.92-1.381-3.01-1.869
	C304.52,120.126,305.13,120.75,305.69,121.423z M308.29,136.792c-0.57,1.531-1.37,2.947-2.37,4.206h1.72
	c1.23-1.189,2.221-2.615,2.92-4.206H308.29z M308.43,126.317h2.13c-0.699-1.592-1.689-3.018-2.92-4.206h-1.409
	C307.17,123.38,307.91,124.795,308.43,126.317z M309.26,131.898c-0.05,1.463-0.3,2.873-0.729,4.205h2.31
	c0.48-1.314,0.76-2.73,0.8-4.205H309.26z M308.65,127.004c0.39,1.337,0.609,2.747,0.619,4.206h2.37
	c-0.04-1.475-0.319-2.89-0.8-4.206H308.65z"/>
<text transform="matrix(1 0 0 1 272.1299 171.125)"><tspan x="0" y="0" font-family="'Calibri'" font-size="9.8">b</tspan><tspan x="5.247" y="0" font-family="'Calibri'" font-size="9.8">n</tspan></text>
<text transform="matrix(1 0 0 1 282.6504 171.125)" font-family="'Calibri'" font-size="9.8">.</text>
<text transform="matrix(1 0 0 1 285.1699 171.125)"><tspan x="0" y="0" font-family="'Calibri'" font-size="9.8">w</tspan><tspan x="7.515" y="0" font-family="'Calibri'" font-size="9.8">i</tspan><tspan x="9.764" y="0" font-family="'Calibri'" font-size="9.8">k</tspan><tspan x="14.248" y="0" font-family="'Calibri'" font-size="9.8">i</tspan><tspan x="16.497" y="0" font-family="'Calibri'" font-size="9.8">p</tspan><tspan x="21.725" y="0" font-family="'Calibri'" font-size="9.8">e</tspan><tspan x="26.229" y="0" font-family="'Calibri'" font-size="9.8">d</tspan><tspan x="31.466" y="0" font-family="'Calibri'" font-size="9.8">ia</tspan></text>
<text transform="matrix(1 0 0 1 324.0996 171.125)" font-family="'Calibri'" font-size="9.8">.</text>
<text transform="matrix(1 0 0 1 326.6504 171.125)"><tspan x="0" y="0" font-family="'Calibri'" font-size="9.8">o</tspan><tspan x="5.236" y="0" font-family="'Calibri'" font-size="9.8">r</tspan><tspan x="8.977" y="0" font-family="'Calibri'" font-size="9.8">g</tspan></text>
<rect x="18.375" y="18.38" fill="none" stroke="#000000" stroke-width="0.7508" stroke-linecap="round" stroke-linejoin="round" stroke-miterlimit="10" width="123.36" height="156.75"/>
<text transform="matrix(1 0 0 1 22.4248 33.2998)"><tspan x="0" y="0" font-family="'Calibri'" font-size="12.05">R</tspan><tspan x="6.735" y="0" font-family="'Calibri'" font-size="12.05">e</tspan><tspan x="12.731" y="0" font-family="'Calibri'" font-size="12.05">g</tspan><tspan x="17.994" y="0" font-family="'Calibri'" font-size="12.05">i</tspan><tspan x="20.976" y="0" font-family="'Calibri'" font-size="12.05">o</tspan><tspan x="26.981" y="0" font-family="'Calibri'" font-size="12.05">n</tspan><tspan x="33.709" y="0" font-family="'Calibri'" font-size="12.05"> </tspan></text>
<text transform="matrix(1 0 0 1 58.7251 33.2998)" font-family="'Calibri'" font-size="12.05">1</text>
<polygon fill-rule="evenodd" clip-rule="evenodd" fill="#FFFFFF" points="115.73,57.56 93.731,57.56 86.3,71.24 86.3,91.85 
	123.08,91.85 123.08,71.24 "/>
<path fill="none" stroke="#000000" stroke-width="0.7508" stroke-linecap="round" stroke-linejoin="round" stroke-miterlimit="10" d="
	M115.73,57.56H93.731L86.3,71.24v20.61h36.78V71.24L115.73,57.56z M86.3,71.24h36.78"/>
<text transform="matrix(1 0 0 1 91.2998 103.75)"><tspan x="0" y="0" font-family="'Calibri'" font-size="8.275">w</tspan><tspan x="5.99" y="0" font-family="'Calibri'" font-size="8.275">o</tspan><tspan x="9.741" y="0" font-family="'Calibri'" font-size="8.275">r</tspan><tspan x="12.734" y="0" font-family="'Calibri'" font-size="8.275">k</tspan><tspan x="16.496" y="0" font-family="'Calibri'" font-size="8.275">e</tspan><tspan x="20.232" y="0" font-family="'Calibri'" font-size="8.275">r</tspan></text>
<text transform="matrix(1 0 0 1 114.4702 103.75)" font-family="'Calibri'" font-size="8.275">1</text>
<polygon fill-rule="evenodd" clip-rule="evenodd" fill="#FFFFFF" points="67.471,57.56 45.475,57.56 38.044,71.24 38.044,91.85 
	74.828,91.85 74.828,71.24 "/>
<path fill="none" stroke="#000000" stroke-width="0.7508" stroke-linecap="round" stroke-linejoin="round" stroke-miterlimit="10" d="
	M67.471,57.56H45.475l-7.431,13.68v20.61h36.784V71.24L67.471,57.56z M38.044,71.24h36.784"/>
<text transform="matrix(1 0 0 1 42.9248 103.7246)"><tspan x="0" y="0" font-family="'Calibri'" font-size="8.3">w</tspan><tspan x="6.016" y="0" font-family="'Calibri'" font-size="8.3">o</tspan><tspan x="9.795" y="0" font-family="'Calibri'" font-size="8.3">r</tspan><tspan x="12.805" y="0" font-family="'Calibri'" font-size="8.3">k</tspan><tspan x="16.579" y="0" font-family="'Calibri'" font-size="8.3">e</tspan><tspan x="20.359" y="0" font-family="'Calibri'" font-size="8.3">r</tspan></text>
<text transform="matrix(1 0 0 1 66.125 103.7246)" font-family="'Calibri'" font-size="8.3">0</text>
<polygon fill-rule="evenodd" clip-rule="evenodd" fill="#FFFFFF" points="115.73,111.183 93.731,111.183 86.3,124.871 86.3,145.474 
	123.08,145.474 123.08,124.871 "/>
<path fill="none" stroke="#000000" stroke-width="0.7508" stroke-linecap="round" stroke-linejoin="round" stroke-miterlimit="10" d="
	M115.73,111.183H93.731L86.3,124.871v20.603h36.78v-20.603L115.73,111.183z M86.3,124.871h36.78"/>
<text transform="matrix(1 0 0 1 91.2998 157.5752)"><tspan x="0" y="0" font-family="'Calibri'" font-size="8.275">w</tspan><tspan x="5.99" y="0" font-family="'Calibri'" font-size="8.275">o</tspan><tspan x="9.741" y="0" font-family="'Calibri'" font-size="8.275">r</tspan><tspan x="12.734" y="0" font-family="'Calibri'" font-size="8.275">k</tspan><tspan x="16.496" y="0" font-family="'Calibri'" font-size="8.275">e</tspan><tspan x="20.232" y="0" font-family="'Calibri'" font-size="8.275">r</tspan></text>
<text transform="matrix(1 0 0 1 114.4702 157.5752)" font-family="'Calibri'" font-size="8.275">3</text>
<polygon fill-rule="evenodd" clip-rule="evenodd" fill="#FFFFFF" points="67.471,111.183 45.475,111.183 38.044,124.871 
	38.044,145.474 74.828,145.474 74.828,124.871 "/>
<path fill="none" stroke="#000000" stroke-width="0.7508" stroke-linecap="round" stroke-linejoin="round" stroke-miterlimit="10" d="
	M67.471,111.183H45.475l-7.431,13.688v20.603h36.784v-20.603L67.471,111.183z M38.044,124.871h36.784"/>
<text transform="matrix(1 0 0 1 42.9248 157.5752)"><tspan x="0" y="0" font-family="'Calibri'" font-size="8.275">w</tspan><tspan x="6.015" y="0" font-family="'Calibri'" font-size="8.275">o</tspan><tspan x="9.791" y="0" font-family="'Calibri'" font-size="8.275">r</tspan><tspan x="12.808" y="0" font-family="'Calibri'" font-size="8.275">k</tspan><tspan x="16.57" y="0" font-family="'Calibri'" font-size="8.275">e</tspan><tspan x="20.356" y="0" font-family="'Calibri'" font-size="8.275">r</tspan></text>
<text transform="matrix(1 0 0 1 66.125 157.5752)" font-family="'Calibri'" font-size="8.275">2</text>
<line fill="none" stroke="#000000" stroke-width="0.7508" stroke-linecap="round" stroke-linejoin="round" stroke-miterlimit="10" x1="141.73" y1="38.85" x2="281.12" y2="38.85"/>
<polygon fill-rule="evenodd" clip-rule="evenodd" points="280.43,36.09 285.95,38.85 280.43,41.61 "/>
<rect x="207.05" y="34.05" fill-rule="evenodd" clip-rule="evenodd" fill="#FFFFFF" width="13.574" height="9.6"/>
<text transform="matrix(1 0 0 1 207.5 41.3999)" font-family="'Calibri'" font-size="8.3">0</text>
<text transform="matrix(1 0 0 1 211.5498 41.3999)"><tspan x="0" y="0" font-family="'Calibri'" font-size="8.3">m</tspan><tspan x="6.771" y="0" font-family="'Calibri'" font-size="8.3">s</tspan></text>
<line fill="none" stroke="#000000" stroke-width="0.7508" stroke-linecap="round" stroke-linejoin="round" stroke-miterlimit="10" x1="141.73" y1="136.812" x2="281.04" y2="136.812"/>
<polygon fill-rule="evenodd" clip-rule="evenodd" points="280.35,134.054 285.87,136.812 280.35,139.569 "/>
<rect x="207.01" y="132.012" fill-rule="evenodd" clip-rule="evenodd" fill="#FFFFFF" width="13.574" height="9.601"/>
<text transform="matrix(1 0 0 1 207.4502 139.75)" font-family="'Calibri'" font-size="8.275">0</text>
<text transform="matrix(1 0 0 1 211.5195 139.75)"><tspan x="0" y="0" font-family="'Calibri'" font-size="8.275">m</tspan><tspan x="6.743" y="0" font-family="'Calibri'" font-size="8.275">s</tspan></text>
</svg>
